<svg width="103" height="47" viewBox="0 0 103 47" fill="none" xmlns="http://www.w3.org/2000/svg">
<path d="M6.36015 0.622513C6.20739 0.759466 3.75633 1.14543 2.20099 6.38702C-1.00691 17.1566 0.145707 42.5552 3.97158 44.5099C10.8179 48.0209 96.591 45.4811 96.591 45.4811C96.591 45.4811 102.333 44.6842 102.549 34.5621C102.764 24.44 103.326 1.73059 95.9245 2.36556C88.5227 3.00053 6.36015 0.622513 6.36015 0.622513Z" fill="#FFCD45"/>
<path d="M40.7792 47C22.7885 47 6.72126 46.5642 3.87442 45.1076C2.93705 44.622 2.12466 42.9785 1.47197 40.227C-0.472214 32.0223 -0.659689 14.654 1.88858 6.10066C2.85373 2.85113 4.28409 0.834172 6.14495 0.0871523L6.23521 0.0498013C6.29076 0 6.31159 0 6.36714 0C7.18648 0.0249007 88.5991 2.37801 95.9037 1.74305C97.5007 1.59364 98.8547 2.50252 99.917 4.39497C103.403 10.5828 103.076 25.9838 102.896 34.2509L102.889 34.5746C102.667 45.1325 96.6744 46.0787 96.6119 46.0911C94.5705 46.1658 65.8105 47 40.7792 47ZM6.4088 1.24503C6.38103 1.25748 6.34631 1.28238 6.29771 1.29483C4.65209 1.9547 3.37449 3.76 2.50655 6.67338C0.0416052 14.9528 0.22908 31.7732 2.11077 39.729C2.67319 42.0946 3.34672 43.5388 4.0619 43.8999C10.7832 47.3486 95.7232 44.871 96.5841 44.8461C96.7855 44.8212 102 43.9621 102.201 34.5248L102.208 34.2011C102.382 26.1208 102.701 11.0808 99.431 5.27894C98.4936 3.6106 97.3479 2.86358 95.9384 2.98808C88.6824 3.6106 8.95707 1.31974 6.4088 1.24503Z" fill="black"/>
<path d="M13.2898 8.34172C13.2898 8.34172 8.6099 8.00556 8.04747 17.9409C7.48505 27.8638 7.86 36.8032 13.2898 37.4631C18.7196 38.1229 85.7314 39.1189 90.2239 37.4631C94.7163 35.8072 94.7163 30.1796 94.7163 28.8599C94.7163 27.5401 96.7786 9.67391 89.474 8.34172C82.1694 7.00954 13.2898 8.34172 13.2898 8.34172Z" fill="#9D6627"/>
<path d="M64.0261 38.9571C42.6192 38.9571 15.6854 38.3719 13.269 38.0731C11.4706 37.849 10.0819 36.7285 9.13763 34.7115C7.26288 30.7274 7.36009 23.9544 7.70726 17.8662C8.28357 7.73166 13.019 7.70676 13.2968 7.71921C14.2411 7.69431 82.2944 6.41192 89.5157 7.71921C91.2793 8.04292 92.668 9.31285 93.6471 11.5041C95.9106 16.5963 95.3135 25.2244 95.1191 28.063C95.0913 28.4615 95.0705 28.7229 95.0705 28.8474C95.0705 33.6532 93.3763 36.9277 90.3003 38.0607C88.488 38.7205 77.3229 38.9571 64.0261 38.9571ZM13.2204 8.95179C12.6719 8.95179 8.8946 9.2755 8.39467 17.9907C8.08221 23.4813 7.95029 30.2543 9.66533 33.9023C10.4986 35.6702 11.6928 36.6164 13.3176 36.8156C19.4557 37.5627 85.9467 38.3844 90.1614 36.8281C92.0848 36.1184 94.3761 34.1637 94.3761 28.835C94.3761 28.6856 94.397 28.3619 94.4317 27.9012C94.6192 25.1995 95.1885 16.9574 93.1055 12.276C92.2514 10.3462 91.0224 9.2257 89.4532 8.95179C82.2528 7.6445 13.9911 8.93934 13.3037 8.95179H13.2898C13.269 8.96424 13.2482 8.95179 13.2204 8.95179Z" fill="black"/>
</svg>
