<svg width="268" height="60" viewBox="0 0 268 60" fill="none" xmlns="http://www.w3.org/2000/svg">
<path d="M16.5629 0.794693C16.1654 0.969527 9.78802 1.46224 5.74119 8.15363C-2.6054 21.902 0.39359 54.3258 10.3481 56.8212C28.1614 61.3033 251.333 58.0609 251.333 58.0609C251.333 58.0609 266.274 57.0437 266.834 44.1218C267.394 31.2 268.858 2.20926 249.599 3.01986C230.34 3.83045 16.5629 0.794693 16.5629 0.794693Z" fill="#FFCD45"/>
<path d="M106.117 60C59.3075 60 17.5022 59.4437 10.0951 57.5841C7.65616 56.9642 5.54241 54.8662 3.84418 51.3536C-1.21436 40.8795 -1.70214 18.7073 4.92816 7.78808C7.43936 3.63974 11.161 1.0649 16.0027 0.111258L16.2376 0.0635762C16.3821 0 16.4363 0 16.5809 0C18.7127 0.0317881 230.539 3.03576 249.545 2.22517C253.7 2.03444 257.223 3.1947 259.987 5.6106C269.056 13.5099 268.207 33.1709 267.737 43.7245L267.719 44.1377C267.141 57.6159 251.55 58.8238 251.387 58.8397C246.076 58.9351 171.246 60 106.117 60ZM16.6893 1.5894C16.617 1.6053 16.5267 1.63709 16.4002 1.65298C12.1185 2.49536 8.79433 4.8 6.53605 8.51921C0.122545 19.0887 0.610332 40.5616 5.50628 50.7179C6.96964 53.7377 8.72206 55.5815 10.5829 56.0424C28.071 60.445 249.075 57.2821 251.315 57.2503C251.839 57.2185 265.407 56.1219 265.931 44.0742L265.949 43.6609C266.4 33.3457 267.232 14.1457 258.722 6.73907C256.283 4.60927 253.302 3.65563 249.635 3.81457C230.756 4.60927 23.3196 1.68477 16.6893 1.5894Z" fill="black"/>
<path d="M34.5928 10.649C34.5928 10.649 22.4162 10.2199 20.9528 22.9033C19.4895 35.5708 20.4651 46.9828 34.5928 47.8252C48.7206 48.6675 223.078 49.9391 234.767 47.8252C246.455 45.7112 246.455 38.5271 246.455 36.8424C246.455 35.1576 251.821 12.3497 232.815 10.649C213.81 8.94833 34.5928 10.649 34.5928 10.649Z" fill="#9D6627"/>
<path d="M166.603 49.7325C110.905 49.7325 40.8258 48.9854 34.5388 48.604C29.8596 48.3179 26.2464 46.8874 23.7894 44.3126C18.9115 39.2265 19.1644 30.5801 20.0677 22.8079C21.5672 9.8702 33.8884 9.83841 34.611 9.85431C37.068 9.82252 214.135 8.18543 232.924 9.85431C237.513 10.2676 241.126 11.8887 243.673 14.6861C249.563 21.1868 248.009 32.2013 247.503 35.8252C247.431 36.3338 247.377 36.6676 247.377 36.8265C247.377 42.9616 242.969 47.1417 234.965 48.5881C230.25 49.4305 201.2 49.7325 166.603 49.7325ZM34.4123 11.4278C32.9851 11.4278 23.1571 11.8411 21.8563 22.9669C21.0433 29.9762 20.7 38.6225 25.1624 43.2795C27.3303 45.5364 30.4377 46.7444 34.6652 46.9987C50.6358 47.9523 223.638 49.0013 234.604 47.0146C239.608 46.1086 245.57 43.6132 245.57 36.8106C245.57 36.6199 245.624 36.2066 245.715 35.6185C246.203 32.1695 247.684 21.6477 242.264 15.6715C240.042 13.2079 236.844 11.7775 232.761 11.4278C214.027 9.75894 36.4177 11.4119 34.6291 11.4278H34.593C34.5388 11.4437 34.4846 11.4278 34.4123 11.4278Z" fill="black"/>
</svg>
