<svg width="240" height="163" viewBox="0 0 240 163" fill="none" xmlns="http://www.w3.org/2000/svg">
<path d="M92.2487 0C98.0938 0 103.181 1.21872 107.403 3.65617C111.624 6.09361 114.763 9.52819 116.928 14.0707C119.093 18.6132 120.175 23.8205 120.175 29.9141C120.175 34.3458 119.634 38.4451 118.443 42.1013C117.253 45.7575 115.521 48.9705 113.14 51.6295C110.758 54.2885 107.836 56.3936 104.372 57.8339C100.908 59.2742 97.0113 59.939 92.5734 59.939C88.1354 59.939 84.2387 59.1634 80.6667 57.7231C77.2029 56.2828 74.2804 54.1777 71.899 51.5187C69.5177 48.8597 67.7858 45.6467 66.5951 41.8797C65.4045 38.1128 64.755 34.1242 64.755 29.8033C64.755 25.3716 65.4045 21.2722 66.5951 17.5053C67.894 13.7383 69.6259 10.6361 72.0073 7.97709C74.3886 5.31806 77.2029 3.32379 80.6667 1.99427C84.0222 0.664757 87.919 0 92.2487 0ZM108.485 29.6925C108.485 25.4824 107.836 21.8262 106.428 18.724C105.13 15.6218 103.181 13.2951 100.692 11.6333C98.202 10.0822 95.3877 9.19581 92.1404 9.19581C89.8673 9.19581 87.7025 9.63898 85.7541 10.5253C83.8057 11.4117 82.1821 12.7412 80.7749 14.4031C79.3678 16.065 78.2853 18.2808 77.4194 20.8291C76.6617 23.4881 76.2287 26.3687 76.2287 29.6925C76.2287 33.0163 76.6617 36.0077 77.4194 38.6667C78.1771 41.3257 79.3678 43.5416 80.8832 45.3143C82.3986 47.087 84.0222 48.4165 85.9706 49.192C87.9189 50.0784 89.9756 50.5216 92.2487 50.5216C95.1712 50.5216 97.8773 49.746 100.367 48.3057C102.856 46.7546 104.805 44.5387 106.212 41.3258C107.727 38.2235 108.485 34.3458 108.485 29.6925Z" fill="#FFB02C"/>
<path d="M154.813 0C160.658 0 165.745 1.21872 169.967 3.65617C174.188 6.09361 177.327 9.52819 179.492 14.0707C181.657 18.6132 182.74 23.8205 182.74 29.9141C182.74 34.3458 182.198 38.4451 181.008 42.1013C179.817 45.7575 178.085 48.9705 175.704 51.6295C173.322 54.2885 170.4 56.3936 166.936 57.8339C163.472 59.2742 159.576 59.939 155.138 59.939C150.7 59.939 146.803 59.1634 143.231 57.7231C139.767 56.2828 136.845 54.1777 134.463 51.5187C132.082 48.8597 130.35 45.6467 129.159 41.8797C127.969 38.1128 127.319 34.1242 127.319 29.8033C127.319 25.3716 127.969 21.2722 129.159 17.5053C130.458 13.7383 132.19 10.6361 134.572 7.97709C136.953 5.31806 139.767 3.32379 143.231 1.99427C146.586 0.664757 150.483 0 154.813 0ZM171.049 29.6925C171.049 25.4824 170.4 21.8262 168.993 18.724C167.694 15.6218 165.745 13.2951 163.256 11.6333C160.766 10.0822 157.952 9.19581 154.705 9.19581C152.432 9.19581 150.267 9.63898 148.318 10.5253C146.37 11.4117 144.746 12.7412 143.339 14.4031C141.932 16.065 140.85 18.2808 139.984 20.8291C139.226 23.4881 138.793 26.3687 138.793 29.6925C138.793 33.0163 139.226 36.0077 139.984 38.6667C140.741 41.3257 141.932 43.5416 143.447 45.3143C144.963 47.087 146.586 48.4165 148.535 49.192C150.483 50.0784 152.54 50.5216 154.813 50.5216C157.735 50.5216 160.442 49.746 162.931 48.3057C165.421 46.7546 167.369 44.5387 168.776 41.3258C170.4 38.2235 171.049 34.3458 171.049 29.6925Z" fill="#FFB02C"/>
<path d="M207.419 6.97995L229.5 41.1042V6.64757C229.5 4.43172 229.933 2.76982 230.908 1.66189C231.882 0.553964 233.072 0 234.696 0C236.32 0 237.619 0.553964 238.593 1.66189C239.567 2.76982 240 4.43172 240 6.64757V52.1835C240 57.2799 237.943 59.8282 233.83 59.8282C232.748 59.8282 231.882 59.7174 231.016 59.385C230.15 59.0526 229.392 58.6094 228.743 57.9447C227.985 57.2799 227.336 56.5044 226.686 55.618C226.037 54.7317 225.495 53.8453 224.846 52.959L203.414 19.1672V53.0698C203.414 55.2857 202.873 56.9475 201.899 58.0555C200.924 59.1634 199.625 59.7174 198.002 59.7174C196.378 59.7174 195.079 59.1634 194.105 57.9447C193.131 56.8368 192.59 55.1749 192.59 52.959V8.42026C192.59 6.53678 192.806 4.98568 193.239 3.98854C193.78 2.76982 194.538 1.88348 195.62 1.10793C196.703 0.332379 198.002 0 199.301 0C200.383 0 201.249 0.221586 201.899 0.553964C202.656 0.886343 203.306 1.32952 203.847 1.88348C204.388 2.43744 204.929 3.21299 205.579 4.09934C206.228 4.98568 206.769 5.98282 207.419 6.97995Z" fill="#FFB02C"/>
<path d="M19.5919 50.0813L10.4995 13.1872V53.1835C10.4995 55.3993 10.0666 57.0612 9.09239 58.1691C8.11821 59.2771 6.81929 59.831 5.3039 59.831C3.7885 59.831 2.48958 59.2771 1.5154 58.1691C0.541214 57.0612 0 55.3993 0 53.1835V7.42599C0 4.87775 0.649456 3.21586 1.94837 2.32951C3.24728 1.44317 4.97917 1 7.14402 1H10.716C12.8809 1 14.3963 1.22159 15.3705 1.55396C16.3447 1.99714 17.1024 2.66189 17.5353 3.65903C17.9683 4.65617 18.5095 6.31806 19.159 8.64471L27.3854 40.3315L35.6119 8.64471C36.1531 6.31806 36.6943 4.65617 37.2355 3.65903C37.6685 2.66189 38.4262 1.88634 39.4004 1.55396C40.3746 1.11079 41.8899 1 44.0548 1H47.6268C49.7917 1 51.5236 1.44317 52.8225 2.32951C54.1214 3.21586 54.7708 4.87775 54.7708 7.42599V53.2943C54.7708 55.5101 54.3379 57.172 53.3637 58.2799C52.3895 59.3879 51.0906 59.9418 49.4669 59.9418C47.9515 59.9418 46.6526 59.3879 45.6784 58.2799C44.7043 57.172 44.163 55.5101 44.163 53.2943V13.1872L35.0707 50.0813C34.5294 52.5187 33.9882 54.1806 33.6635 55.3993C33.3388 56.5073 32.5811 57.5044 31.6069 58.5015C30.6327 59.3879 29.2255 59.831 27.4937 59.831C26.1947 59.831 25.0041 59.4987 24.1381 58.9447C23.1639 58.3907 22.5145 57.6152 21.9733 56.618C21.4321 55.7317 21.1073 54.6238 20.7826 53.5158C20.2414 52.5187 19.9167 51.3 19.5919 50.0813Z" fill="#FFB02C"/>
<path d="M233.705 112.421H208.733V126.836H231.816C233.495 126.836 234.754 127.286 235.593 128.074C236.433 128.863 236.852 129.989 236.852 131.34C236.852 132.692 236.433 133.818 235.593 134.606C234.754 135.394 233.495 135.845 231.816 135.845H208.733V152.624H234.649C236.433 152.624 237.692 153.074 238.636 153.975C239.475 154.876 240 156.002 240 157.466C240 158.818 239.58 159.944 238.636 160.845C237.797 161.746 236.433 162.196 234.649 162.196H204.431C202.017 162.196 200.234 161.633 199.184 160.507C198.135 159.381 197.611 157.466 197.611 154.876V110.507C197.611 108.818 197.82 107.354 198.345 106.34C198.87 105.214 199.604 104.426 200.548 103.975C201.598 103.525 202.857 103.187 204.431 103.187H233.705C235.488 103.187 236.747 103.637 237.692 104.426C238.531 105.214 238.951 106.34 238.951 107.692C238.951 109.043 238.531 110.169 237.692 111.07C236.747 112.083 235.488 112.421 233.705 112.421Z" fill="#FFB02C"/>
<path d="M187.479 137.223V148.484C187.479 149.948 187.374 151.187 187.059 152.088C186.745 152.989 186.325 153.777 185.591 154.565C184.856 155.241 183.912 156.029 182.758 156.705C179.4 158.619 176.252 160.083 173.209 160.872C170.167 161.773 166.809 162.223 163.137 162.223C158.94 162.223 155.058 161.547 151.595 160.083C148.133 158.732 145.195 156.705 142.781 154.002C140.368 151.3 138.48 148.146 137.116 144.318C135.856 140.489 135.122 136.322 135.122 131.705C135.122 127.088 135.751 122.921 137.011 119.092C138.27 115.264 140.158 112.11 142.572 109.408C145.09 106.705 148.028 104.678 151.595 103.327C155.162 101.975 159.15 101.187 163.661 101.187C167.334 101.187 170.586 101.75 173.419 102.764C176.252 103.777 178.561 105.128 180.344 106.705C182.128 108.282 183.492 109.971 184.331 111.773C185.276 113.574 185.695 115.151 185.695 116.502C185.695 117.966 185.171 119.318 184.122 120.331C183.072 121.345 181.813 121.908 180.449 121.908C179.61 121.908 178.875 121.683 178.141 121.345C177.406 121.007 176.777 120.331 176.252 119.655C174.888 117.403 173.734 115.601 172.79 114.475C171.845 113.349 170.586 112.336 168.908 111.547C167.334 110.759 165.235 110.309 162.717 110.309C160.199 110.309 157.891 110.759 155.792 111.773C153.798 112.673 152.015 114.137 150.651 115.939C149.182 117.741 148.133 119.993 147.398 122.583C146.664 125.174 146.244 128.101 146.244 131.255C146.244 138.124 147.713 143.417 150.651 147.246C153.589 150.962 157.681 152.876 163.032 152.876C165.55 152.876 167.963 152.538 170.272 151.75C172.58 151.074 174.783 149.948 177.092 148.71V139.137H168.488C166.389 139.137 164.816 138.8 163.766 138.124C162.717 137.448 162.192 136.322 162.192 134.746C162.192 133.394 162.612 132.381 163.556 131.48C164.396 130.579 165.655 130.241 167.124 130.241H179.715C181.289 130.241 182.548 130.354 183.597 130.692C184.646 131.029 185.486 131.592 186.22 132.606C187.164 133.619 187.479 135.196 187.479 137.223Z" fill="#FFB02C"/>
<path d="M91.5 163C110.554 163 126 147.554 126 128.5C126 109.446 110.554 94 91.5 94C72.4462 94 57 109.446 57 128.5C57 147.554 72.4462 163 91.5 163Z" fill="#CD8D2C"/>
<path d="M92.5418 163C91.5975 163 90.7581 163 89.8138 162.887C83.938 162.437 78.2721 160.41 75.9638 158.721C73.7603 157.144 69.6683 153.878 66.2058 149.374C66.1009 149.261 66.1009 149.149 65.9959 149.149L64.7369 147.572H64.8418C61.2744 142.392 59.7005 137.099 60.33 132.144C61.6941 120.095 71.1373 108.045 72.6062 106.131C72.6062 104.892 72.5013 101.176 72.7111 97.4595C73.1308 90.2523 74.4948 88.6757 75.4391 88.2252C75.7539 88 76.0687 88 76.4884 88C76.6982 88 76.8031 88 77.013 88C78.4819 88.2252 80.4755 89.6892 82.9937 92.1667C84.8823 93.9685 86.4562 95.9955 87.1907 96.8964C88.8695 96.5586 90.5482 96.3333 92.227 96.3333C99.4668 96.3333 105.133 99.7117 106.812 100.725C107.651 100.162 109.33 99.1486 111.218 98.2477C112.792 97.4595 114.996 96.6712 116.674 96.6712C117.514 96.6712 118.248 96.8964 118.773 97.3468C120.137 98.473 120.242 101.514 118.983 106.919C118.248 109.959 117.304 113 116.989 113.901C119.507 119.306 120.871 124.486 120.871 129.441C120.871 130.905 120.766 132.482 120.452 133.833L120.347 134.396C119.927 136.649 119.193 138.788 118.143 140.815C115.73 145.658 112.372 148.698 111.113 149.712C111.323 150.5 111.428 151.401 111.323 152.527C111.218 154.104 110.904 155.455 110.694 156.018L110.589 156.581L110.169 156.919C105.343 160.973 99.257 163 92.5418 163Z" fill="#333333"/>
<path d="M118.878 129.329C118.878 124.599 117.619 119.531 115.101 114.351L114.891 113.901L114.996 113.45C114.996 113.45 116.15 109.959 117.094 106.356C118.668 99.7117 117.619 98.6982 117.514 98.5855C116.674 97.9099 114.576 98.3603 111.638 99.7117C109.225 100.838 107.021 102.302 107.021 102.302L106.602 102.64L106.182 102.302C106.077 102.189 97.2634 95.8828 86.9808 98.5855L86.4562 98.6982L86.1414 98.2477C86.1414 98.2477 84.0429 95.6576 81.7346 93.2928C79.2164 90.7027 77.5376 89.6892 76.5933 89.5765C76.3834 89.5765 76.1736 89.5765 76.0687 89.5765C75.8588 89.6892 74.7047 90.7027 74.285 97.3468C73.9702 101.513 74.18 105.68 74.18 106.131V106.581L73.9702 106.919C73.8652 107.031 63.2679 119.869 61.9039 132.144C61.3793 137.212 63.2679 142.617 67.255 147.797C67.3599 147.91 67.36 147.91 67.4649 148.022C70.8225 152.302 74.8096 155.455 76.9081 157.031C78.6918 158.383 84.0429 160.41 90.0236 160.973C95.2698 161.423 102.719 160.748 109.015 155.342C109.225 154.667 109.54 153.428 109.54 152.302C109.644 151.401 109.54 150.387 109.225 149.712L108.805 148.923L109.54 148.473C109.54 148.473 113.736 145.545 116.569 139.914C117.514 138 118.143 135.973 118.563 133.946C118.563 133.833 118.563 133.721 118.668 133.608C118.773 132.257 118.878 130.793 118.878 129.329Z" fill="#FFB02C"/>
<path d="M76.9081 157.257C78.6918 158.608 84.043 160.635 90.0236 161.198C95.2699 161.649 102.719 160.973 109.015 155.568C109.33 154.329 109.959 151.514 109.225 149.937L108.805 149.149L109.54 148.698C109.54 148.698 113.737 145.77 116.569 140.14C117.514 138.225 118.143 136.198 118.563 134.171C117.933 132.707 117.514 131.694 117.514 131.694C113.946 126.401 110.484 128.653 110.379 128.653C110.379 128.653 108.49 129.779 106.287 128.766C105.552 128.428 105.238 128.203 105.028 127.978C103.769 126.851 104.188 127.415 103.034 125.613C102.929 125.387 102.824 125.275 102.719 125.05C100.936 121.896 98.7323 120.996 97.1585 120.658C95.5846 120.32 94.3255 120.77 94.2206 120.77C88.4498 125.387 86.3513 125.162 85.7217 125.05C85.302 124.824 84.9873 124.712 84.5676 124.487C84.3577 124.374 84.3577 124.374 84.1479 124.374C83.6233 124.149 83.7282 124.261 82.8888 123.811C74.8096 120.883 70.2979 123.135 70.2979 123.135C65.7861 126.401 64.9467 130.68 65.1566 133.721C65.3664 136.874 66.5206 139.351 66.6255 139.577C66.9403 139.802 70.8225 143.405 68.8289 146.671C68.5141 147.234 68.0944 147.572 67.5698 147.91C67.6747 148.023 67.6748 148.023 67.7797 148.135C70.7176 152.527 74.8096 155.68 76.9081 157.257ZM92.5418 127.752C92.7517 127.527 92.9615 127.527 93.1714 127.752C93.696 128.315 94.2206 128.653 94.6403 128.541C95.1649 128.428 95.4797 127.64 95.7945 127.077C95.2699 126.851 94.8501 126.401 94.4304 125.838C93.3812 124.261 93.591 123.248 93.8009 122.685C94.1157 122.009 94.8502 121.559 95.7945 121.559C96.5289 121.559 97.8929 121.896 98.1028 122.009C99.0471 122.347 99.6767 122.797 99.7816 123.586C100.096 124.824 99.0471 126.063 98.9422 126.176C98.9422 126.176 97.893 127.302 96.7388 127.302C96.7388 128.09 96.7388 128.766 97.1585 129.104C97.788 129.554 98.8373 128.991 99.257 128.766C99.4668 128.653 99.6767 128.766 99.8865 128.991C99.9914 129.216 99.8865 129.554 99.6767 129.667C99.5717 129.779 98.4176 130.455 97.4732 130.23C97.2634 130.23 96.9486 130.117 96.7388 129.892C96.424 129.667 96.1092 129.216 96.0043 128.653C95.6895 129.104 95.3748 129.442 94.9551 129.554C94.2206 129.779 93.4861 129.442 92.6467 128.541C92.332 128.203 92.332 127.978 92.5418 127.752Z" fill="white"/>
<path d="M109.644 106.356C110.589 107.369 112.268 109.171 112.582 110.185C112.687 110.523 112.897 110.748 113.212 110.86C113.527 110.86 113.841 110.748 113.946 110.523C114.366 109.959 117.724 105.342 116.045 102.414C115.625 101.739 115.101 101.401 114.471 101.401C112.477 101.288 109.854 104.441 109.435 105.117C109.33 105.342 109.225 105.568 109.225 105.793C109.33 106.018 109.435 106.243 109.644 106.356ZM114.576 103.315C114.681 103.315 114.786 103.315 114.786 103.541C115.101 104.216 114.996 105.342 114.261 106.806C114.051 107.257 113.737 107.707 113.527 108.158C112.897 107.257 112.058 106.243 111.428 105.568C112.477 104.441 113.841 103.203 114.576 103.315Z" fill="#333333"/>
<path d="M77.1179 103.09C77.3278 103.09 77.5376 103.09 77.7475 103.09C78.9016 102.977 81.21 102.077 81.5248 100.387C81.5248 100.162 81.5248 99.9369 81.5248 99.8243C80.7903 97.7973 79.3213 94.1937 77.8524 93.8558C77.4327 93.7432 77.013 93.8558 76.6982 94.1937C75.0194 95.7702 75.8588 101.626 76.0687 102.189C76.1736 102.414 76.3835 102.977 77.1179 103.09ZM77.6425 95.8829C78.1672 96.5585 79.0066 98.2477 79.741 100.162C79.3213 100.613 78.1672 101.176 77.5376 101.176C77.4327 100.613 77.3278 99.5991 77.3278 98.4729C77.3278 97.009 77.5376 96.3333 77.6425 95.8829Z" fill="#333333"/>
<path d="M96.424 126.063C96.6338 126.063 96.8437 126.401 96.7388 126.626C96.7388 126.851 96.7388 126.964 96.7388 127.189C97.9979 127.189 98.9422 126.063 98.9422 126.063C99.0471 125.95 100.096 124.712 99.7816 123.473C99.5717 122.685 99.0471 122.121 98.1028 121.896C97.8929 121.896 96.5289 121.558 95.7945 121.446C94.8501 121.446 94.1156 121.784 93.8009 122.572C93.4861 123.135 93.3812 124.149 94.4304 125.725C94.8501 126.288 95.2698 126.739 95.7945 126.964C95.8994 126.739 95.8994 126.513 96.0043 126.401C95.8994 126.176 96.2141 126.063 96.424 126.063ZM94.8501 123.135C94.955 122.91 95.2698 122.797 95.7945 122.797C96.0043 122.797 96.2141 122.797 96.5289 122.91C97.0535 123.022 97.5782 123.135 97.788 123.135C98.3126 123.248 98.6274 123.473 98.6274 123.698C98.7323 124.036 98.3126 124.712 98.1028 124.937C98.1028 124.937 97.3683 125.838 96.5289 125.725C96.1092 125.725 95.6895 125.387 95.3747 124.824C94.8501 124.149 94.6403 123.473 94.8501 123.135Z" fill="#333333"/>
<path d="M96.6339 127.302C96.6339 126.964 96.6339 126.851 96.6339 126.626C96.6339 126.401 96.529 126.176 96.3191 126.176C96.1093 126.176 96.0043 126.288 95.8994 126.513C95.8994 126.739 95.7945 126.851 95.6896 127.076V127.189H95.5846C95.06 126.964 94.6403 126.513 94.2206 125.838C93.1714 124.261 93.2763 123.135 93.5911 122.572C93.9058 121.784 94.7452 121.446 95.6896 121.446C96.3191 121.446 97.6831 121.784 97.9979 121.896C99.0471 122.234 99.5717 122.797 99.7816 123.585C100.096 124.937 99.0471 126.176 98.9422 126.288C98.9422 126.176 97.9979 127.189 96.6339 127.302ZM96.3191 125.95C96.3191 125.95 96.424 125.95 96.3191 125.95C96.6339 126.063 96.8437 126.288 96.8437 126.626C96.8437 126.739 96.8437 126.964 96.8437 127.076C97.9979 126.964 98.9422 125.95 98.9422 125.95C99.0471 125.838 100.096 124.599 99.7816 123.473C99.5717 122.797 99.0471 122.234 98.1028 121.896C97.8929 121.784 96.5289 121.558 95.8994 121.446C94.9551 121.446 94.3255 121.784 93.9058 122.459C93.696 123.022 93.4861 124.036 94.5354 125.612C94.8502 126.176 95.2699 126.626 95.7945 126.851C95.8994 126.626 95.8994 126.401 95.8994 126.401C95.8994 126.176 96.1093 125.95 96.3191 125.95ZM96.6339 125.95H96.5289C96.1092 125.95 95.6896 125.612 95.2699 125.049C94.7452 124.261 94.5354 123.585 94.7452 123.248C94.8502 123.022 95.2699 122.797 95.6896 122.797C95.8994 122.797 96.1092 122.797 96.424 122.91C96.8437 123.022 97.3683 123.135 97.6831 123.135C98.2077 123.248 98.5225 123.585 98.6274 123.811C98.7323 124.261 98.3126 124.937 98.1028 125.162C98.1028 125.049 97.3683 125.95 96.6339 125.95ZM95.6896 122.91C95.2699 122.91 94.9551 123.022 94.9551 123.248C94.8501 123.585 95.06 124.149 95.4797 124.937C95.7945 125.5 96.2142 125.725 96.5289 125.838C97.2634 125.95 98.1028 125.049 98.1028 125.049C98.3126 124.712 98.7323 124.149 98.6274 123.923C98.6274 123.698 98.3127 123.473 97.788 123.36C97.4733 123.248 96.9486 123.135 96.5289 123.135C96.1092 122.91 95.8994 122.91 95.6896 122.91Z" fill="#333333"/>
<path d="M92.5419 128.428C93.3813 129.329 94.1157 129.667 94.8502 129.442C95.2699 129.329 95.6896 128.991 95.8994 128.541C96.0043 129.104 96.3191 129.554 96.6339 129.779C96.8438 130.005 97.1585 130.005 97.3684 130.117C98.4176 130.342 99.4668 129.667 99.5718 129.554C99.7816 129.442 99.8866 129.104 99.7816 128.878C99.6767 128.653 99.3619 128.541 99.1521 128.653C98.7324 128.878 97.6831 129.442 97.0536 128.991C96.6339 128.653 96.529 127.865 96.6339 127.189C96.529 127.189 96.4241 127.189 96.3191 127.189C96.2142 127.189 96.2142 127.189 96.1093 127.189C95.8994 127.189 95.7945 127.077 95.5847 127.077C95.3748 127.64 94.9551 128.428 94.4305 128.541C94.0108 128.653 93.4862 128.428 92.9616 127.752C92.7517 127.527 92.5418 127.527 92.332 127.752C92.332 127.978 92.332 128.203 92.5419 128.428Z" fill="#333333"/>
<path d="M97.788 130.68C97.6831 130.68 97.4733 130.68 97.3683 130.68C97.0536 130.568 96.7388 130.455 96.424 130.23C96.1092 130.005 95.8994 129.779 95.7945 129.441C95.5846 129.667 95.2698 129.892 94.9551 129.892C94.1157 130.117 93.1713 129.779 92.227 128.766C91.9122 128.428 91.9122 127.752 92.227 127.414C92.3319 127.189 92.5418 127.077 92.8566 127.077C93.0664 127.077 93.2763 127.189 93.4861 127.302C93.9058 127.752 94.3255 127.978 94.5354 127.978C94.8501 127.865 95.1649 127.414 95.3747 126.739L95.4797 126.288L95.7945 126.401C95.8994 126.514 96.1092 126.514 96.2142 126.514H96.3191C96.424 126.514 96.424 126.514 96.5289 126.514H96.9486V126.964C96.9486 127.752 97.0536 128.203 97.2634 128.428C97.5782 128.653 98.4176 128.428 98.9422 128.09C99.152 127.978 99.3619 127.978 99.5717 127.978C99.7816 128.09 99.9914 128.203 100.096 128.428C100.306 128.878 100.201 129.441 99.7816 129.667C99.6767 130.117 98.7323 130.68 97.788 130.68ZM96.1092 127.64L96.3191 128.428C96.424 128.878 96.6339 129.216 96.8437 129.441C97.0536 129.554 97.1585 129.667 97.3683 129.667C98.2077 129.779 99.257 129.216 99.3619 129.104C99.257 129.104 97.788 130.117 96.8437 129.329C96.424 128.991 96.2142 128.428 96.2142 127.527C96.2142 127.64 96.2142 127.64 96.1092 127.64ZM92.8566 128.09C92.7516 128.09 92.7516 128.09 92.8566 128.09C93.4861 128.878 94.1157 129.216 94.7452 128.991C95.06 128.878 95.3748 128.653 95.5846 128.203L96.0043 127.527H95.8994C95.5846 128.09 95.2698 128.653 94.6403 128.878C94.1157 129.104 93.4861 128.766 92.8566 128.09Z" fill="#333333"/>
<path d="M96.424 127.189C96.5289 127.189 96.6339 127.189 96.7388 127.189C96.7388 126.964 96.7388 126.739 96.7388 126.626C96.7388 126.401 96.6338 126.176 96.424 126.063C96.2141 126.063 96.0043 126.176 95.8994 126.401C95.8994 126.514 95.7945 126.739 95.6895 126.964C95.8994 127.077 96.0043 127.077 96.2142 127.077C96.3191 127.189 96.3191 127.189 96.424 127.189Z" fill="#333333"/>
<path d="M86.4562 121.446C87.6104 121.446 88.4498 120.432 88.4498 119.081C88.4498 117.842 87.5054 116.716 86.4562 116.716C85.4069 116.716 84.4626 117.73 84.4626 119.081C84.3577 120.432 85.302 121.446 86.4562 121.446Z" fill="#333333"/>
<path d="M86.4562 121.559C85.302 121.559 84.3577 120.432 84.3577 119.081C84.3577 117.73 85.302 116.604 86.4562 116.604C87.6103 116.604 88.5546 117.73 88.5546 119.081C88.5546 120.432 87.6103 121.559 86.4562 121.559ZM86.4562 116.829C85.4069 116.829 84.5675 117.842 84.5675 119.081C84.5675 120.32 85.4069 121.333 86.4562 121.333C87.5054 121.333 88.3448 120.32 88.3448 119.081C88.3448 117.842 87.5054 116.829 86.4562 116.829Z" fill="#333333"/>
<path d="M107.861 124.712C109.015 124.712 109.854 123.698 109.854 122.347C109.854 121.108 108.91 119.982 107.861 119.982C106.812 119.982 105.867 120.995 105.867 122.347C105.762 123.698 106.707 124.712 107.861 124.712Z" fill="#333333"/>
<path d="M107.861 124.824C106.707 124.824 105.762 123.698 105.762 122.347C105.762 120.996 106.707 119.869 107.861 119.869C109.015 119.869 109.959 120.996 109.959 122.347C109.959 123.698 109.015 124.824 107.861 124.824ZM107.861 120.207C106.812 120.207 105.972 121.221 105.972 122.459C105.972 123.698 106.812 124.712 107.861 124.712C108.91 124.712 109.749 123.698 109.749 122.459C109.749 121.221 108.91 120.207 107.861 120.207Z" fill="#333333"/>
<path d="M6.71515 104H21.1947C24.972 104 28.2246 104.338 30.8477 105.126C33.5758 105.914 35.989 107.266 38.1924 109.293C43.8583 114.586 46.7962 122.468 46.7962 133.167C46.7962 136.658 46.4815 139.923 45.9569 142.851C45.4322 145.779 44.4879 148.369 43.3337 150.734C42.1796 153.099 40.6057 155.126 38.7171 157.041C37.2481 158.505 35.6743 159.631 33.8906 160.419C32.1068 161.32 30.2182 161.883 28.2246 162.221C26.2311 162.559 23.9227 162.784 21.4045 162.784H6.92501C4.93145 162.784 3.35758 162.446 2.41326 161.77C1.36402 161.095 0.73448 160.194 0.419707 158.955C0.104934 157.716 0 156.252 0 154.338V111.207C0 108.617 0.524621 106.815 1.57386 105.577C2.62311 104.563 4.30189 104 6.71515 104ZM11.017 113.347V153.324H19.411C21.2996 153.324 22.6637 153.324 23.7129 153.212C24.7621 153.099 25.8114 152.874 26.9656 152.423C28.1197 151.973 29.064 151.41 29.9034 150.622C33.5758 147.243 35.4644 141.387 35.4644 133.167C35.4644 127.311 34.625 123.032 33.0512 120.104C31.3724 117.176 29.3788 115.374 26.9656 114.586C24.5523 113.797 21.7193 113.347 18.2568 113.347H11.017Z" fill="#FFB02C"/>
</svg>
