<svg width="49" height="46" viewBox="0 0 49 46" fill="none" xmlns="http://www.w3.org/2000/svg">
<path d="M16.6512 45.2102C15.102 45.2581 13.5222 44.9668 12.5746 43.7655C11.0335 41.8122 12.2667 38.9827 13.267 36.7107C13.2849 36.6693 13.3032 36.6269 13.3219 36.5838C13.6047 35.9308 13.9603 35.1099 13.9891 34.8275L13.9754 34.7079C13.9717 34.5879 13.9409 34.2387 13.8684 34.1609C13.8684 34.1609 13.1246 33.7237 10.2134 35.0243C9.5948 35.4036 7.12587 36.7705 4.6552 35.8164C2.89316 35.1305 1.67181 33.4875 1.04234 30.9257C0.527655 28.8406 1.21651 27.4987 1.87363 26.748C4.0387 24.29 8.88555 24.7604 9.43776 24.8234C10.0387 24.8448 10.934 24.6771 11.158 24.48C11.1503 24.4728 11.1435 24.4501 11.1318 24.411C11.1123 24.3458 11.0792 24.235 11.0054 24.0746C10.0921 22.0418 6.35887 20.3764 5.12492 19.9443L4.96315 19.8893C4.71924 19.7668 2.57409 18.6625 2.4552 16.4351C2.34806 14.5876 3.60551 12.8679 6.29414 11.164C10.8376 8.29221 13.5043 7.49942 15.4849 8.45867C17.5635 9.46313 17.856 12.0385 17.9527 12.8903L17.9532 12.8945C18.1758 14.9186 18.5508 18.3086 19.714 19.043C20.061 19.2624 20.611 19.2554 21.3536 19.0023C22.2942 18.6831 22.8075 18.137 22.9609 17.2718C23.2093 15.9235 22.5054 14.5146 22.2178 14.2734C19.8067 12.6571 16.9577 10.144 17.2135 7.41475C17.3636 5.79934 18.4951 4.53377 20.5784 3.63896C21.0074 3.45445 21.4233 3.26601 21.8291 3.0821C22.0398 2.98666 22.2477 2.89243 22.4534 2.80061L22.4713 2.79247C25.6404 1.34705 28.3771 0.0988856 30.7448 1.42372C32.5976 2.45696 33.6492 4.75556 34.1569 8.88184C34.5974 12.4499 35.3556 13.0268 35.508 13.1021C35.9146 13.3096 37.1067 12.7125 37.9833 12.2652C39.0864 11.7008 40.3376 11.0719 41.6548 10.9611C43.8309 10.8038 45.8551 12.2019 47.0843 14.7451C48.1212 16.8941 48.5262 19.9631 46.9764 21.6118C44.8164 23.9096 38.732 23.5375 37.5383 23.4343L37.2871 23.402C37.2821 23.4022 37.2771 23.3999 37.272 23.3975C37.2669 23.3952 37.2618 23.3928 37.2568 23.393C38.5513 26.1043 41.0086 28.5695 43.2248 29.3814C44.3581 29.7966 44.9972 30.7273 44.9228 31.8801C44.7394 34.6871 39.5891 38.6382 36.8265 39.2438C33.9346 39.8735 31.6424 39.5142 31.1492 39.4194C30.5867 39.3467 29.8462 39.0195 29.2927 38.2662C28.3111 36.9359 28.2147 34.7879 29 31.7121C29.2952 30.5824 28.5215 29.826 27.8276 29.3872C26.5322 28.5869 24.8087 28.5001 23.9901 29.2057C23.1322 29.9326 23.1854 31.6518 24.1263 33.9338C24.7417 34.7452 26.7444 37.7147 25.6643 40.6395C24.8518 42.8356 22.5952 44.276 18.9536 44.9289C18.2577 45.0705 17.4608 45.1851 16.6512 45.2102ZM13.2535 31.0984C14.0931 31.0725 14.8086 31.2404 15.3998 31.5923C16.8154 32.4382 16.9246 33.9937 16.9605 34.5042L16.9606 34.5055C17.0685 35.483 16.6484 36.458 16.0688 37.8034C16.0513 37.8441 16.0336 37.885 16.0158 37.9263L15.9955 37.9729C15.5698 38.9493 14.5085 41.3834 14.9285 41.9118C14.9288 41.9218 15.4577 42.5258 18.4127 41.9942C20.1438 41.6806 22.3242 41.0129 22.8413 39.6162C23.3581 38.2096 22.1265 36.2367 21.6585 35.6609L21.5233 35.495L21.4372 35.2975C19.3014 30.2912 20.8986 27.9107 22.039 26.9349C24.1149 25.1499 27.3185 25.5411 29.4198 26.8468C31.5112 28.1528 32.4681 30.3043 31.9046 32.4627C31.1637 35.357 31.5828 36.2945 31.6884 36.4713C31.8092 36.4976 33.721 36.8487 36.1756 36.3126C38.0439 35.9046 41.0748 33.2997 41.7761 32.0374C38.9073 30.8255 36.1081 27.9807 34.5349 24.6677C33.8607 23.2479 33.8752 22.0969 34.5795 21.2547C35.5535 20.074 37.3022 20.3301 37.8966 20.4618C40.6442 20.667 44.0364 20.362 44.7922 19.5683C45.0828 19.2591 45.1961 17.7449 44.3833 16.0492C43.8702 14.9846 42.9357 13.8829 41.8974 13.9551C41.169 14.0176 40.243 14.4864 39.3468 14.9444L39.315 14.9604C37.6975 15.7771 35.8778 16.6959 34.1094 15.7566C32.5429 14.9246 31.6406 12.9215 31.187 9.2538C30.7331 5.57607 29.8961 4.39137 29.2853 4.05008C28.2449 3.46688 26.0716 4.45474 23.7542 5.5081L23.6985 5.53344C23.0771 5.82278 22.4258 6.11305 21.7544 6.40394C20.7966 6.81373 20.2311 7.29144 20.1938 7.70278C20.1261 8.42522 21.266 10.0208 23.9019 11.7901C25.3015 12.7273 26.243 15.3495 25.9599 17.5193C25.6844 19.6088 24.3911 21.1395 22.3118 21.8441C20.6681 22.3951 19.2547 22.3088 18.1015 21.5741C15.9074 20.1812 15.3878 16.9657 14.972 13.2268C14.8468 12.0901 14.5635 11.3385 14.1878 11.16C13.7006 10.935 12.2504 10.9498 7.90314 13.6955C6.05834 14.863 5.42709 15.803 5.44099 16.2528C5.46211 16.6123 5.94425 16.9976 6.21938 17.1592C7.22096 17.5184 12.2232 19.4547 13.7488 22.8492C14.4579 24.428 14.0815 25.5202 13.6512 26.1638C12.474 27.891 9.731 27.8357 9.20001 27.8121C7.53339 27.6236 4.94772 27.8035 4.13593 28.7291L4.13431 28.7309C4.01724 28.8659 3.72147 29.2068 3.96146 30.2052C4.22442 31.2675 4.74653 32.6221 5.73935 33.0216C6.79276 33.4392 8.22229 32.7547 8.6831 32.4503L8.8896 32.3339C10.6359 31.5395 12.0741 31.1349 13.2535 31.0984Z" fill="black"/>
<path d="M16.6512 45.2102C15.102 45.2581 13.5222 44.9668 12.5746 43.7655C11.0335 41.8122 12.2667 38.9827 13.267 36.7107C13.2849 36.6693 13.3032 36.6269 13.3219 36.5838C13.6047 35.9308 13.9603 35.1099 13.9891 34.8275L13.9754 34.7079C13.9717 34.5879 13.9409 34.2387 13.8684 34.1609C13.8684 34.1609 13.1246 33.7237 10.2134 35.0243C9.5948 35.4036 7.12587 36.7705 4.6552 35.8164C2.89316 35.1305 1.67181 33.4875 1.04234 30.9257C0.527655 28.8406 1.21651 27.4987 1.87363 26.748C4.0387 24.29 8.88555 24.7604 9.43776 24.8234C10.0387 24.8448 10.934 24.6771 11.158 24.48C11.1503 24.4728 11.1435 24.4501 11.1318 24.411C11.1123 24.3458 11.0792 24.235 11.0054 24.0746C10.0921 22.0418 6.35887 20.3764 5.12492 19.9443L4.96315 19.8893C4.71924 19.7668 2.57409 18.6625 2.4552 16.4351C2.34806 14.5876 3.60551 12.8679 6.29414 11.164C10.8376 8.29221 13.5043 7.49942 15.4849 8.45867C17.5635 9.46313 17.856 12.0385 17.9527 12.8903L17.9532 12.8945C18.1758 14.9186 18.5508 18.3086 19.714 19.043C20.061 19.2624 20.611 19.2554 21.3536 19.0023C22.2942 18.6831 22.8075 18.137 22.9609 17.2718C23.2093 15.9235 22.5054 14.5146 22.2178 14.2734C19.8067 12.6571 16.9577 10.144 17.2135 7.41475C17.3636 5.79934 18.4951 4.53377 20.5784 3.63896C21.0074 3.45445 21.4233 3.26601 21.8291 3.0821C22.0398 2.98666 22.2477 2.89243 22.4534 2.80061L22.4713 2.79247C25.6404 1.34705 28.3771 0.0988856 30.7448 1.42372C32.5976 2.45696 33.6492 4.75556 34.1569 8.88184C34.5974 12.4499 35.3556 13.0268 35.508 13.1021C35.9146 13.3096 37.1067 12.7125 37.9833 12.2652C39.0864 11.7008 40.3376 11.0719 41.6548 10.9611C43.8309 10.8038 45.8551 12.2019 47.0843 14.7451C48.1212 16.8941 48.5262 19.9631 46.9764 21.6118C44.8164 23.9096 38.732 23.5375 37.5383 23.4343L37.2871 23.402C37.2821 23.4022 37.2771 23.3999 37.272 23.3975C37.2669 23.3952 37.2618 23.3928 37.2568 23.393C38.5513 26.1043 41.0086 28.5695 43.2248 29.3814C44.3581 29.7966 44.9972 30.7273 44.9228 31.8801C44.7394 34.6871 39.5891 38.6382 36.8265 39.2438C33.9346 39.8735 31.6424 39.5142 31.1492 39.4194C30.5867 39.3467 29.8462 39.0195 29.2927 38.2662C28.3111 36.9359 28.2147 34.7879 29 31.7121C29.2952 30.5824 28.5215 29.826 27.8276 29.3872C26.5322 28.5869 24.8087 28.5001 23.9901 29.2057C23.1322 29.9326 23.1854 31.6518 24.1263 33.9338C24.7417 34.7452 26.7444 37.7147 25.6643 40.6395C24.8518 42.8356 22.5952 44.276 18.9536 44.9289C18.2577 45.0705 17.4608 45.1851 16.6512 45.2102ZM13.2535 31.0984C14.0931 31.0725 14.8086 31.2404 15.3998 31.5923C16.8154 32.4382 16.9246 33.9937 16.9605 34.5042L16.9606 34.5055C17.0685 35.483 16.6484 36.458 16.0688 37.8034C16.0513 37.8441 16.0336 37.885 16.0158 37.9263L15.9955 37.9729C15.5698 38.9493 14.5085 41.3834 14.9285 41.9118C14.9288 41.9218 15.4577 42.5258 18.4127 41.9942C20.1438 41.6806 22.3242 41.0129 22.8413 39.6162C23.3581 38.2096 22.1265 36.2367 21.6585 35.6609L21.5233 35.495L21.4372 35.2975C19.3014 30.2912 20.8986 27.9107 22.039 26.9349C24.1149 25.1499 27.3185 25.5411 29.4198 26.8468C31.5112 28.1528 32.4681 30.3043 31.9046 32.4627C31.1637 35.357 31.5828 36.2945 31.6884 36.4713C31.8092 36.4976 33.721 36.8487 36.1756 36.3126C38.0439 35.9046 41.0748 33.2997 41.7761 32.0374C38.9073 30.8255 36.1081 27.9807 34.5349 24.6677C33.8607 23.2479 33.8752 22.0969 34.5795 21.2547C35.5535 20.074 37.3022 20.3301 37.8966 20.4618C40.6442 20.667 44.0364 20.362 44.7922 19.5683C45.0828 19.2591 45.1961 17.7449 44.3833 16.0492C43.8702 14.9846 42.9357 13.8829 41.8974 13.9551C41.169 14.0176 40.243 14.4864 39.3468 14.9444L39.315 14.9604C37.6975 15.7771 35.8778 16.6959 34.1094 15.7566C32.5429 14.9246 31.6406 12.9215 31.187 9.2538C30.7331 5.57607 29.8961 4.39137 29.2853 4.05008C28.2449 3.46688 26.0716 4.45474 23.7542 5.5081L23.6985 5.53344C23.0771 5.82278 22.4258 6.11305 21.7544 6.40394C20.7966 6.81373 20.2311 7.29144 20.1938 7.70278C20.1261 8.42522 21.266 10.0208 23.9019 11.7901C25.3015 12.7273 26.243 15.3495 25.9599 17.5193C25.6844 19.6088 24.3911 21.1395 22.3118 21.8441C20.6681 22.3951 19.2547 22.3088 18.1015 21.5741C15.9074 20.1812 15.3878 16.9657 14.972 13.2268C14.8468 12.0901 14.5635 11.3385 14.1878 11.16C13.7006 10.935 12.2504 10.9498 7.90314 13.6955C6.05834 14.863 5.42709 15.803 5.44099 16.2528C5.46211 16.6123 5.94425 16.9976 6.21938 17.1592C7.22096 17.5184 12.2232 19.4547 13.7488 22.8492C14.4579 24.428 14.0815 25.5202 13.6512 26.1638C12.474 27.891 9.731 27.8357 9.20001 27.8121C7.53339 27.6236 4.94772 27.8035 4.13593 28.7291L4.13431 28.7309C4.01724 28.8659 3.72147 29.2068 3.96146 30.2052C4.22442 31.2675 4.74653 32.6221 5.73935 33.0216C6.79276 33.4392 8.22229 32.7547 8.6831 32.4503L8.8896 32.3339C10.6359 31.5395 12.0741 31.1349 13.2535 31.0984Z" stroke="black"/>
</svg>
