<svg width="35" height="34" viewBox="0 0 35 34" fill="none" xmlns="http://www.w3.org/2000/svg">
<path d="M1.29608 25.0075C0.349088 23.2216 0.450552 17.2801 0.619658 14.5326L33.933 13.8457V22.2215C33.933 22.771 33.7064 23.8156 33.5936 24.1018C33.5936 24.6169 31.2183 28.5264 26.662 31.0178C22.2652 33.4218 14.8246 33.5936 9.75138 31.7046C4.6782 29.8157 2.47982 27.2399 1.29608 25.0075Z" fill="#F4DE79"/>
<path fill-rule="evenodd" clip-rule="evenodd" d="M34.442 13.3223V22.2215C34.442 22.5475 34.3773 22.9857 34.3052 23.3585C34.2422 23.6841 34.1629 24.014 34.0933 24.218C34.0828 24.2863 34.0653 24.3478 34.05 24.395C34.0234 24.478 33.9871 24.5674 33.9447 24.6597C33.8598 24.845 33.7383 25.0685 33.584 25.3194C33.2746 25.8225 32.8189 26.4592 32.2212 27.1544C31.0261 28.5445 29.2469 30.1878 26.9048 31.4685C24.6152 32.7204 21.5713 33.3745 18.4781 33.4836C15.3813 33.5928 12.1849 33.1574 9.57492 32.1856C4.38801 30.2544 2.09111 27.5951 0.847127 25.2492C0.565924 24.7189 0.38556 23.9368 0.263237 23.0765C0.13868 22.2005 0.0669245 21.1846 0.0306452 20.1487C-0.0419383 18.0763 0.0263168 15.8869 0.11163 14.5008L0.140637 14.0295L34.442 13.3223ZM1.10108 15.0356C1.03093 16.3931 0.984584 18.3019 1.048 20.1126C1.08359 21.1288 1.15346 22.1049 1.27094 22.931C1.39065 23.7729 1.55272 24.4033 1.74502 24.7659C2.86851 26.8847 4.96837 29.3771 9.92781 31.2236C12.391 32.1408 15.4516 32.564 18.4425 32.4586C21.4372 32.353 24.312 31.7192 26.4192 30.5671C28.6334 29.3563 30.32 27.7992 31.4517 26.4829C32.0174 25.825 32.4402 25.232 32.7186 24.7793C32.8582 24.5523 32.9578 24.3664 33.0206 24.2296C33.0521 24.1609 33.0713 24.111 33.0816 24.0789C33.0828 24.0752 33.0838 24.072 33.0846 24.0692V24.0037L33.1205 23.9126C33.158 23.8174 33.2357 23.5255 33.306 23.1622C33.3753 22.8038 33.424 22.4449 33.424 22.2215V14.3691L1.10108 15.0356Z" fill="black"/>
<path d="M1.25221 17.2722C-0.240837 13.8535 0.856329 10.036 1.59154 8.55456C4.13652 4.62307 6.00283 3.7684 9.22646 2.05906C11.8054 0.69158 16.8614 0.463667 19.067 0.520645C21.5554 0.69158 27.5163 2.12743 31.4525 6.50335C35.3888 10.8793 33.8844 16.1896 32.6402 18.2978C32.1312 19.4944 29.7898 22.4344 24.4963 24.6224C17.8794 27.3573 11.4321 25.1352 9.90512 24.6224C8.37813 24.1096 3.11853 21.5456 1.25221 17.2722Z" fill="#FFCD01"/>
<path fill-rule="evenodd" clip-rule="evenodd" d="M14.2272 0.246389C16.116 0.0224347 17.9558 -0.0210352 19.0801 0.00800786L19.0909 0.00828682L19.1016 0.00902716C21.6662 0.185194 27.7738 1.65006 31.8297 6.15899C35.9601 10.7507 34.3945 16.3042 33.0943 18.5316C32.4927 19.903 30.0231 22.8923 24.6895 25.0968C17.9681 27.8749 11.4367 25.6782 9.80276 25.1286C9.78247 25.1218 9.76293 25.1152 9.74416 25.1089C8.931 24.8358 7.18982 24.0431 5.41199 22.7762C3.63674 21.5111 1.77212 19.7359 0.786326 17.4787C-0.00670769 15.6629 -0.105958 13.7565 0.080646 12.1281C0.266994 10.502 0.742089 9.11952 1.13629 8.32523L1.14931 8.299L1.16521 8.27443C2.46144 6.27201 3.60132 5.02851 4.84452 4.06677C5.95443 3.20814 7.13672 2.58387 8.52845 1.849C8.67957 1.76921 8.83316 1.68811 8.9894 1.60526C10.3661 0.875275 12.3535 0.468558 14.2272 0.246389ZM14.3462 1.26497C12.4958 1.48438 10.6658 1.87535 9.46352 2.51284C9.30916 2.59469 9.15842 2.67434 9.01103 2.75221C7.60336 3.49598 6.50086 4.0785 5.4645 4.88023C4.33729 5.75225 3.27586 6.89567 2.0341 8.80967C1.69491 9.50242 1.26256 10.7567 1.09192 12.2457C0.919397 13.7512 1.01809 15.4628 1.71811 17.0657C2.59863 19.0818 4.29697 20.7254 5.99984 21.9389C7.70014 23.1505 9.35226 23.8962 10.0661 24.1359L10.11 24.1507C11.7071 24.6875 17.9341 26.7804 24.3031 24.148C29.515 21.9937 31.7314 19.1324 32.1724 18.0958L32.1856 18.0648L32.2027 18.0357C33.3878 16.0277 34.7999 10.9882 31.0754 6.8477C27.2644 2.61105 21.4618 1.20212 19.0431 1.033C17.9606 1.00563 16.1754 1.04807 14.3462 1.26497Z" fill="black"/>
<path fill-rule="evenodd" clip-rule="evenodd" d="M4.07196 28.8879V21.3668H5.08995V28.8879H4.07196Z" fill="black"/>
<path fill-rule="evenodd" clip-rule="evenodd" d="M8.82257 31.6229V24.4436H9.84056V31.6229H8.82257Z" fill="black"/>
<path fill-rule="evenodd" clip-rule="evenodd" d="M13.5732 32.6485V25.6402H14.5912V32.6485H13.5732Z" fill="black"/>
<path fill-rule="evenodd" clip-rule="evenodd" d="M18.8328 32.8194V25.8111H19.8508V32.8194H18.8328Z" fill="black"/>
<path fill-rule="evenodd" clip-rule="evenodd" d="M23.9227 31.6229V24.6146H24.9407V31.6229H23.9227Z" fill="black"/>
<path fill-rule="evenodd" clip-rule="evenodd" d="M28.6733 29.2298V22.0505H29.6913V29.2298H28.6733Z" fill="black"/>
<path fill-rule="evenodd" clip-rule="evenodd" d="M12.4036 7.80812L12.9012 7.70042C14.314 7.39466 16.506 7.26339 18.5083 7.88222C20.5368 8.50915 22.3988 9.92221 22.988 12.6856C23.5776 15.451 22.448 17.4843 20.8421 18.8613C19.2588 20.219 17.1959 20.9628 15.7773 21.2394L15.2877 21.3349L12.4036 7.80812ZM13.6156 8.60947L16.0706 20.1235C17.3272 19.8079 18.9379 19.1474 20.1823 18.0803C21.5717 16.8889 22.4863 15.2161 21.9927 12.901C21.4986 10.5839 19.9742 9.40803 18.2097 8.86273C16.6359 8.37634 14.8946 8.4049 13.6156 8.60947Z" fill="black"/>
<path fill-rule="evenodd" clip-rule="evenodd" d="M17.5119 14.5103L11.5594 15.8899L11.3312 14.8904L17.2836 13.5108L17.5119 14.5103Z" fill="black"/>
</svg>
