<svg width="1201" height="1220" viewBox="0 0 1201 1220" fill="none" xmlns="http://www.w3.org/2000/svg">
<g clip-path="url(#clip0_1299_743)">
<g filter="url(#filter0_i_1299_743)">
<path d="M-7 642.864V1213.44V1228.81H1178C929.191 705.043 284.33 619.944 -7 642.864Z" fill="#D1CAAE"/>
</g>
<path d="M-7 642.864V1213.44V1228.81H1178C929.191 705.043 284.33 619.944 -7 642.864Z" stroke="#333333" stroke-width="14"/>
<g filter="url(#filter1_i_1299_743)">
<path d="M105.245 765.027C81.6655 764.783 37.7809 779.95 50.8761 842.567C67.2451 920.839 176.567 765.027 105.245 765.027Z" fill="#BDB699"/>
</g>
<path d="M105.245 765.027C81.6655 764.783 37.7809 779.95 50.8761 842.567C67.2451 920.839 176.567 765.027 105.245 765.027Z" stroke="#9F9C8F"/>
<g filter="url(#filter2_i_1299_743)">
<path d="M311.027 863.781C268.935 839.788 233.079 915.719 220.412 956.683C201.705 1002.29 346.688 986.675 370.657 956.683C394.625 926.691 363.641 893.773 311.027 863.781Z" fill="#BDB699"/>
</g>
<path d="M311.027 863.781C268.935 839.788 233.079 915.719 220.412 956.683C201.705 1002.29 346.688 986.675 370.657 956.683C394.625 926.691 363.641 893.773 311.027 863.781Z" stroke="#9F9C8F"/>
<g filter="url(#filter3_i_1299_743)">
<path d="M700.026 1007.82C597.691 1006.81 574.054 1154.73 575.028 1228.81H819.767C822.493 1155.57 802.361 1008.82 700.026 1007.82Z" fill="#A69C7E"/>
</g>
<g filter="url(#filter4_i_1299_743)">
<path d="M725.924 1068.18C638.218 1075.78 608.764 1177.77 605 1227.81H808.736C817.676 1171.44 813.63 1060.59 725.924 1068.18Z" fill="#BDB699"/>
</g>
<path d="M559.485 860.124C540.777 888.214 567.28 901.576 582.869 904.746C615.607 904.746 615.023 880.606 613.269 846.225C611.515 811.844 582.869 825.011 559.485 860.124Z" fill="#BDB699" stroke="#9F9C8F"/>
<path d="M1003.2 1056.17C992.29 1027.4 968.243 981.262 959.357 1026.91C948.249 1083.97 1037.69 1142.49 1003.2 1056.17Z" fill="#BDB699" stroke="#9F9C8F" stroke-width="2"/>
<path d="M77.7681 1097.87C86.1474 1084.7 106.414 1066.26 120.444 1097.87C134.475 1129.47 150.065 1111.03 156.106 1097.87" stroke="#9F9C8F"/>
<path d="M405.148 787.704C417.815 764.295 449.696 731.524 475.886 787.704" stroke="#9F9C8F"/>
<path d="M424.441 1123.47C419.569 1096.65 415.554 1044.32 438.471 1049.59C467.117 1056.17 420.348 1022.52 438.471 1028.37C452.969 1033.05 467.507 1037.64 472.963 1039.34" stroke="#9F9C8F"/>
<path d="M760.59 897.431C771.698 893.773 793.913 895.675 793.913 932.543C793.913 969.412 817.687 947.905 829.574 932.543" stroke="#9F9C8F"/>
<path d="M652.193 366.126C649.387 335.682 637.825 304.125 617.832 272.339L616.28 269.857L617.008 266.952C617.067 266.722 622.841 243.665 626.261 219.554C632.453 175.772 625.192 169.825 624.337 169.298C618.701 165.765 604.39 170.246 586.071 181.332C570.565 190.701 557.165 201.614 557.029 201.733L554.193 204.047L551.046 202.28C550.437 201.934 488.192 167.855 421.392 192.553L418.219 193.731L415.727 191.237C415.579 191.091 400.514 176.049 383.561 162.723C365.027 148.15 353.307 142.844 347.442 142.516C345.904 142.424 344.775 142.671 344.019 143.188C342.609 144.15 335.661 151.15 336.957 194.838C337.755 221.826 341.247 248.374 341.636 251.316L342.001 254.007L340.503 256.154C339.865 257.058 277.352 347.459 275.877 427.929C275.278 460.78 291.09 494.007 321.115 524.949C321.592 525.444 322.067 525.925 322.557 526.419C347.33 551.259 375.875 568.836 390.696 577.117C403.603 584.323 439.761 593.86 479.769 592.472C514.631 591.268 563.947 581.483 601.946 541.85C603.595 533.567 605.723 515.025 599.977 505.563L596.904 500.505L601.293 496.887C601.554 496.679 627.595 474.762 642.488 436.273C647.499 423.329 650.881 407.927 652.258 394.282C653.087 385.008 653.073 375.607 652.193 366.126Z" fill="#FFB02C"/>
<path d="M390.7 577.31C403.608 584.516 439.766 594.053 479.773 592.665C514.635 591.461 563.952 581.675 601.951 542.043C603.599 533.76 605.728 515.217 599.981 505.755L596.909 500.698L601.297 497.079C601.559 496.871 627.6 474.954 642.492 436.466C647.504 423.522 650.693 410.176 652.07 396.532C647.088 387.637 643.501 381.539 643.404 381.371C616.429 349.637 594.622 367.166 594.412 367.353C594.224 367.493 582.851 375.754 567.554 371.33C562.433 369.388 560.309 368.5 558.447 367.257C549.378 361.203 552.55 364.496 543.551 353.845C542.654 352.744 541.767 351.597 540.872 350.376C527.234 331.741 511.692 327.004 501.059 326.327C500.952 326.324 500.844 326.322 500.749 326.303C490.027 325.681 482.099 328.885 481.172 329.288C445.611 363.147 431.839 363.719 427.336 363.473C424.635 362.578 422.012 361.792 419.418 361.032C417.904 360.774 417.904 360.774 416.792 360.499C413.102 359.641 413.614 359.806 408.396 358.112C352.929 345.113 324.718 362.984 324.415 363.182C296.199 387.456 293.694 415.801 296.564 435.29C299.562 455.551 308.804 470.706 309.66 472.079C311.602 473.462 339.699 493.928 328.893 516.251C327.157 519.835 324.444 522.743 321.12 525.142C321.596 525.637 322.071 526.118 322.561 526.611C347.333 551.437 375.88 569.029 390.7 577.31ZM476.452 375.561C477.419 374.174 479.219 373.924 480.477 375.014C484.571 378.559 487.987 379.775 490.626 378.628C493.91 377.199 495.986 372.269 497.088 368.371C493.619 367.295 490.386 364.9 487.418 361.212C479.807 351.754 479.94 345.01 481.382 341.014C483.174 336.057 487.781 332.903 494.035 332.385C498.624 331.996 508.254 333.114 509.324 333.23L509.542 333.264C516.133 334.445 520.297 337.462 521.933 342.223C524.63 350.086 518.619 358.613 517.919 359.569C517.646 359.941 511.859 367.581 503.693 368.852C503.933 373.608 504.92 378.457 507.794 380.18C511.908 382.668 518.992 378.49 521.378 376.658C522.678 375.664 524.469 376.025 525.36 377.483C526.262 378.925 525.942 380.907 524.644 381.917C523.707 382.632 516.868 387.689 510.111 387.299C508.398 387.197 506.679 386.753 505.084 385.776C502.523 384.241 500.637 381.633 499.444 377.996C497.846 380.777 495.657 383.269 492.735 384.552C488.088 386.581 482.779 385.061 476.96 380.034C475.703 378.944 475.472 376.95 476.452 375.561Z" fill="white"/>
<path d="M612.002 503.838C620.298 495.927 640.041 474.772 652.817 442.05C656.491 432.645 659.285 423.028 661.207 413.258C657.969 407.165 654.806 401.435 652.07 396.532C650.692 410.162 647.504 423.522 642.492 436.466C627.599 474.954 601.559 496.871 601.297 497.079L596.909 500.698L599.981 505.755C605.728 515.217 603.613 533.759 601.951 542.043C563.952 581.675 514.623 591.477 479.773 592.665C439.777 594.037 403.608 584.516 390.7 577.31C375.88 569.029 347.335 551.451 322.561 526.612C322.071 526.118 321.596 525.637 321.12 525.142C317.845 527.505 313.958 529.343 309.776 530.77C311.434 532.542 313.132 534.31 314.881 536.056C340.649 561.897 370.223 580.13 385.566 588.693C398.772 596.073 426.626 603.347 457.723 605.126C465.06 605.554 472.594 605.662 480.148 605.412" fill="#333333"/>
<path d="M663.633 365.433C660.764 333.482 649.037 300.621 628.762 267.709C630.447 260.655 634.739 241.866 637.573 221.861C642.787 185.098 640.361 164.935 629.959 158.394C620.17 152.244 604.007 156.148 580.564 170.312C568.495 177.613 557.862 185.626 553.007 189.416C539.122 182.5 483.042 158.043 420.907 179.492C415.852 174.601 403.791 163.199 390.258 152.543C364.384 132.181 347.775 125.812 338.005 132.479C331.963 136.613 324.098 147.623 325.501 195.369C326.206 219.144 328.943 242.57 329.957 250.639C319.973 265.441 265.852 349.213 264.41 427.793C263.772 463.04 278.675 497.277 308.759 529.682C312.987 528.31 316.933 526.524 320.227 524.218C290.201 493.262 275.28 460.943 275.879 428.092C277.353 347.607 339.88 257.22 340.505 256.317L342.003 254.171L341.638 251.479C341.236 248.539 337.757 221.989 336.959 195.001C335.663 151.313 342.624 144.312 344.021 143.351C344.776 142.834 345.906 142.587 347.444 142.679C353.311 143.022 365.029 148.314 383.563 162.886C400.516 176.212 415.581 191.254 415.729 191.4L418.221 193.895L421.394 192.716C488.182 168.035 550.426 202.113 551.048 202.444L554.194 204.21L557.031 201.897C557.169 201.792 570.569 190.879 586.073 181.495C604.392 170.409 618.703 165.928 624.338 169.461C625.193 169.988 632.455 175.935 626.263 219.717C622.856 243.827 617.069 266.886 617.01 267.115L616.282 270.02L617.834 272.503C637.827 304.288 649.389 335.845 652.194 366.289C653.061 375.772 653.089 385.171 652.273 394.444C655.02 399.33 658.233 405.159 661.564 411.375C664.329 396.4 665.03 381.02 663.633 365.433Z" fill="#333333"/>
<path d="M576.798 225.152C583.891 230.599 596.143 241.475 598.85 247.48C599.754 249.501 601.544 250.827 603.572 250.998C603.614 251.008 603.667 251.002 603.708 251.012C605.677 251.129 607.563 250.098 608.693 248.306C610.996 244.627 630.837 211.874 617.888 194.423C615.011 190.561 611.203 188.603 606.845 188.757C593.334 189.255 578.274 211.705 575.392 216.207C574.506 217.6 574.148 219.319 574.417 221.012C574.672 222.691 575.539 224.182 576.798 225.152ZM607.259 201.499C607.808 201.482 608.323 201.542 609.046 202.514C611.849 206.295 611.286 214.009 607.45 224.235C606.2 227.57 604.757 230.72 603.441 233.366C598.705 227.74 592.49 222.208 588.188 218.598C594.139 210.568 602.463 201.689 607.259 201.499Z" fill="#333333"/>
<path d="M359.219 228.326C360.419 228.398 361.778 228.303 363.332 228.007C370.68 226.591 385.589 218.968 386.724 207.698C386.853 206.391 386.619 205.066 386.053 203.913C379.718 191.101 367.649 169.391 358.061 168.001C355.205 167.584 352.555 168.628 350.576 170.933C340.567 182.663 349.54 219.119 351.336 223.178C352.222 225.142 354.336 228.035 359.219 228.326ZM358.108 181.81C361.954 185.428 368.857 196.036 374.743 207.517C372.55 210.663 365.034 215.098 360.992 215.602C360.047 212.175 358.632 205.369 357.88 198.072C357.012 189.422 357.482 184.377 358.108 181.81Z" fill="#333333"/>
<path d="M501.031 361.773C502.534 361.928 503.677 363.358 503.635 365.026C503.605 366.248 503.621 367.538 503.692 368.838C511.86 367.581 517.645 359.927 517.918 359.554C518.619 358.613 524.629 350.071 521.932 342.208C520.296 337.448 516.132 334.431 509.541 333.25L509.323 333.215C508.238 333.086 498.623 331.982 494.033 332.37C487.78 332.889 483.173 336.042 481.38 340.999C479.939 344.996 479.808 351.755 487.417 361.198C490.385 364.885 493.618 367.28 497.087 368.356C497.526 366.776 497.82 365.361 497.958 364.425C498.177 362.781 499.542 361.63 501.031 361.773ZM488.808 344.343C489.402 342.701 491.637 341.526 494.63 341.274C495.882 341.176 497.776 341.213 499.813 341.338C503.05 341.519 506.625 341.885 508.375 342.087C511.706 342.703 513.912 343.893 514.415 345.366C515.175 347.567 513.23 351.769 511.69 353.89C511.642 353.955 507.016 359.992 501.542 360.11C498.679 360.183 496.018 358.585 493.355 355.278C489.699 350.703 487.993 346.619 488.808 344.343Z" fill="#333333"/>
<path d="M503.216 369.471L503.184 368.866C503.119 367.625 503.103 366.335 503.137 365.009C503.167 363.639 502.222 362.454 500.99 362.327C499.759 362.214 498.63 363.175 498.437 364.519C498.277 365.651 497.947 367.114 497.546 368.527L497.407 369.033L496.937 368.893C493.384 367.782 490.051 365.324 487.023 361.569C479.245 351.908 479.397 344.938 480.891 340.788C482.758 335.629 487.542 332.366 493.967 331.813C498.464 331.435 507.573 332.449 509.35 332.662L509.582 332.695C516.377 333.913 520.674 337.048 522.382 342.008C525.188 350.171 519.011 358.925 518.3 359.897C518.05 360.237 512.149 368.083 503.757 369.38L503.216 369.471ZM500.456 361.229C500.655 361.206 500.868 361.197 501.085 361.217C502.846 361.403 504.186 363.077 504.146 365.042C504.128 366.114 504.135 367.168 504.167 368.204C511.884 366.717 517.298 359.521 517.537 359.211C518.213 358.288 524.072 350.001 521.468 342.409C519.905 337.849 515.859 334.952 509.46 333.808L509.255 333.772C507.506 333.57 498.478 332.563 494.06 332.931C488.004 333.413 483.548 336.46 481.83 341.215C480.442 345.072 480.343 351.604 487.785 360.844C490.541 364.273 493.549 366.56 496.754 367.681C497.198 366.011 497.392 364.816 497.468 364.347C497.695 362.657 498.956 361.4 500.456 361.229ZM502.34 360.599C502.088 360.627 501.834 360.641 501.568 360.657C498.571 360.73 495.771 359.088 493.001 355.645C489.135 350.842 487.433 346.653 488.347 344.143C489.026 342.268 491.386 341.005 494.605 340.727C495.749 340.627 497.508 340.65 499.854 340.784C502.889 340.958 506.38 341.289 508.429 341.531C512.019 342.192 514.301 343.477 514.892 345.163C515.816 347.821 513.413 352.417 512.098 354.23C512.05 354.295 507.74 359.984 502.34 360.599ZM494.298 341.862C491.724 342.154 489.771 343.194 489.285 344.556C488.555 346.6 490.262 350.565 493.762 354.905C496.32 358.09 498.879 359.611 501.555 359.544C506.789 359.439 511.273 353.596 511.32 353.531C512.813 351.475 514.613 347.438 513.965 345.565C513.522 344.309 511.406 343.213 508.306 342.63C506.285 342.399 502.833 342.064 499.812 341.888C497.52 341.762 495.801 341.735 494.697 341.831C494.55 341.833 494.417 341.848 494.298 341.862Z" fill="#333333"/>
<path d="M476.96 380.034C482.779 385.061 488.088 386.581 492.735 384.552C495.657 383.269 497.833 380.778 499.444 377.996C500.637 381.633 502.523 384.241 505.083 385.776C506.691 386.737 508.398 387.196 510.111 387.299C516.854 387.69 523.706 382.632 524.644 381.917C525.943 380.922 526.263 378.94 525.36 377.483C524.457 376.041 522.678 375.664 521.378 376.658C518.99 378.475 511.906 382.653 507.794 380.18C504.933 378.455 503.933 373.608 503.692 368.852C503.058 368.954 502.395 369.029 501.738 369.03C501.35 369.044 500.96 369.029 500.583 369.013C499.396 368.94 498.222 368.732 497.088 368.371C495.986 372.269 493.909 377.199 490.626 378.628C487.986 379.775 484.584 378.557 480.476 375.014C479.233 373.938 477.42 374.188 476.452 375.561C475.471 376.95 475.702 378.944 476.96 380.034Z" fill="#333333"/>
<path d="M512.772 390.16C511.857 390.264 510.921 390.296 509.977 390.24C507.725 390.111 505.653 389.485 503.803 388.373C501.854 387.199 500.233 385.541 498.932 383.431C497.368 385.169 495.628 386.466 493.71 387.308C488.124 389.756 481.928 388.084 475.305 382.362C472.894 380.289 472.457 376.417 474.321 373.754C475.23 372.462 476.532 371.631 478.002 371.434C479.447 371.255 480.922 371.681 482.092 372.692C485.294 375.462 487.965 376.599 489.612 375.876C491.415 375.092 493.247 371.957 494.508 367.476L495.28 364.744L497.768 365.516C498.721 365.808 499.704 365.994 500.688 366.045C501.012 366.068 501.335 366.076 501.669 366.067C502.151 366.057 502.683 366.011 503.304 365.911L506.185 365.464L506.346 368.684C506.586 373.44 507.567 376.685 509.047 377.572C511.368 378.986 516.806 376.525 519.844 374.219C521.056 373.294 522.525 372.948 523.989 373.242C525.439 373.538 526.706 374.448 527.547 375.808C529.274 378.583 528.648 382.412 526.149 384.33C524.951 385.269 519.22 389.426 512.772 390.16ZM500.287 371.943L501.951 376.998C502.918 379.962 504.36 381.997 506.351 383.181C507.49 383.869 508.801 384.254 510.244 384.343C516.165 384.694 522.424 380.016 523.123 379.476C523.224 379.405 523.236 379.255 523.172 379.143C523.157 379.13 523.125 379.074 523.043 379.054C522.962 379.048 522.91 379.069 522.898 379.085C522.485 379.4 512.889 386.611 506.525 382.76C503.722 381.074 501.966 377.441 501.283 371.979C501.001 371.981 500.718 371.969 500.449 371.955C500.394 371.946 500.341 371.952 500.287 371.943ZM478.695 377.282C478.616 377.291 478.568 377.356 478.557 377.372C478.485 377.469 478.501 377.631 478.589 377.71C483.605 382.056 488.027 383.424 491.734 381.799C493.794 380.897 495.632 379.083 497.172 376.398L499.773 371.898C499.447 371.861 499.122 371.823 498.808 371.77C497.411 375.672 495.152 379.806 491.585 381.356C488.005 382.907 483.718 381.553 478.819 377.312C478.819 377.312 478.775 377.273 478.695 377.282Z" fill="#333333"/>
<path d="M501.724 369.017C502.393 369 503.043 368.926 503.678 368.839C503.608 367.54 503.605 366.248 503.622 365.028C503.664 363.36 502.521 361.93 501.017 361.774C499.529 361.632 498.163 362.782 497.919 364.429C497.78 365.366 497.5 366.779 497.047 368.361C498.195 368.72 499.355 368.93 500.542 369.003C500.946 369.016 501.336 369.031 501.724 369.017Z" fill="#333333"/>
<path d="M652.07 396.532C654.819 401.433 657.97 407.18 661.207 413.258C661.324 412.651 661.439 412.029 661.553 411.407C658.223 405.19 655.008 399.347 652.262 394.475C652.208 395.165 652.138 395.841 652.07 396.532Z" fill="#333333"/>
<path d="M321.12 525.142C320.824 524.849 320.526 524.541 320.243 524.246C316.95 526.552 313.003 528.338 308.776 529.71C309.106 530.074 309.447 530.421 309.79 530.783C313.958 529.343 317.844 527.49 321.12 525.142Z" fill="#333333"/>
<path d="M698.711 873.409C698.711 873.409 732.756 876.843 744.61 846.261C756.464 815.679 795.494 697.247 794.94 691.457C794.386 685.668 792.45 665.434 766.483 664.006C740.516 662.579 562.422 676.991 562.422 676.991C562.422 676.991 531.07 673.25 521.351 706.515C511.618 739.782 477.528 869.343 477.528 869.343C477.528 869.343 471.658 889.009 492.379 889.578C513.074 890.149 698.711 873.409 698.711 873.409Z" fill="#FEF48E"/>
<path d="M708.614 879.769C703.784 880.318 700.136 880.169 698.759 880.073C686.299 881.194 512.717 896.785 492.237 896.219C483.752 895.981 477.617 892.981 473.987 887.274C468.778 879.088 471.306 869.07 471.788 867.382C472.832 863.43 506.101 737.068 515.641 704.447C524.394 674.544 549.767 669.058 562.482 670.329C575.059 669.314 741.185 655.967 766.775 657.378C778.396 658.016 798.273 663.211 800.912 690.793C801.101 692.776 801.456 696.479 780.082 761.849C768.004 798.784 755.683 834.574 750.133 848.901C744.54 863.337 733.705 873.304 718.798 877.719C715.12 878.806 711.639 879.424 708.614 879.769ZM699.217 866.786C700.516 866.905 729.136 869.279 739.074 843.623C751.369 811.907 787.06 702.871 788.886 691.537C788.288 685.574 786.283 671.765 766.18 670.651C740.873 669.252 564.626 683.484 562.856 683.626L562.31 683.673L561.768 683.616C560.711 683.498 535.098 681.006 527.021 708.588C517.43 741.379 483.593 869.93 483.248 871.232L483.19 871.462C482.83 872.75 482.123 877.138 483.775 879.684C485.427 882.229 489.417 882.859 492.469 882.943C512.626 883.501 696.324 866.966 698.171 866.786L698.69 866.742L699.217 866.786Z" fill="#333333"/>
<path d="M482.954 887.784C482.954 887.784 479.099 893.614 474.795 905.676C470.503 917.735 486.091 920.581 486.091 920.581C486.091 920.581 691.553 899.52 712.906 894.773C734.259 890.026 720.336 870.948 720.336 870.948" fill="#C4C2B7"/>
<path d="M644.568 910.273C579.334 917.696 492.184 926.647 486.659 927.216L485.888 927.289L485.124 927.153C483.99 926.94 473.869 924.883 469.747 916.841C468.295 914.005 467.019 909.353 469.208 903.221C473.734 890.526 477.921 884.108 478.098 883.85L487.808 891.702C487.772 891.751 484.27 897.2 480.382 908.144C479.853 909.63 480.103 910.137 480.186 910.305C480.979 911.864 484.121 913.304 486.39 913.892C501.039 912.389 691.601 892.741 711.707 888.27C715.528 887.419 718.11 885.952 718.641 884.347C719.449 881.863 717.07 877.039 715.68 875.132L725.009 866.807C725.873 867.986 733.286 878.595 729.938 888.884C727.865 895.255 722.539 899.441 714.109 901.321C706.752 902.93 678.651 906.395 644.568 910.273Z" fill="#333333"/>
<path d="M366.251 831.054C366.251 831.054 449.956 927.396 486.091 920.581C486.091 920.581 470.196 916.909 474.794 905.675C479.393 894.442 480.514 892.146 480.514 892.146L360.619 791.945L366.251 831.054Z" fill="#C4C2B7"/>
<path d="M485.323 927.412C468.315 929.348 443.253 914.953 408.808 883.505C383.386 860.298 362.142 835.904 361.931 835.66L360.619 834.146L352.348 776.71L488.251 890.3L485.795 895.333C485.761 895.396 484.602 897.86 480.263 908.44C479.98 909.126 479.905 909.61 480.025 909.878C480.74 911.461 484.466 913.398 487.321 914.084L517.657 921.371L487.107 927.135C486.528 927.246 485.934 927.343 485.323 927.412ZM371.881 827.933C376.826 833.505 395.175 853.847 416.51 873.315C440.492 895.2 456.915 905.794 467.986 910.624C467.826 908.399 468.129 905.81 469.325 902.896C470.913 899.031 472.09 896.194 472.966 894.134L368.887 807.151L371.881 827.933Z" fill="#333333"/>
<path d="M364.914 837.567C363.059 787.128 337.813 747.226 308.526 748.443C279.24 749.661 257.003 791.537 258.858 841.976C260.714 892.415 285.96 932.317 315.247 931.099C344.533 929.882 366.77 888.006 364.914 837.567Z" fill="white"/>
<path d="M318.124 937.525C317.182 937.632 316.237 937.71 315.275 937.745C298.996 938.334 283.525 928.301 271.693 909.49C260.416 891.566 253.721 867.566 252.824 841.926C251.67 808.976 260.387 778.128 276.125 759.403C285.444 748.316 296.624 742.231 308.453 741.806C324.731 741.216 340.203 751.25 352.034 770.061C363.311 787.985 370.006 811.985 370.903 837.625C372.057 870.574 363.34 901.423 347.603 920.148C339.042 930.332 328.897 936.299 318.124 937.525ZM306.921 755.23C299.053 756.126 291.495 760.67 284.93 768.457C271.311 784.653 263.796 811.934 264.821 841.437C266.446 888.147 288.892 925.387 314.834 924.441C323.402 924.149 331.689 919.508 338.794 911.064C352.413 894.868 359.929 867.587 358.904 838.085C357.278 791.375 334.832 754.134 308.89 755.066C308.235 755.096 307.584 755.155 306.921 755.23Z" fill="#333333"/>
<path d="M289.218 920.805C289.218 920.805 235.003 907.143 230.009 884.94C225.015 862.737 235.015 791.888 266.59 788.993C266.59 788.993 239.013 879.667 289.218 920.805Z" fill="white"/>
<path d="M287.895 927.298C287.318 927.156 273.723 923.697 259.293 917.392C238.271 908.212 226.778 898.127 224.18 886.539C220.124 868.537 224.569 824.998 240.505 800.354C247.631 789.323 256.223 783.251 266.077 782.367L272.281 791.138C272.028 791.999 246.741 877.733 292.786 915.482L287.895 927.298ZM257.756 799.55C255.124 801.617 252.621 804.471 250.273 808.11C236.054 830.093 232.794 869.888 235.826 883.357C237.763 891.975 252.951 900.868 269.071 907.307C257.947 889.723 252.469 866.669 253.068 839.284C253.422 823.364 255.737 809.152 257.756 799.55Z" fill="#333333"/>
<path d="M95.1105 800.632C74.9954 762.384 79.5888 745.209 88.3969 691.623C88.3969 691.623 68.4053 676.815 74.9352 641.893C81.4651 606.97 77.7342 567.971 97.6712 557.815C117.608 547.659 125.869 545.412 130.321 533.067C134.774 520.736 160.092 445.559 180.401 439.297C180.401 439.297 186.807 438.123 182.693 427.926C177.313 414.59 170.506 389.132 196.473 389.162C196.473 389.162 206.304 392.248 193.465 357.717C193.465 357.717 137.496 315.497 151.14 258.761C164.783 202.025 208.572 183.243 225.293 175.354C242.025 167.449 270.042 76.6061 386.837 51.3144C527.023 20.9845 623.555 85.0146 668.226 208.065C668.226 208.065 488.774 -19.8055 288.521 208.221C288.521 208.221 323.049 279.232 264.508 344.702C264.508 344.702 270.458 402.832 292.002 425.737C292.002 425.737 416.548 396.786 398.03 537.855C398.03 537.855 515.137 580.59 604.591 502.497C604.591 502.497 625.909 586.256 543.8 602.061C543.8 602.061 538.958 628.978 557.001 672.899C557.001 672.899 541.291 671.582 517.827 704.732C452.748 683.082 430.867 679.081 377.937 673.532C377.937 673.532 329.29 602.419 328.49 582.695C328.49 582.695 259.982 574.685 257.012 494.156L241.044 485.1C241.044 485.1 204.755 490.729 170.622 609.6C170.622 609.6 153.685 610.606 147.035 635.575C140.384 660.545 142.332 674.182 161.679 688.276L157.113 747.514C151.905 797.096 229.967 927.547 95.1105 800.632Z" fill="#F9F9F9"/>
<path d="M169.528 861.163C158.702 862.394 138.768 850.432 91.2362 805.693L89.9313 803.969C69.9302 765.931 73.15 746.596 80.938 699.869C81.2455 698.037 81.5488 696.16 81.8744 694.237C75.7113 687.853 63.4061 670.819 69.066 640.54C70.8861 630.827 71.8874 620.686 72.8681 610.889C75.4372 585.033 77.8612 560.604 95.1503 551.789C98.2058 550.223 100.998 548.851 103.547 547.595C117.776 540.584 122.003 538.217 124.747 530.596C125.034 529.806 125.404 528.769 125.846 527.5C146.671 468.596 163.271 438.558 177.991 433.169C177.899 432.63 177.687 431.808 177.212 430.629C172.677 419.395 168.603 403.727 174.944 392.905C178.655 386.556 185.084 383.106 194.034 382.592C193.863 379.819 192.847 373.83 188.551 362.004C184.448 358.654 172.892 348.605 162.428 333.575C145.17 308.786 139.258 282.32 145.33 257.045C159.271 199.072 202.644 178.748 221.167 170.075L222.912 169.252C225.672 167.958 230.96 160.152 236.555 151.91C257.362 121.26 296.095 64.2094 385.652 44.8096C455.211 29.7498 515.933 36.9819 566.121 66.2977C614.192 94.3837 650.421 141.256 673.784 205.605L663.694 212.428C662.946 211.473 587.107 116.88 481.779 113.58C417.129 111.548 354.543 143.847 295.721 209.601C298.512 216.77 303.464 231.937 304.456 251.565C305.696 276.023 300.789 312.202 270.848 347.04C272.334 358.517 278.593 399.263 294.094 418.577C306.963 416.281 353.384 410.568 382.532 440.897C401.685 460.821 409.117 491.822 404.669 533.089C414.445 536.017 438.345 542.195 468.247 542.833C504.074 543.584 556.165 536.305 600.86 497.277L610.362 500.712C610.768 502.285 619.975 539.65 602.185 570.982C591.567 589.674 573.796 602.005 549.313 607.672C548.903 616.572 549.586 638.85 562.467 670.168L556.576 679.528C556.576 679.528 556.644 679.535 556.778 679.534C553.111 678.362 533.162 676.473 522.564 708.828L515.668 710.905C523.432 706.312 444.753 678.359 371.664 675.312L373.169 677.521C365.499 666.317 329.591 612.991 323.411 588.487C316.824 587.067 303.9 583.324 290.72 574.248C274.034 562.733 253.915 540.29 251.227 498.306L240.506 492.232C233.525 495.373 204.414 513.941 176.368 611.62L170.988 616.228C170.56 616.247 158.1 617.635 152.809 637.473C146.434 661.401 149.055 671.129 164.983 682.716L167.676 688.856L163.09 748.305C161.659 761.807 167.502 783.631 172.644 802.891C180.166 831.046 185.612 851.386 175.022 859.008C173.468 860.15 171.678 860.918 169.528 861.163ZM99.7819 796.328C121.636 816.865 138.219 830.947 150.422 839.347C163.416 848.296 167.678 847.989 168.43 847.859C170.968 843.411 164.828 820.447 161.135 806.652C155.409 785.215 149.479 763.044 151.148 746.841L155.408 691.559C135.145 675.312 134.844 657.863 141.275 633.691C146.949 612.383 159.386 605.843 165.994 603.843C180.163 555.544 196.361 520.041 214.197 498.3C228.573 480.77 239.064 478.7 240.201 478.526L243.778 479.189L259.746 488.245L263.023 493.903C265.736 567.539 326.54 575.772 329.118 576.088L334.499 582.427C334.995 594.893 357.084 635.1 375.5 662.312C443.5 675.312 503.5 690.312 520 695.812C531.386 673.943 534.82 672.63 548.584 668.049C533.445 627.139 537.719 601.861 537.92 600.739L542.758 595.51C566.041 591.033 582.594 580.415 591.977 563.959C601.911 546.533 601.715 526.116 600.43 514.231C573.291 535.456 529.895 557.506 467.664 556.09C426.777 555.157 397.401 544.596 396.166 544.157L392.089 536.867C397.286 497.268 391.302 468.226 374.309 450.552C345.459 420.531 293.766 432.117 293.254 432.235L287.846 430.518C264.988 406.218 258.792 347.892 258.529 345.427L260.225 340.02C283.123 314.42 293.969 285.081 292.494 252.837C291.377 228.544 283.297 211.519 283.227 211.349L284.202 203.588C346.341 132.838 412.958 98.0892 482.198 100.297C540.112 102.144 588.82 130.158 619.496 153.331C631.22 162.187 641.206 170.958 649.264 178.642C627.473 133.529 597.729 99.7773 560.553 78.057C512.852 50.1963 454.801 43.403 388 57.8666C302.949 76.2784 266.015 130.688 246.173 159.921C238.449 171.287 233.361 178.803 227.663 181.487L225.88 182.328C208.975 190.253 169.376 208.811 156.928 260.524C144.521 312.098 196.297 351.854 196.819 352.255L198.994 355.231C206.652 375.839 207.98 387.051 203.402 392.756C201.184 395.504 198.243 396.166 195.986 395.843C190.347 395.92 186.65 397.366 185.001 400.183C182.419 404.591 183.597 413.964 188.151 425.255C190.473 431.021 190.679 435.974 188.741 439.968C187.061 443.442 184.147 445.229 181.827 445.79C176.828 447.503 162.768 459.515 137.003 532.395C136.537 533.696 136.158 534.779 135.873 535.584C131.197 548.534 123.117 552.528 108.427 559.77C105.93 561.005 103.176 562.358 100.17 563.889C89.0322 569.568 87.055 589.415 84.7746 612.402C83.7705 622.513 82.7323 632.969 80.796 643.291C75.2223 673.069 91.0708 685.645 91.7506 686.161L94.2834 692.87C93.7393 696.155 93.2238 699.318 92.7089 702.347C85.1883 747.662 82.5869 763.228 99.7819 796.328ZM179.4 432.757C179.307 432.767 179.216 432.792 179.124 432.818L179.4 432.757ZM196.96 382.616L198.09 382.784C197.675 382.653 197.308 382.606 196.96 382.616Z" fill="#333333"/>
<path d="M144.421 713.397C136.341 714.317 126.751 713.18 115.687 709.968C99.6169 705.305 86.2744 697.896 85.7205 697.572L91.1027 685.7C104.648 693.265 142.838 709.463 156.638 693.9L165.216 703.233C160.082 709.016 153.124 712.407 144.421 713.397Z" fill="#333333"/>
<path d="M157.847 610.504C154.652 603.604 121 589.281 109.954 584.566C105.243 582.562 101.509 580.967 99.1602 579.823C92.7463 576.706 88.6932 582.143 88.5285 582.385L79.161 574.048C82.5861 569.335 92.1631 561.918 103.965 567.66C106.061 568.685 109.862 570.287 114.24 572.166C146.018 585.692 164.088 594.851 168.536 604.475L157.847 610.504Z" fill="#333333"/>
<path d="M121.375 540.592L116.78 552.858L179.197 581.705L183.792 569.439L121.375 540.592Z" fill="#333333"/>
<path d="M198.804 347.781C190.075 348.774 180.295 347.48 169.831 342.402L174.621 330.227C205.127 345.041 225.01 319.74 226.356 317.967C227.71 316.001 260.374 267.707 244.482 224.536C239.426 210.792 232.313 201.768 223.367 197.706C210.888 192.025 198.498 197.802 198.383 197.86L193.53 185.682C194.209 185.352 210.472 177.59 227.722 185.327C239.858 190.779 249.248 202.292 255.607 219.557C263.45 240.842 262.46 266.103 252.766 292.622C245.579 312.26 236.2 325.671 235.811 326.235C229.734 334.487 216.408 345.763 198.804 347.781Z" fill="#333333"/>
<path d="M389.488 675.53C388.286 664.927 384.708 657.105 378.869 652.288C369.376 644.456 356.502 646.574 356.37 646.589L354.351 633.48C355.076 633.353 372.315 630.322 386.018 641.641C394.595 648.716 399.765 659.581 401.405 673.922L389.488 675.53Z" fill="#333333"/>
<path d="M343.144 611.329L341.767 624.531L509.013 646.496L510.389 633.294L343.144 611.329Z" fill="#333333"/>
<path d="M328.383 580.451L326.919 593.641L497.228 617.4L498.691 604.209L328.383 580.451Z" fill="#333333"/>
<path d="M496.18 700.378L488.335 690.293C488.606 690.039 516.035 663.285 502.448 639.029C484.756 607.457 490.932 580.893 491.201 579.778L502.801 583.271L497.001 581.524L502.811 583.24C502.602 584.14 497.846 605.641 512.657 632.045C527.859 659.177 508.532 688.604 496.18 700.378Z" fill="#333333"/>
<path d="M283.678 212.13C260.374 176.725 226.561 181.879 226.205 181.949L224.384 168.803C226.061 168.523 265.807 162.441 293.365 204.328L283.678 212.13Z" fill="#333333"/>
<path d="M229.496 368.872C209.396 371.16 192.525 364.434 191.381 363.97L195.512 351.498C195.902 351.646 234.523 366.889 260.384 339.868L268.646 349.549C256.44 362.286 242.312 367.414 229.496 368.872Z" fill="#333333"/>
<path d="M194.12 387.558C194.12 387.558 321.23 480.031 328.389 483.792C338.188 488.93 342.277 525.645 312.331 516.545C282.384 507.446 192.485 456.817 183.558 432.343C173.504 404.773 175.983 388.627 194.12 387.558Z" fill="#344A9F"/>
<path d="M323.914 524.348C318.461 524.968 313.259 523.719 310.772 522.962C283.865 514.793 188.565 463.784 178.001 434.817C170.715 414.865 169.757 400.654 175.081 391.389C178.758 384.969 185.061 381.459 193.795 380.926L195.768 380.805L197.426 382.013C248.107 418.878 325.491 474.808 330.967 477.794C339.636 482.334 344.204 498.674 340.171 510.778C336.983 520.351 330.269 523.625 323.914 524.348ZM192.588 394.388C187.151 395.17 185.713 397.665 185.22 398.539C183.507 401.526 181.73 409.586 189.129 429.867C196.402 449.82 281.07 500.153 313.903 510.128C322.136 512.637 327.184 511.29 328.891 506.135C331.076 499.543 327.857 490.849 325.825 489.788C318.778 486.089 211.844 408.373 192.588 394.388Z" fill="#333333"/>
<path d="M273.614 443.249C273.614 443.249 289.408 416.57 347.063 428.326C392.105 437.505 397.979 487.133 397.979 487.133C397.979 487.133 401.548 519.808 394.628 540.425C389.504 555.699 354.354 592.438 317.763 580.202C281.16 567.968 256.775 535.701 257.23 497.979C257.23 497.979 289.083 511.719 293.852 513.91C293.852 513.91 305.795 545.661 339.254 537.918C372.712 530.174 359.549 487.911 359.549 487.911C359.549 487.911 348.132 455.491 315.091 469.277L273.614 443.249Z" fill="#344A9F"/>
<path d="M339.022 588.909C331.539 589.76 323.797 589.156 316.038 586.563C276.164 573.23 250.731 538.409 251.224 497.86L251.343 488.31L259.388 491.792C260.689 492.357 291.352 505.579 296.136 507.783L298.437 508.843L299.392 511.393C299.801 512.446 309.989 537.905 338.002 531.42C345.257 529.733 350.19 526.201 353.074 520.6C359.077 508.91 354.39 491.885 353.906 490.187C352.717 487.01 343.292 464.613 317.215 475.497L314.584 476.599L265.077 445.557L268.587 439.632C269.327 438.389 287.264 409.432 348.131 421.832C396.921 431.773 403.871 485.78 403.923 486.323C404.091 487.79 407.582 520.918 400.247 542.802C394.943 558.571 369.071 585.475 339.022 588.909ZM263.719 507.906C267.171 538.098 288.218 563.377 319.462 573.844C352.27 584.817 384.698 550.884 388.987 538.096C395.312 519.255 392.034 488.211 392.004 487.902C391.784 486.16 386.021 443.025 345.985 434.865C309.901 427.504 291.597 435.944 283.681 441.94L315.64 461.981C351.755 448.915 364.996 485.123 365.125 485.494L365.202 485.738C365.509 486.698 372.475 509.613 363.527 527.105C358.93 536.11 351.171 541.924 340.478 544.403C338.43 544.874 336.438 545.219 334.501 545.44C309.785 548.252 294.956 531.06 289.398 519.081C284.075 516.716 272.028 511.491 263.719 507.906Z" fill="#333333"/>
<path d="M608.262 507.784L600.935 497.225C601.27 496.934 634.576 468.249 658.64 418.66C672.678 389.746 680.883 359.431 683.028 328.587C685.71 290.032 678.901 250.403 662.76 210.796L673.707 205.362C712.317 300.106 692.453 377.335 668.998 425.443C643.668 477.359 609.688 506.567 608.262 507.784Z" fill="#333333"/>
<path d="M464.064 743.603L512.193 739.345C512.193 739.345 470.541 882.378 476.213 888.536C481.898 894.692 360.138 786.92 360.138 786.92C360.138 786.92 392.745 784.294 431.175 812.259C431.175 812.259 450.404 811.66 462.96 794.308C473.873 779.267 467.099 753.597 464.064 743.603Z" fill="#C4C2B7"/>
<path d="M477.286 895.41C475.734 895.586 473.815 895.017 471.458 893.087C470.557 892.358 469.258 891.258 467.608 889.856C464.381 887.104 459.804 883.139 454.33 878.355C444.658 869.919 431.218 858.124 414.362 843.286C385.686 818.029 356.691 792.377 356.397 792.114L344.441 781.531L359.68 780.302C361.077 780.188 393.784 777.907 432.682 805.433C437.195 804.8 449.681 801.998 458.271 790.148C464.455 781.616 464.487 765.822 458.365 745.708L455.918 737.653L520.658 731.935L517.903 741.414C499.659 804.036 481.434 873.994 481.659 885.599C483.017 888.296 482.444 891.288 480.912 893.215C480.061 894.277 478.865 895.23 477.286 895.41ZM379.485 795.547C413.094 825.264 453.251 860.623 470.753 875.758C472.569 864.322 477.054 844.62 486.311 809.743C492.958 784.73 499.994 759.866 503.743 746.768L471.959 749.583C477.064 770.704 475.614 787.506 467.653 798.498C453.519 818.005 432.266 818.893 431.371 818.921L429.486 818.987L427.9 817.831C409.202 804.213 391.875 798.193 379.485 795.547Z" fill="#333333"/>
<path d="M275.918 438.738C263.299 428.513 253.675 410.907 248.1 387.819C243.945 370.6 243.457 356.529 243.44 355.937L250.11 355.698C250.122 356.246 252.189 410.377 279.854 432.779L275.918 438.738Z" fill="#333333"/>
<path d="M277.316 191.76L272.112 187.124C272.49 186.591 311.338 133.686 375.874 101.997C413.854 83.3409 453.208 75.5357 492.814 78.7831C542.248 82.8432 592.16 104.228 641.165 142.354L637.343 148.389C589.338 111.041 540.556 90.1064 492.338 86.1455C453.839 82.9801 415.566 90.588 378.598 108.743C315.511 139.732 277.683 191.243 277.316 191.76Z" fill="#333333"/>
<path d="M270.694 771.645L271.79 784.888L345.832 777.643L344.736 764.401L270.694 771.645Z" fill="#333333"/>
<path d="M356.199 792.285L263.21 802.865L264.475 816.09L357.464 805.51L356.199 792.285Z" fill="#333333"/>
<path d="M363.982 827.094L258.017 839.151L259.283 852.376L365.247 840.319L363.982 827.094Z" fill="#333333"/>
<path d="M362.977 862.993L263.527 874.308L264.792 887.533L364.242 876.217L362.977 862.993Z" fill="#333333"/>
<path d="M348.012 900.033L283.574 907.366L284.839 920.59L349.277 913.258L348.012 900.033Z" fill="#333333"/>
<path d="M432.116 339.415C439.582 338.565 444.994 331.173 444.202 322.903C443.411 314.634 436.717 308.618 429.251 309.468C421.784 310.318 416.373 317.71 417.164 325.98C417.955 334.249 424.649 340.265 432.116 339.415Z" fill="#333333"/>
<path d="M432.186 340.15C424.371 341.039 417.33 334.725 416.501 326.055C415.671 317.386 421.353 309.624 429.18 308.733C436.995 307.844 444.036 314.158 444.866 322.828C445.695 331.497 440 339.261 432.186 340.15ZM429.321 310.203C422.236 311.009 417.077 318.058 417.827 325.904C418.578 333.751 424.961 339.486 432.045 338.68C439.13 337.874 444.29 330.826 443.539 322.979C442.788 315.132 436.405 309.397 429.321 310.203Z" fill="#333333"/>
<path d="M576.152 344.565C583.618 343.715 589.03 336.322 588.239 328.053C587.447 319.783 580.753 313.768 573.287 314.618C565.82 315.467 560.409 322.86 561.2 331.129C561.991 339.399 568.685 345.414 576.152 344.565Z" fill="#333333"/>
<path d="M576.222 345.3C568.408 346.189 561.366 339.875 560.537 331.205C559.707 322.535 565.389 314.774 573.216 313.883C581.044 312.992 588.072 319.308 588.902 327.978C589.731 336.647 584.05 344.409 576.222 345.3ZM573.358 315.367C566.274 316.173 561.114 323.222 561.865 331.069C562.615 338.916 568.998 344.651 576.083 343.845C583.167 343.039 588.327 335.99 587.576 328.143C586.826 320.296 580.456 314.56 573.358 315.367Z" fill="#333333"/>
<path d="M698.711 873.409C698.711 873.409 729.05 869.511 744.61 846.261C762.493 819.539 795.494 697.247 794.94 691.457C794.386 685.668 792.45 665.434 766.483 664.006C740.516 662.579 562.422 676.991 562.422 676.991C562.422 676.991 531.07 673.25 521.351 706.515C511.618 739.782 477.528 869.343 477.528 869.343C477.528 869.343 471.658 889.009 492.379 889.578C513.074 890.149 698.711 873.409 698.711 873.409Z" fill="#C4C2B7"/>
<path d="M699.317 880.024L699.211 880.036C691.619 880.722 513.026 896.795 492.237 896.219C483.752 895.981 477.617 892.981 473.987 887.274C468.778 879.088 471.306 869.07 471.788 867.382C472.832 863.43 506.101 737.068 515.641 704.447C524.394 674.544 549.767 669.058 562.482 670.329C575.059 669.314 741.185 655.967 766.775 657.378C778.396 658.016 798.273 663.211 800.912 690.793C801.855 700.653 766.832 824.244 749.443 850.242C732.547 875.501 700.775 879.844 699.438 880.025L699.317 880.024ZM555.069 684.244C546.671 685.2 532.41 689.214 526.75 708.56C517.159 741.35 483.322 869.902 482.977 871.203L482.919 871.433C482.559 872.722 481.852 877.11 483.504 879.655C485.156 882.2 489.146 882.831 492.198 882.914C512.126 883.454 691.918 867.304 697.768 866.772C699.46 866.52 726.068 862.304 739.467 842.271C756.446 816.899 787.365 701.722 788.613 691.628C788.036 685.737 786.12 671.739 765.896 670.624C740.589 669.225 564.342 683.457 562.571 683.599L562.026 683.646L561.438 683.668C561.076 683.665 558.638 683.838 555.069 684.244Z" fill="#333333"/>
<path d="M619.411 737.588L619.118 766.632L613.209 766.547L613.113 776.896L619.022 776.981L618.709 808.196L648.231 808.655C648.231 808.655 654.357 808.76 659.17 804.959C663.237 801.763 668.144 797.684 670.438 789.135C672.604 781.075 672.845 775.744 672.836 771.868C672.821 768.766 672.132 758.342 668.654 752.41C665.163 746.479 660.927 740.47 652.39 738.708C643.882 736.973 619.411 737.588 619.411 737.588Z" fill="#C9A500"/>
<path d="M650.12 810.029C649.019 810.154 648.307 810.146 648.226 810.14L617.36 809.656L617.673 778.442L611.764 778.357L611.899 765.047L617.808 765.132L618.092 736.134L619.376 736.106C620.38 736.081 644.077 735.509 652.641 737.268C661.78 739.154 666.279 745.668 669.785 751.612C674.093 758.935 674.192 771.743 674.191 771.877C674.205 776.079 673.928 781.458 671.741 789.58C669.226 798.898 663.65 803.275 659.957 806.176C656.491 808.918 652.441 809.765 650.12 810.029ZM620.073 806.748L648.266 807.195C648.319 807.189 654.022 807.223 658.426 803.766C662.018 800.936 666.945 797.063 669.192 788.726C671.281 780.987 671.542 775.863 671.536 771.882C671.525 768.541 670.785 758.703 667.565 753.217C664.217 747.522 660.28 741.835 652.181 740.172C644.998 738.687 625.884 738.946 620.744 739.041L620.456 768.143L614.547 768.058L614.478 775.463L620.387 775.548L620.073 806.748Z" fill="#333333"/>
<path d="M648.231 810.051L618.709 809.592C618.024 809.581 617.468 808.961 617.475 808.188L617.772 778.356L613.111 778.278C612.426 778.267 611.871 777.646 611.877 776.873L611.973 766.524C611.981 765.765 612.539 765.152 613.224 765.163L617.886 765.242L618.162 737.567C618.171 736.823 618.704 736.228 619.373 736.211C620.377 736.186 644.059 735.6 652.624 737.374C661.723 739.25 666.206 745.736 669.698 751.682C673.99 758.977 674.088 771.77 674.086 771.889C674.097 776.077 673.821 781.456 671.646 789.561C669.141 798.848 663.728 803.534 659.898 806.109C654.342 809.86 648.514 810.063 648.231 810.051ZM619.975 806.849L648.261 807.284C648.315 807.278 653.495 807.313 658.474 803.85C662.196 801.257 667.018 797.129 669.276 788.762C671.364 781.008 671.638 775.882 671.618 771.888C671.607 768.547 670.721 759.572 667.642 753.178C664.701 747.111 660.326 741.756 652.199 740.081C644.962 738.587 625.661 738.853 620.654 738.947L620.383 766.666C620.375 767.425 619.816 768.038 619.131 768.027L614.47 767.948L614.391 775.533L619.052 775.611C619.737 775.622 620.293 776.242 620.286 777.016L619.975 806.849Z" fill="#333333"/>
<path d="M649.57 811.428C648.761 811.52 648.266 811.532 648.211 811.523L618.689 811.065C618.004 811.054 617.357 810.741 616.876 810.202C616.394 809.648 616.138 808.934 616.146 808.176L616.423 779.817L613.092 779.765C612.407 779.754 611.761 779.441 611.28 778.902C610.798 778.348 610.542 777.634 610.55 776.876L610.646 766.526C610.656 764.951 611.836 763.687 613.246 763.705L616.577 763.757L616.834 737.569C616.847 736.023 617.951 734.798 619.34 734.744C620.344 734.719 644.147 734.135 652.861 735.921C662.479 737.902 667.177 744.675 670.814 750.872C675.314 758.514 675.414 771.337 675.413 771.887C675.423 776.194 675.145 781.706 672.906 789.982C670.898 797.445 666.867 803.117 660.581 807.368C656.237 810.328 651.759 811.179 649.57 811.428ZM621.324 805.388L648.268 805.813C648.455 805.807 653.213 805.77 657.751 802.595C661.422 800.038 665.9 796.097 667.987 788.329C670.026 780.759 670.286 775.768 670.277 771.892C670.266 769.249 669.539 760.256 666.448 753.879C663.021 746.797 658.407 742.866 651.936 741.537C645.301 740.168 627.839 740.313 621.96 740.403L621.698 766.68C621.688 768.256 620.509 769.533 619.098 769.501L615.767 769.449L615.715 774.09L619.046 774.141C619.731 774.153 620.378 774.465 620.858 775.005C621.341 775.559 621.596 776.272 621.589 777.031L621.324 805.388Z" fill="#333333"/>
<path d="M630.301 747.817L630.107 766.956L647.178 767.227L647.079 777.265L630.007 776.994L629.802 798.259L642.75 798.464C642.75 798.464 648.283 798.117 650.44 797.114C652.597 796.111 658.142 792.673 659.699 787.49C661.268 782.305 662.434 772.621 661.413 766.573C660.406 760.538 659.772 754.891 653.373 751.089C646.99 747.314 630.301 747.817 630.301 747.817Z" fill="#B2AF9B"/>
<path d="M645.257 799.709C644.036 799.848 643.063 799.914 642.823 799.927L628.438 799.707L628.684 775.496L645.756 775.767L645.83 768.688L628.758 768.417L628.969 746.379L630.253 746.337C630.948 746.317 647.375 745.874 654.014 749.798C660.667 753.734 661.637 759.67 662.588 765.399L662.741 766.303C663.797 772.57 662.647 782.416 660.977 787.953C658.941 794.706 651.292 798.309 650.958 798.466C649.572 799.114 647.127 799.496 645.257 799.709ZM631.151 796.798L642.769 796.977C644.154 796.879 648.327 796.478 649.934 795.746C652.296 794.645 657.124 791.422 658.447 787.023C660.015 781.824 661.064 772.465 660.125 766.853L659.97 765.935C659.054 760.424 658.277 755.67 652.761 752.406C647.742 749.427 635.588 749.25 631.62 749.271L631.457 765.51L648.529 765.781L648.403 778.763L631.331 778.492L631.151 796.798Z" fill="#333333"/>
<path d="M642.748 799.846L629.8 799.641C629.115 799.63 628.559 799.01 628.566 798.237L628.771 776.971C628.779 776.213 629.337 775.6 630.022 775.611L645.845 775.861L645.914 768.589L630.091 768.34C629.406 768.328 628.85 767.708 628.857 766.935L629.051 747.796C629.06 747.052 629.594 746.456 630.262 746.44C630.958 746.42 647.358 745.98 653.969 749.892C660.58 753.804 661.562 759.723 662.497 765.439C662.554 765.745 662.595 766.037 662.651 766.343C663.705 772.596 662.553 782.426 660.882 787.949C658.856 794.671 651.246 798.255 650.924 798.396C648.639 799.458 643.414 799.8 642.828 799.837C642.801 799.84 642.775 799.843 642.748 799.846ZM631.053 796.899L642.725 797.086C644.245 796.987 648.377 796.576 649.97 795.846C652.345 794.743 657.197 791.488 658.544 787.057C660.11 781.843 661.172 772.468 660.218 766.843C660.162 766.537 660.119 766.23 660.063 765.924C659.145 760.399 658.366 755.616 652.807 752.327C647.732 749.324 635.417 749.151 631.53 749.177L631.371 765.594L647.193 765.844C647.878 765.855 648.434 766.475 648.427 767.248L648.328 777.286C648.32 778.045 647.762 778.658 647.077 778.647L631.254 778.397L631.053 796.899Z" fill="#333333"/>
<path d="M645.415 801.087C644.248 801.22 643.288 801.285 642.915 801.312L642.728 801.319L629.78 801.113C628.357 801.097 627.212 799.787 627.236 798.209L627.441 776.944C627.451 775.369 628.631 774.105 630.041 774.123L644.533 774.346L644.577 770.033L630.085 769.811C628.661 769.794 627.517 768.484 627.54 766.906L627.733 747.752C627.747 746.221 628.849 744.981 630.225 744.929C630.934 744.907 647.668 744.444 654.606 748.557C661.785 752.805 662.869 759.366 663.824 765.14L663.977 766.043C665.067 772.529 663.88 782.691 662.171 788.382C659.939 795.751 651.802 799.573 651.455 799.732C649.915 800.456 647.352 800.867 645.415 801.087ZM632.402 795.438L642.731 795.6C644.597 795.476 648.191 795.053 649.437 794.48C651.979 793.299 656.153 790.24 657.251 786.58C658.767 781.535 659.794 772.506 658.874 767.099L658.72 766.181C657.831 760.816 657.13 756.573 652.155 753.633C648.543 751.489 640.032 750.705 632.826 750.663L632.695 764.151L647.187 764.374C647.872 764.385 648.519 764.698 649 765.237C649.482 765.791 649.738 766.505 649.73 767.263L649.631 777.301C649.623 778.06 649.343 778.775 648.858 779.32C648.373 779.851 647.716 780.134 647.031 780.122L632.538 779.9L632.402 795.438Z" fill="#333333"/>
<path d="M476.741 550.319C476.741 550.319 509.623 619.541 560.68 597.66C611.735 575.763 607.374 520.229 603.078 503.354C603.076 503.339 560.113 546.73 476.741 550.319Z" fill="#344A9F"/>
<path d="M546.582 606.75C529.269 608.72 512.184 601.722 496.453 586.028C481.404 571.015 472.964 553.452 472.626 552.718L469.183 545.475L476.556 545.156C482.353 544.912 487.957 544.467 493.357 543.853C563.155 535.911 599.544 499.923 599.936 499.537L605.526 493.895L607.586 501.979C610.31 512.646 611.818 531.636 607.156 550.051C600.962 574.464 585.489 592.594 562.404 602.499C557.117 604.72 551.836 606.152 546.582 606.75ZM484.795 555.017C488.483 561.178 494.646 570.37 502.87 578.525C520.77 596.289 539.658 601.106 558.983 592.817C602.515 574.153 602.152 530.686 599.949 512.711C585.641 524.366 547.107 550.408 484.795 555.017Z" fill="#333333"/>
<path d="M509.702 546.627C509.702 546.627 520.709 570.553 545.718 569.119C570.727 567.684 578.336 535.624 573.349 524.294C573.351 524.308 547.493 540.426 509.702 546.627Z" fill="white"/>
<path d="M547.821 574.138C547.211 574.207 546.599 574.262 545.985 574.287C518.268 575.881 506.062 550.072 505.554 548.971L502.609 542.577L509.013 541.522C545.416 535.538 570.801 519.949 571.055 519.801L575.373 517.126L577.548 522.063C581.179 530.295 579.578 544.262 573.736 555.25C567.893 566.239 558.74 572.895 547.821 574.138ZM517.721 550.394C522.379 556.474 531.38 564.764 545.465 563.948C556.375 563.316 562.474 555.997 565.692 549.957C569.044 543.634 570.231 536.844 570.11 531.926C561.264 536.616 542.493 545.362 517.721 550.394Z" fill="#333333"/>
<path d="M394.735 695.462C369.917 677.594 326.757 587.289 326.757 587.289C250.129 562.393 256.12 494.362 256.12 494.362L240.152 485.305C209.083 490.4 169.73 609.806 169.73 609.806C169.73 609.806 160.849 603.047 146.143 635.781C131.437 668.514 160.787 688.481 160.787 688.481C160.787 688.481 151.079 773.453 157.586 827.168C164.092 880.884 229.089 885.134 229.089 885.134C224.953 798.024 265.67 789.187 265.67 789.187C265.67 789.187 272.443 755.262 307.764 748.628C307.764 748.628 371.132 809.45 382.814 815.34L386.396 820.548C386.396 820.548 397.372 864.901 433.051 875.176C433.051 875.176 451.32 879.41 449.802 858.074C449.802 858.074 464.01 887.429 483.909 865.379C483.909 865.379 495.843 854.841 477.075 834.606C477.075 834.606 493.371 853.399 506.132 832.443C506.132 832.443 514.214 814.025 492.325 804.469C492.325 804.469 515.676 804.634 503.503 780.842C503.503 780.842 487.701 743.38 446.063 743.008C446.063 743.008 438.719 738.719 434.637 732.365C430.556 726.011 394.735 695.462 394.735 695.462Z" fill="white"/>
<path d="M471.266 880.141C469.514 880.341 467.752 880.289 465.981 880C460.776 879.136 456.45 876.257 453.067 873.002C452.097 874.776 450.981 876.151 449.926 877.177C442.909 884.021 432.949 881.961 431.838 881.701C431.742 881.683 431.645 881.649 431.549 881.63C396.063 871.408 383.181 831.519 380.949 823.604L378.845 820.545C365.224 812.039 318.105 767.282 306.047 755.775C294.46 758.579 285.244 765.005 278.613 774.895C273.153 783.018 271.533 790.614 271.514 790.691C270.979 793.232 269.144 795.223 266.832 795.724C265.442 796.061 231.298 805.323 235.068 884.825C235.155 886.716 234.511 888.542 233.312 889.882C232.097 891.208 230.434 891.903 228.734 891.799C228.033 891.76 211.276 890.577 193.495 882.47C169.066 871.331 154.593 852.523 151.623 828.069C145.822 780.186 152.519 709.445 154.376 691.706C142.802 682.031 128.379 660.38 140.752 632.844C148.746 615.045 156.439 605.317 164.244 603.077C164.753 602.93 165.24 602.83 165.702 602.748C169.075 593.006 177.398 569.822 187.895 546.509C207.294 503.393 224.085 481.236 239.231 478.756C240.472 478.555 241.741 478.782 242.848 479.413L258.815 488.47C261.014 489.72 262.31 492.335 262.06 495.052C261.847 497.587 257.753 557.975 328.402 580.937C329.966 581.442 331.273 582.631 332.029 584.223C343.834 608.919 378.7 676.03 397.974 689.924C398.104 690.028 398.233 690.117 398.365 690.236C406.938 697.549 423.826 712.021 428.097 718.68C430.416 722.308 429.038 721.221 439.336 729.472C481.692 730.757 507.13 774.041 508.794 777.833C513.539 787.201 514.269 795.109 510.975 801.337C509.806 803.549 508.265 805.255 506.556 806.593C509.024 809.253 510.856 812.283 512.037 815.654C515.552 825.623 511.915 834.429 511.485 835.399C511.364 835.68 511.215 835.95 511.065 836.204C506.301 844.025 500.408 848.305 493.643 848.956C493.338 848.991 493.032 849.011 492.724 849.016C493.401 851.613 493.687 854.18 493.578 856.688C493.247 864.435 489.256 868.989 487.958 870.28C482.621 876.175 477.01 879.488 471.266 880.141ZM449.17 851.476C451.559 851.205 453.926 852.539 455.097 854.961C456.559 857.914 461.693 865.871 467.767 866.844C471.432 867.437 475.431 865.363 479.663 860.677C479.894 860.428 479.878 860.4 480.103 860.226C480.43 859.862 481.616 858.376 481.657 855.727C481.718 851.457 478.781 845.849 473.397 839.896C473.098 839.574 472.874 839.332 472.768 839.21C470.492 836.588 470.538 832.438 472.855 829.887C475.173 827.335 478.927 827.324 481.274 829.85C481.438 830.024 481.604 830.213 481.768 830.388C483.613 832.287 488.297 836.107 492.708 835.679C495.633 835.405 498.321 833.228 500.862 829.225C501.227 828.129 502.316 824.232 500.88 820.296C499.446 816.389 495.837 813.145 490.154 810.658C487.466 809.478 485.907 806.358 486.437 803.208C486.967 800.058 489.462 797.813 492.36 797.825C494.652 797.817 499.467 796.838 500.668 794.533C501.609 792.732 500.727 788.837 498.303 784.107C498.221 783.953 498.152 783.797 498.084 783.642C497.498 782.282 471.584 740.94 434.427 740.592C422.8 731.536 433.427 741.3 432.574 740.803C419.251 733.03 420.235 730.584 415.472 723.134C413.176 719.607 408.439 715.486 391.293 700.844C367.526 683.436 329.967 607.809 322.672 592.819C299.941 584.978 271.045 568.495 257.244 534.147C251.1 518.848 250.088 505.194 250.036 498.337L239.386 492.3C219.32 499.143 189.74 568.596 175.406 612.086C174.773 614.015 173.372 615.496 171.609 616.128C170.22 616.612 168.737 616.529 167.416 615.906C166.357 616.19 160.596 618.628 151.551 638.76C139.434 665.748 162.942 682.131 163.947 682.818C165.969 684.193 167.072 686.741 166.769 689.33C166.676 690.173 157.229 774.09 163.564 826.295C165.94 845.944 177.46 860.661 197.801 870.007C207.383 874.413 216.817 876.578 222.857 877.613C221.54 806.79 250.373 788.268 260.844 783.883C263.906 773.969 274.851 748.051 306.774 742.056C308.539 741.722 310.363 742.287 311.721 743.588C335.969 766.854 377.397 805.262 385.318 809.277C386.221 809.739 387.012 810.436 387.619 811.318L391.202 816.525C391.669 817.2 392.011 817.978 392.211 818.802C392.315 819.191 402.75 859.432 434.387 868.681C435.781 868.953 439.925 869.225 442.031 867.128C443.893 865.282 444.049 861.447 443.84 858.559C443.62 855.42 445.41 852.543 448.129 851.669C448.457 851.587 448.812 851.517 449.17 851.476Z" fill="#333333"/>
<path d="M368.682 667.767C368.682 667.767 325.672 696.235 322.862 751.812C322.862 751.812 237.257 711.866 224.729 593.803" fill="white"/>
<path d="M328.383 761.582L320.55 757.928C319.637 757.497 297.833 747.159 274.314 721.835C252.663 698.511 225.443 657.491 218.765 594.556C218.377 590.916 220.73 587.618 224.029 587.198C224.056 587.195 224.082 587.192 224.096 587.191C227.359 586.82 230.304 589.426 230.692 593.051C240.517 685.663 297.27 728.789 317.785 741.502C324.8 689.635 363.835 663.224 365.601 662.057C368.452 660.173 372.132 661.21 373.841 664.358C375.551 667.506 374.627 671.592 371.79 673.474C371.21 673.867 331.446 701.074 328.867 752.199L328.383 761.582Z" fill="#333333"/>
<path d="M236.65 647.348C236.65 647.348 175.47 632.102 169.731 609.82Z" fill="white"/>
<path d="M235.352 653.824C224.553 651.131 170.36 636.442 163.962 611.62L175.512 608.004C176.342 611.207 181.112 619.859 207.43 630.694C222.885 637.06 237.809 640.814 237.959 640.841L235.352 653.824Z" fill="#333333"/>
<path d="M143.285 664.225C143.285 664.225 170.72 720.951 262.557 697.489Z" fill="white"/>
<path d="M238.365 708.724C215.121 711.369 188.511 709.524 165.587 695.466C145.924 683.399 138.309 668 137.992 667.353L148.565 661.099L143.272 664.227L148.549 661.071C148.615 661.198 155.194 674.174 172.094 684.283C194.698 697.798 225.5 700.131 261.173 691.007L263.914 703.96C256.217 705.935 247.559 707.678 238.365 708.724Z" fill="#333333"/>
<path d="M202.123 737.417C202.123 737.417 235.849 698.27 293.65 752.492Z" fill="white"/>
<path d="M294.269 759.106C292.704 759.284 291.06 758.788 289.762 757.554C267.529 736.703 245.907 727.562 227.248 731.171C213.907 733.729 206.538 741.935 206.465 742.018C204.184 744.669 200.384 744.759 197.982 742.225C195.581 739.691 195.486 735.483 197.768 732.832C198.166 732.371 207.755 721.431 225.165 718.084C240.718 715.096 265.878 717.759 297.512 747.448C300.046 749.818 300.367 754.015 298.221 756.815C297.183 758.166 295.755 758.937 294.269 759.106Z" fill="#333333"/>
</g>
<defs>
<filter id="filter0_i_1299_743" x="-14" y="632.539" width="1203.07" height="607.267" filterUnits="userSpaceOnUse" color-interpolation-filters="sRGB">
<feFlood flood-opacity="0" result="BackgroundImageFix"/>
<feBlend mode="normal" in="SourceGraphic" in2="BackgroundImageFix" result="shape"/>
<feColorMatrix in="SourceAlpha" type="matrix" values="0 0 0 0 0 0 0 0 0 0 0 0 0 0 0 0 0 0 127 0" result="hardAlpha"/>
<feOffset dy="4"/>
<feGaussianBlur stdDeviation="2"/>
<feComposite in2="hardAlpha" operator="arithmetic" k2="-1" k3="1"/>
<feColorMatrix type="matrix" values="0 0 0 0 0 0 0 0 0 0 0 0 0 0 0 0 0 0 0.25 0"/>
<feBlend mode="normal" in2="shape" result="effect1_innerShadow_1299_743"/>
</filter>
<filter id="filter1_i_1299_743" x="47.9857" y="764.524" width="81.6787" height="104.535" filterUnits="userSpaceOnUse" color-interpolation-filters="sRGB">
<feFlood flood-opacity="0" result="BackgroundImageFix"/>
<feBlend mode="normal" in="SourceGraphic" in2="BackgroundImageFix" result="shape"/>
<feColorMatrix in="SourceAlpha" type="matrix" values="0 0 0 0 0 0 0 0 0 0 0 0 0 0 0 0 0 0 127 0" result="hardAlpha"/>
<feOffset dy="4"/>
<feGaussianBlur stdDeviation="2"/>
<feComposite in2="hardAlpha" operator="arithmetic" k2="-1" k3="1"/>
<feColorMatrix type="matrix" values="0 0 0 0 0 0 0 0 0 0 0 0 0 0 0 0 0 0 0.25 0"/>
<feBlend mode="normal" in2="shape" result="effect1_innerShadow_1299_743"/>
</filter>
<filter id="filter2_i_1299_743" x="218.251" y="858.693" width="161.131" height="131.137" filterUnits="userSpaceOnUse" color-interpolation-filters="sRGB">
<feFlood flood-opacity="0" result="BackgroundImageFix"/>
<feBlend mode="normal" in="SourceGraphic" in2="BackgroundImageFix" result="shape"/>
<feColorMatrix in="SourceAlpha" type="matrix" values="0 0 0 0 0 0 0 0 0 0 0 0 0 0 0 0 0 0 127 0" result="hardAlpha"/>
<feOffset dy="4"/>
<feGaussianBlur stdDeviation="2"/>
<feComposite in2="hardAlpha" operator="arithmetic" k2="-1" k3="1"/>
<feColorMatrix type="matrix" values="0 0 0 0 0 0 0 0 0 0 0 0 0 0 0 0 0 0 0.25 0"/>
<feBlend mode="normal" in2="shape" result="effect1_innerShadow_1299_743"/>
</filter>
<filter id="filter3_i_1299_743" x="575" y="1007.81" width="245" height="225" filterUnits="userSpaceOnUse" color-interpolation-filters="sRGB">
<feFlood flood-opacity="0" result="BackgroundImageFix"/>
<feBlend mode="normal" in="SourceGraphic" in2="BackgroundImageFix" result="shape"/>
<feColorMatrix in="SourceAlpha" type="matrix" values="0 0 0 0 0 0 0 0 0 0 0 0 0 0 0 0 0 0 127 0" result="hardAlpha"/>
<feOffset dy="4"/>
<feGaussianBlur stdDeviation="2"/>
<feComposite in2="hardAlpha" operator="arithmetic" k2="-1" k3="1"/>
<feColorMatrix type="matrix" values="0 0 0 0 0 0 0 0 0 0 0 0 0 0 0 0 0 0 0.25 0"/>
<feBlend mode="normal" in2="shape" result="effect1_innerShadow_1299_743"/>
</filter>
<filter id="filter4_i_1299_743" x="605" y="1067.81" width="207" height="164" filterUnits="userSpaceOnUse" color-interpolation-filters="sRGB">
<feFlood flood-opacity="0" result="BackgroundImageFix"/>
<feBlend mode="normal" in="SourceGraphic" in2="BackgroundImageFix" result="shape"/>
<feColorMatrix in="SourceAlpha" type="matrix" values="0 0 0 0 0 0 0 0 0 0 0 0 0 0 0 0 0 0 127 0" result="hardAlpha"/>
<feOffset dy="4"/>
<feGaussianBlur stdDeviation="2"/>
<feComposite in2="hardAlpha" operator="arithmetic" k2="-1" k3="1"/>
<feColorMatrix type="matrix" values="0 0 0 0 0 0 0 0 0 0 0 0 0 0 0 0 0 0 0.25 0"/>
<feBlend mode="normal" in2="shape" result="effect1_innerShadow_1299_743"/>
</filter>
<clipPath id="clip0_1299_743">
<rect width="1201" height="1220" fill="white"/>
</clipPath>
</defs>
</svg>
