<svg width="62" height="57" viewBox="0 0 62 57" fill="none" xmlns="http://www.w3.org/2000/svg">
<path d="M31.1149 50.5603C44.9841 50.5603 56.2272 39.5217 56.2272 25.905C56.2272 12.2882 44.9841 1.24963 31.1149 1.24963C17.2457 1.24963 6.00256 12.2882 6.00256 25.905C6.00256 39.5217 17.2457 50.5603 31.1149 50.5603Z" fill="white"/>
<path d="M31.1149 51.8099C16.5668 51.8099 4.72974 40.1883 4.72974 25.905C4.72974 11.6216 16.5668 0 31.1149 0C45.663 0 57.5 11.6216 57.5 25.905C57.5 40.1883 45.663 51.8099 31.1149 51.8099ZM31.1149 2.49927C17.9694 2.49927 7.27534 12.9987 7.27534 25.905C7.27534 38.8112 17.9694 49.3106 31.1149 49.3106C44.2603 49.3106 54.9544 38.8112 54.9544 25.905C54.9544 12.9987 44.2578 2.49927 31.1149 2.49927Z" fill="black"/>
<path d="M49.521 28.0786C49.3229 37.7849 43.4112 43.1751 30.0489 43.1751C18.2128 43.1751 13.1264 36.9481 13.0223 28.0786C12.875 15.6872 21.9254 9.67755 31.3288 9.67755C40.7322 9.68005 49.7826 15.2376 49.521 28.0786Z" fill="#D4D1C1"/>
<path d="M6.28972 18.6646C6.28972 18.6646 1.80692 17.1426 2.27531 25.7176C2.7437 34.2926 6.59264 33.8277 7.04321 33.8352C7.49378 33.8452 4.83109 26.1224 6.28972 18.6646Z" fill="white"/>
<path d="M6.88797 35.0898C6.92361 35.0898 6.95671 35.0898 6.99235 35.0898H7.03051C7.41744 35.0923 7.78909 34.9298 8.04365 34.6324C8.51459 34.0851 8.41533 33.5902 8.09458 31.9482C7.59055 29.3764 6.53921 24.023 7.53963 18.902L7.74838 17.8398L6.70721 17.4849C6.51629 17.4199 4.8082 16.8901 3.21466 18.0672C1.53711 19.3069 0.796358 21.9036 1.00764 25.785C1.44549 33.8401 4.83113 35.0898 6.88797 35.0898ZM4.78275 20.0342C4.18199 24.8403 5.02205 29.4914 5.52098 32.0532C4.42129 31.0934 3.72124 28.8766 3.5456 25.6525C3.32158 21.5737 4.30926 20.3866 4.74202 20.0642C4.75729 20.0542 4.77003 20.0442 4.78275 20.0342Z" fill="black"/>
<path d="M56.0491 18.6646C56.0491 18.6646 60.5319 17.1426 60.0635 25.7176C59.5951 34.2926 55.7462 33.8277 55.2956 33.8352C54.845 33.8452 57.5077 26.1224 56.0491 18.6646Z" fill="white"/>
<path d="M55.4508 35.0898C55.4152 35.0898 55.3821 35.0898 55.3465 35.0898H55.3083C54.9214 35.0923 54.5497 34.9298 54.2952 34.6324C53.8242 34.0851 53.9235 33.5902 54.2442 31.9482C54.7483 29.3764 55.7996 24.023 54.7992 18.902L54.5904 17.8398L55.6316 17.4849C55.8225 17.4199 57.5306 16.8901 59.1241 18.0672C60.8017 19.3069 61.5424 21.9036 61.3312 25.785C60.8933 33.8401 57.5077 35.0898 55.4508 35.0898ZM57.5561 20.0342C58.1568 24.8403 57.3168 29.4914 56.8178 32.0532C57.9175 31.0934 58.6176 28.8766 58.7932 25.6525C59.0172 21.5737 58.0295 20.3866 57.5968 20.0642C57.5815 20.0542 57.5688 20.0442 57.5561 20.0342Z" fill="black"/>
<path d="M13.0081 42.985C13.0081 42.985 9.62751 45.4943 11.2236 47.7336C12.8197 49.973 18.7255 55.4888 31.9881 55.5313C44.3597 55.5713 49.6342 48.8508 49.6342 48.8508C49.6342 48.8508 50.4971 45.8866 47.4755 44.6045C47.4755 44.607 31.2193 58.4005 13.0081 42.985Z" fill="#484031"/>
<path d="M32.095 56.7834C32.0568 56.7834 32.0212 56.7834 31.983 56.7834C16.8494 56.736 12.4852 50.8821 11.5001 49.5C9.67995 46.9482 10.7323 43.1099 12.2393 41.9903L13.059 41.3829L13.838 42.0427C21.0624 48.156 28.7781 50.2829 36.7687 48.3659C42.7432 46.9313 46.6049 43.6973 46.6431 43.6648L47.2464 43.1524H49.6682C51.0001 46.5 50.5001 48.3659 50.0001 49.5L49.5001 50.5L49.2912 50.7902C49.0621 51.0801 44.8663 56.7809 32.095 56.7834ZM13.0514 44.652C12.4404 45.2968 12.527 47.2652 13.0514 48C13.5783 48.7398 17.8244 54.2367 31.9932 54.2817C32.0288 54.2817 32.0619 54.2817 32.0975 54.2817C42.509 54.2817 46.2765 51.0822 47.2464 50C47.9795 49.182 48.5001 47 48.0001 45.5C46.5262 46.5822 42.4607 49.5706 37.3746 50.7902C31.4789 52.2048 22.5439 52.2398 13.0514 44.652Z" fill="black"/>
<path d="M45.7237 26.9497C45.6825 26.9497 45.6438 26.9473 45.6025 26.9448C44.8931 26.8819 44.3721 26.2911 44.4391 25.6253C45.1021 18.9867 37.2216 16.786 37.1416 16.7642C36.4581 16.5802 36.0608 15.9096 36.2569 15.2656C36.4529 14.624 37.1674 14.2511 37.8536 14.4351C41.3205 15.3696 47.6971 18.9577 47.0084 25.8505C46.9439 26.48 46.3815 26.9497 45.7237 26.9497Z" fill="white"/>
<path d="M43.829 34.8007C43.6306 34.8007 43.4322 34.7535 43.2459 34.6543C42.6604 34.3401 42.4475 33.6197 42.7717 33.0504L43.8048 31.2245C44.1265 30.6529 44.862 30.4451 45.4475 30.7616C46.033 31.0757 46.2459 31.7962 45.9217 32.3654L44.8886 34.1913C44.6685 34.5787 44.2548 34.8007 43.829 34.8007Z" fill="white"/>
</svg>
