<svg width="153" height="47" viewBox="0 0 153 47" fill="none" xmlns="http://www.w3.org/2000/svg">
<path d="M9.4478 0.622513C9.22089 0.759466 5.58 1.14543 3.26963 6.38702C-1.49551 17.1566 0.21664 42.5552 5.89973 44.5099C16.0695 48.0209 143.48 45.4811 143.48 45.4811C143.48 45.4811 152.01 44.6842 152.33 34.5621C152.649 24.44 153.485 1.73059 142.49 2.36556C131.495 3.00053 9.4478 0.622513 9.4478 0.622513Z" fill="#FFCD45"/>
<path d="M60.575 47C33.851 47 9.98411 46.5642 5.75531 45.1076C4.3629 44.622 3.15615 42.9785 2.18662 40.227C-0.701342 32.0223 -0.979823 14.654 2.80547 6.10066C4.23913 2.85113 6.36385 0.834172 9.12804 0.0871523L9.26212 0.0498013C9.34463 0 9.37558 0 9.45809 0C10.6752 0.0249007 131.608 2.37801 142.459 1.74305C144.831 1.59364 146.842 2.50252 148.421 4.39497C153.598 10.5828 153.113 25.9838 152.845 34.2509L152.835 34.5746C152.505 45.1325 143.604 46.0787 143.511 46.0911C140.479 46.1658 97.7575 47 60.575 47ZM9.51997 1.24503C9.47872 1.25748 9.42715 1.28238 9.35495 1.29483C6.9105 1.9547 5.01269 3.76 3.72343 6.67338C0.061905 14.9528 0.340387 31.7732 3.13552 39.729C3.97097 42.0946 4.97144 43.5388 6.03379 43.8999C16.0179 47.3486 142.191 44.871 143.47 44.8461C143.769 44.8212 151.515 43.9621 151.814 34.5248L151.824 34.2011C152.082 26.1208 152.557 11.0808 147.699 5.27894C146.306 3.6106 144.604 2.86358 142.511 2.98808C131.732 3.6106 13.3053 1.31974 9.51997 1.24503Z" fill="black"/>
<path d="M19.7413 8.34172C19.7413 8.34172 12.7896 8.00556 11.9542 17.9409C11.1187 27.8638 11.6757 36.8032 19.7413 37.4631C27.807 38.1229 127.349 39.1189 134.022 37.4631C140.695 35.8072 140.695 30.1796 140.695 28.8599C140.695 27.5401 143.759 9.67391 132.908 8.34172C122.058 7.00954 19.7413 8.34172 19.7413 8.34172Z" fill="#9D6627"/>
<path d="M95.1067 38.9571C63.3082 38.9571 23.2997 38.3719 19.7104 38.0731C17.039 37.849 14.9762 36.7285 13.5734 34.7115C10.7886 30.7274 10.933 23.9544 11.4487 17.8662C12.3048 7.73166 19.339 7.70676 19.7516 7.71921C21.1543 7.69431 122.243 6.41192 132.97 7.71921C135.59 8.04292 137.653 9.31285 139.107 11.5041C142.469 16.5963 141.582 25.2244 141.293 28.063C141.252 28.4615 141.221 28.7229 141.221 28.8474C141.221 33.6532 138.705 36.9277 134.135 38.0607C131.443 38.7205 114.858 38.9571 95.1067 38.9571ZM19.6382 8.95179C18.8233 8.95179 13.2124 9.2755 12.4698 17.9907C12.0057 23.4813 11.8097 30.2543 14.3573 33.9023C15.595 35.6702 17.369 36.6164 19.7826 36.8156C28.9003 37.5627 127.669 38.3844 133.929 36.8281C136.786 36.1184 140.19 34.1637 140.19 28.835C140.19 28.6856 140.221 28.3619 140.272 27.9012C140.551 25.1995 141.397 16.9574 138.302 12.276C137.034 10.3462 135.208 9.2257 132.877 8.95179C122.181 7.6445 20.783 8.93934 19.7619 8.95179H19.7413C19.7104 8.96424 19.6794 8.95179 19.6382 8.95179Z" fill="black"/>
</svg>
