<svg width="359" height="292" viewBox="0 0 359 292" fill="none" xmlns="http://www.w3.org/2000/svg">
<path d="M199 128.1V144.3H230.4V136.7L199 128.1Z" fill="#FFB02C"/>
<path d="M231.9 145.8H197.5V126.1L231.9 135.5V145.8ZM200.5 142.8H228.9V137.8L200.5 130V142.8Z" fill="black"/>
<path d="M302.2 132.9L355.4 148.3C355.4 148.3 360.4 153.6 353.3 158.7L300.7 142.4L302.2 132.9Z" fill="#D69931"/>
<path d="M353.2 160.2C353.1 160.2 352.9 160.2 352.8 160.1L300.2 143.8C299.5 143.6 299 142.9 299.2 142.1L300.8 132.6C300.9 132.2 301.1 131.8 301.5 131.6C301.9 131.4 302.3 131.3 302.7 131.4L355.9 146.8C356.2 146.9 356.4 147 356.6 147.2C356.7 147.3 359 149.8 358.7 153.3C358.5 155.7 357 158 354.3 159.9C353.8 160.1 353.5 160.2 353.2 160.2ZM302.3 141.4L353 157.1C354.6 155.9 355.4 154.5 355.6 153.2C355.8 151.6 355 150.3 354.5 149.7L303.4 134.9L302.3 141.4Z" fill="black"/>
<path d="M291.3 125.2L303.1 128C303.1 128 303.6 131.7 303.2 136.1C302.8 140.9 301.3 146.5 297.2 149.4L282.9 144.3C282.9 144.3 290.5 137.6 291.3 125.2Z" fill="#231F20"/>
<path d="M297.2 150.9C297 150.9 296.9 150.9 296.7 150.8L282.4 145.7C281.9 145.5 281.5 145.1 281.4 144.6C281.3 144.1 281.5 143.5 281.9 143.2C282 143.1 289.1 136.7 289.8 125.1C289.8 124.7 290 124.3 290.4 124C290.8 123.7 291.2 123.6 291.6 123.7L303.4 126.5C304 126.6 304.5 127.1 304.5 127.8C304.5 128 305 131.7 304.6 136.2C304 143 301.7 148 297.9 150.6C297.8 150.9 297.5 150.9 297.2 150.9ZM285.6 143.7L297 147.8C300.3 145.1 301.4 140 301.8 136.1C302.1 133.2 301.9 130.7 301.8 129.3L292.7 127.1C291.7 135.4 287.8 141 285.6 143.7Z" fill="black"/>
<path d="M64.4 18.6L280 114.7C280 114.7 288.3 137.1 258.5 144.3L51.2 87.7L64.4 18.6Z" fill="#CB7839"/>
<path d="M258.5 145.9L49.5 88.8L63.3 16.5L281.2 113.6L281.4 114.2C281.5 114.6 284.7 123.2 280.1 131.8C276.5 138.5 269.4 143.2 258.9 145.8L258.5 145.9ZM52.9 86.6L258.5 142.8C267.9 140.4 274.3 136.3 277.4 130.4C280.7 124.1 279.3 117.7 278.7 115.8L65.5 20.8L52.9 86.6Z" fill="black"/>
<path d="M202.7 154.9C202.7 154.9 190.6 156.8 191.4 149.1C192 143 202.7 144.3 202.7 144.3H230.4C230.4 144.3 238 143.7 238.1 149.7C238.1 155.2 230.4 155.2 230.4 155.2L202.7 154.9Z" fill="#D4D1C1"/>
<path d="M230.4 156.7L202.8 156.4C201.6 156.6 195 157.4 191.7 154.2C190.3 152.9 189.7 151.1 189.9 148.9C190.1 147.2 190.8 145.9 192.1 144.8C195.5 142.1 201.7 142.6 202.8 142.7H230.4C231 142.7 235.1 142.5 237.6 144.8C238.9 146 239.6 147.6 239.6 149.6C239.6 151.3 239 152.8 237.8 154C235.3 156.7 230.8 156.7 230.4 156.7ZM202.6 153.4H202.7L230.4 153.7C231.4 153.7 234.2 153.4 235.7 152C236.3 151.4 236.6 150.7 236.6 149.7C236.6 148.6 236.3 147.8 235.6 147.1C233.9 145.5 230.6 145.8 230.6 145.8H230.5H202.6C201 145.6 196.2 145.5 194 147.2C193.3 147.7 193 148.4 192.9 149.2C192.8 150.4 193 151.3 193.8 152C195.8 153.9 200.9 153.6 202.5 153.4H202.6Z" fill="black"/>
<path d="M144.4 281.9L196.8 154.9H202.8L150.8 284.2C150.8 284.2 148.1 290.2 144.5 288.5C144.4 288.5 142.4 286.9 144.4 281.9Z" fill="#7E4919"/>
<path d="M145.7 290.3C145 290.3 144.4 290.1 143.8 289.8L143.5 289.6C143.2 289.4 140.6 287.2 143 281.3L195.7 153.4H204.9L152 284.7C151.8 285.2 150 288.9 147.2 290C146.7 290.2 146.2 290.3 145.7 290.3ZM145.3 287.2C145.6 287.3 145.9 287.3 146.2 287.2C147.6 286.7 149 284.4 149.3 283.6L200.5 156.5H197.8L145.8 282.6C144.6 285.5 145.1 286.8 145.3 287.2Z" fill="black"/>
<path d="M211.1 155.2H218.9V283.8C218.9 283.8 219.8 289.9 215 290.2C210.2 290.5 211.1 283.1 211.1 283.1V155.2Z" fill="#7E4919"/>
<path d="M214.7 291.7C213.3 291.7 212.2 291.2 211.3 290.3C209.2 288 209.5 283.9 209.6 283.1V153.7H220.4V283.7C220.5 284.4 220.8 287.6 219 289.8C218.1 291 216.7 291.6 215.1 291.7C215 291.7 214.8 291.7 214.7 291.7ZM212.6 156.7V283.2V283.3C212.5 284.2 212.4 287.1 213.5 288.2C213.7 288.4 214.1 288.7 214.9 288.7C215.7 288.6 216.3 288.4 216.7 287.9C217.6 286.8 217.5 284.7 217.4 284V283.8V156.7H212.6Z" fill="black"/>
<path d="M227.3 155.2L282.9 281.5C282.9 281.5 285.3 286.9 288.6 285.7C291.9 284.4 288.6 279 288.6 279L233.2 154.9L227.3 155.2Z" fill="#7E4919"/>
<path d="M287.6 287.4C284.7 287.4 282.5 284.3 281.5 282.1L225 153.8L234.2 153.3L290 278.3C290.5 279.1 292.3 282.4 291.4 284.9C291 285.9 290.3 286.7 289.2 287.1C288.7 287.3 288.1 287.4 287.6 287.4ZM229.6 156.6L284.3 280.9C284.7 281.8 286.5 284.9 288.1 284.3C288.4 284.2 288.5 284 288.5 283.9C288.8 283 288 280.9 287.3 279.8L287.2 279.6L232.2 156.5L229.6 156.6Z" fill="black"/>
<path d="M179.4 121.6C179.4 121.6 194.7 94.3 221 101.2C248.4 108.4 244.6 139.8 244.6 139.8L179.4 121.6Z" fill="#E9A700"/>
<path d="M245.1 140.5L244.5 140.3L178.7 122L179 121.4C179.2 121.1 194.8 93.9 221.2 100.8C248.7 108 245.2 139.6 245.2 140L245.1 140.5ZM180.2 121.3L244.2 139.2C244.5 134.9 245.5 108.2 220.9 101.7C197.4 95.6 182.5 117.5 180.2 121.3Z" fill="black"/>
<path d="M256.1 143.7L278.5 151C278.5 151 293.6 145.2 293.1 119.7L269.6 110.1C269.6 110.1 281 134.8 256.1 143.7Z" fill="#D4D1C1"/>
<path d="M278.5 152.4C278.3 152.4 278.2 152.4 278 152.3L255.6 145C255 144.8 254.6 144.2 254.6 143.6C254.6 143 255 142.4 255.6 142.2C262.4 139.8 267 135.9 269.2 130.7C273.1 121.4 268.3 110.8 268.3 110.7C268 110.1 268.2 109.5 268.6 109C269 108.6 269.7 108.4 270.2 108.6L293.7 118.1C294.3 118.3 294.6 118.9 294.6 119.5C295.1 145.8 279.7 152 279.1 152.2C278.9 152.4 278.7 152.4 278.5 152.4ZM260.4 143.5L278.4 149.3C280.8 148.1 291.7 141.7 291.6 120.6L272.2 112.7C273.5 116.9 275 124.6 272 131.8C269.8 136.9 266 140.8 260.4 143.5Z" fill="black"/>
<path d="M10.9 77.8001C10.9 77.8001 35.1 86.8001 54.7 90.3001C67.1 92.5001 76.8 87.9001 82.4 72.7001C93.8 41.8001 95.5 32.6001 75.5 22.9001C60.4 15.4001 34.7 4.00006 34.7 4.00006C34.7 4.00006 41.7 59.6001 10.9 77.8001Z" fill="#E1BD68"/>
<path d="M60.3 92.3C58.5 92.3 56.5 92.1 54.5 91.8C34.9 88.3 10.6 79.4 10.4 79.3L7.40002 78.2L10.1 76.6C39.7 59.1 33.3 4.70004 33.2 4.20004L32.9 1.60004L35.3 2.70004C35.6 2.80004 61.2 14.2 76.3 21.6C97.7 32 95 43 83.9 73.2C79.2 85.9 71.3 92.3 60.3 92.3ZM14.3 77.4C21.3 79.8 39.7 86 55 88.8C67.8 91.1 76 85.8 81 72.2C92.5 40.8 93.3 33.2 74.9 24.2C62.6 18.2 43.1 9.40004 36.4 6.40004C36.8 11.2 37.4 22 35.8 34.3C33.2 54.4 25.8 69.3 14.3 77.4Z" fill="black"/>
<path d="M23.4 66.8C23.4 66.8 3.10004 92.7 1.60004 66.8C-1.29996 15.8 34 -11.1 38 7.30001C45.2 40.7 23.4 66.8 23.4 66.8Z" fill="#D4D1C1"/>
<path d="M7.90003 79.8C7.30003 79.8 6.70003 79.7 6.10003 79.5C2.50003 78.4 0.600032 74.2 0.200032 66.8C-0.799968 49.4 2.60003 32.6 9.80003 19.4C15.6 8.60002 23.8 1.00002 30.5 0.100024C35 -0.499976 38.4 2.10002 39.5 7.00002C46.7 40.2 25.4 66.8 24.7 67.7C23.5 69.1 14.9 79.8 7.90003 79.8ZM31.8 3.00002C31.5 3.00002 31.2 3.00002 30.9 3.10002C20.3 4.50002 0.900032 28.3 3.20003 66.8C3.50003 72.6 4.90003 76.1 7.00003 76.8C11 78 18.5 70.8 22.3 66C22.5 65.7 43.5 40 36.5 7.80002C35.8 4.60002 34.3 3.00002 31.8 3.00002Z" fill="black"/>
<path d="M197.1 126.8C196.3 128.2 203.9 113 220.2 118.7C232.1 122.9 231.2 136.1 231.2 136.1L197.1 126.8Z" fill="#FFB02C"/>
<path d="M231.6 136.8L197.2 127.3C197 127.4 196.9 127.3 196.8 127.3L196.4 127.1L196.6 126.6C197.6 124.2 206 113.1 220.3 118.2C232.5 122.5 231.6 136 231.6 136.1V136.8ZM197.9 126.4L230.7 135.4C230.7 132.8 230.1 122.7 220 119.1C206.9 114.5 199.5 124 197.9 126.4Z" fill="black"/>
</svg>
