<svg width="56" height="53" viewBox="0 0 56 53" fill="none" xmlns="http://www.w3.org/2000/svg">
<path d="M6.87799 32.453C6.87799 32.453 7.25678 18.1504 25.6739 16.854C44.091 15.5575 47.9953 31.8213 47.9953 31.8213C47.9953 31.8213 23.5632 37.7268 6.87799 32.453Z" fill="#BA3635"/>
<path d="M23.5358 35.7524C16.9662 35.7524 11.2706 34.9997 6.52202 33.4985L5.71423 33.2432L5.73705 32.4244C5.74162 32.2659 5.8694 28.5065 8.39773 24.56C10.7253 20.9326 15.5948 16.46 25.5895 15.7556C35.591 15.0491 41.4646 19.3918 44.625 23.1579C48.0296 27.2123 49.0633 31.3965 49.1043 31.5726L49.3576 32.6247L48.2714 32.8866C48.0182 32.9483 41.9917 34.3922 33.8111 35.2066C30.1829 35.5698 26.7532 35.7524 23.5358 35.7524ZM8.10109 31.6694C22.1758 35.7216 41.6266 32.059 46.5509 31.0135C46.0489 29.6026 44.9239 26.9878 42.7995 24.4785C38.7012 19.6383 32.9668 17.4439 25.7583 17.9523C18.5065 18.463 13.3198 21.0779 10.3419 25.7199C8.78794 28.1367 8.27223 30.4787 8.10109 31.6694Z" fill="black"/>
<path d="M6.25962 33.1421C6.25962 33.1421 -3.72364 39.9236 4.19451 42.7035C16.1858 46.912 29.3272 46.1152 29.3272 46.1152C29.3272 46.1152 71.193 42.8972 47.6919 32.0723C47.6919 32.0723 29.9821 37.8193 6.25962 33.1421Z" fill="#3855A6"/>
<path d="M26.5479 47.2796C21.9659 47.2796 12.6466 46.8393 3.80431 43.7358C1.5247 42.9346 0.25597 41.713 0.0323454 40.0996C-0.467388 36.4767 4.97948 32.6644 5.60243 32.2396L6.00633 31.9667L6.49009 32.0613C13.2331 33.3908 19.5014 33.864 24.9985 33.864C38.3749 33.864 47.2058 31.0686 47.329 31.029L47.7672 30.8859L48.1847 31.0774C53.967 33.7407 56.4315 36.1729 55.9386 38.735C55.3841 41.6272 50.7861 43.8547 41.8822 45.5407C35.6549 46.7205 29.4801 47.2025 29.4185 47.2091C29.2679 47.2223 28.2251 47.2796 26.5479 47.2796ZM6.52888 34.3174C4.83344 35.5654 2.06323 38.1385 2.29598 39.8113C2.39866 40.5465 3.16766 41.1716 4.58699 41.669C16.2041 45.7454 29.1287 45.0257 29.2588 45.0169C29.2998 45.0147 35.3605 44.5392 41.46 43.3815C45.0015 42.7101 47.8562 41.9441 49.9418 41.1077C52.979 39.8905 53.5974 38.8494 53.6955 38.3366C53.8142 37.7203 53.4422 36.01 47.6051 33.2543C44.6524 34.1303 28.2342 38.4818 6.52888 34.3174Z" fill="black"/>
<path d="M7.87296 44.5612C7.87296 44.5612 8.63282 49.7359 12.8703 50.5415C17.1078 51.3449 19.9578 46.2054 19.9578 46.2054L7.87296 44.5612Z" fill="#F4EA1C"/>
<path d="M13.7876 51.7279C13.4202 51.7279 13.0414 51.6927 12.6489 51.6201C10.5564 51.2239 8.86555 49.8812 7.75884 47.7396C6.96702 46.2032 6.75024 44.7747 6.74112 44.7153L6.5289 43.267L21.7308 45.336L20.9618 46.7249C20.8409 46.9428 18.1346 51.7279 13.7876 51.7279ZM9.41777 45.8819C9.92663 47.2267 10.9923 49.0624 13.0893 49.4608C14.4539 49.7205 15.8367 49.1923 17.199 47.8914C17.4957 47.6075 17.7581 47.3192 17.984 47.0484L9.41777 45.8819Z" fill="black"/>
<path d="M22.4405 46.3903C22.4405 46.3903 24.145 51.3295 28.4715 51.3537C32.7979 51.3779 34.6531 45.8224 34.6531 45.8224L22.4405 46.3903Z" fill="#F4EA1C"/>
<path d="M28.5012 52.4543C28.4898 52.4543 28.4784 52.4543 28.467 52.4543C26.3288 52.4433 24.412 51.4286 22.9243 49.5246C21.8563 48.1578 21.3794 46.7953 21.3589 46.7381L20.8842 45.3602L36.2459 44.6448L35.7393 46.1592C35.6526 46.4167 33.5784 52.4543 28.5012 52.4543ZM24.2044 47.4116C24.9529 48.6376 26.3402 50.2422 28.4784 50.2554C30.6256 50.2708 32.0746 48.4087 32.8619 47.0088L24.2044 47.4116Z" fill="black"/>
<path d="M36.6772 45.5759C36.6772 45.5759 39.2648 50.1366 43.5274 49.4102C47.7899 48.6839 48.5977 42.8972 48.5977 42.8972L36.6772 45.5759Z" fill="#F4EA1C"/>
<path d="M42.6124 50.5878C40.8941 50.5878 39.2238 49.9032 37.7292 48.5738C36.4262 47.416 35.7051 46.157 35.6755 46.1042L34.9544 44.8319L49.9487 41.4643L49.7273 43.0447C49.6908 43.3132 48.7507 49.6369 43.7237 50.4931C43.3517 50.557 42.9821 50.5878 42.6124 50.5878ZM38.5986 46.2737C39.5615 47.3478 41.2204 48.686 43.3266 48.3251C45.4442 47.9641 46.5304 45.8885 47.0484 44.3741L38.5986 46.2737Z" fill="black"/>
<path d="M40.221 27.1C39.8399 27.1 39.4702 26.9173 39.2534 26.5827C38.1444 24.8725 34.6235 23.0742 33.3593 22.5239C32.7843 22.2752 32.5287 21.6237 32.7866 21.069C33.0444 20.5144 33.7221 20.2678 34.2949 20.5166C34.8243 20.7455 39.5159 22.8387 41.1885 25.414C41.5216 25.929 41.3596 26.6091 40.8257 26.9305C40.6363 27.0472 40.4263 27.1 40.221 27.1Z" fill="black"/>
<path d="M42.2997 29.7501C41.8502 29.7501 41.4235 29.4904 41.2432 29.0634L41.2227 29.0172C40.9854 28.4537 41.266 27.811 41.8502 27.5843C42.4344 27.3554 43.0984 27.6261 43.3357 28.1896L43.3563 28.2358C43.5936 28.7993 43.3129 29.442 42.7287 29.6687C42.5873 29.7259 42.4412 29.7501 42.2997 29.7501Z" fill="black"/>
<path d="M26.8514 17.1666C26.5981 17.1666 26.3425 17.0851 26.1303 16.9178L21.886 13.57C21.5985 13.3433 21.4433 12.9977 21.4707 12.6411C21.4958 12.2846 21.7012 11.9632 22.0161 11.7783L25.6876 9.63006C24.4212 8.17295 22.4017 5.6307 22.2032 4.03052C22.064 2.91017 22.461 1.77221 23.2665 0.984226C24.0104 0.253468 25.0145 -0.0899002 26.0915 0.0201537C29.0078 0.315098 29.7266 2.73849 29.7015 3.97769C29.7015 4.00411 29.6992 4.03052 29.6969 4.05473C29.6786 4.23962 29.4824 5.89263 28.0425 6.76646C27.6158 7.02399 27.1435 7.18026 26.6232 7.23309C27.1891 7.93743 27.7801 8.61757 28.2821 9.15243C28.5103 9.39675 28.6153 9.72471 28.5651 10.0505C28.5172 10.3762 28.3186 10.6624 28.0288 10.8319L24.5809 12.8502L27.5747 15.2142C28.0631 15.5994 28.1338 16.2927 27.7345 16.7638C27.5086 17.0301 27.1823 17.1666 26.8514 17.1666ZM24.8776 4.76568C24.9278 4.77669 24.9757 4.78989 25.0259 4.8075C25.5827 5.0078 26.3448 5.18609 26.8172 4.90655C27.253 4.64902 27.3876 4.04152 27.415 3.88085C27.4036 3.47145 27.2416 2.34669 25.8519 2.20803C25.4686 2.16841 25.1468 2.27626 24.8912 2.52718C24.5786 2.83313 24.412 3.31957 24.4691 3.76639C24.4988 4.01291 24.6494 4.36068 24.8776 4.76568Z" fill="black"/>
</svg>
