<svg width="48" height="55" viewBox="0 0 48 55" fill="none" xmlns="http://www.w3.org/2000/svg">
<path d="M7.33848 24.6531C7.33848 24.6531 15.2151 5.63553 35.5313 16.2608C35.5313 16.2608 43.0477 21.0265 42.243 28.2161L45.9952 29.9032L45.0154 38.7203H40.5168C40.5168 38.7203 39.2573 49.5837 27.212 50.3513L25.8118 53.9718L15.8247 52.4345L16.044 47.8248C16.044 47.8248 6.49549 44.6682 5.28835 34.8885L1.00702 33.8931C1.00702 33.8931 2.54411 27.3089 3.09135 25.0041L7.33848 24.6531Z" fill="#E1BD68"/>
<path d="M25.8097 55C25.7594 55 25.7091 54.9959 25.6588 54.9877L15.6717 53.4504C15.1607 53.3724 14.7925 52.9127 14.8167 52.3852L14.9998 48.5226C12.6982 47.5621 5.76917 44.0155 4.39101 35.7341L0.781659 34.8905C0.520112 34.8289 0.292767 34.6647 0.151934 34.4308C0.0111008 34.1989 -0.035173 33.9177 0.027196 33.6509C0.0432912 33.5852 1.57033 27.038 2.11354 24.7578C2.21615 24.3288 2.57628 24.0128 3.00884 23.9779L6.67251 23.6741C7.60402 21.749 11.0363 15.604 17.8466 13.0796C23.2103 11.0908 29.3145 11.8522 35.99 15.3434C36.0141 15.3557 36.0382 15.3701 36.0624 15.3844C36.1449 15.4358 38.0924 16.6836 39.9494 18.8653C42.2691 21.5909 43.4179 24.5833 43.3012 27.5655L46.4015 28.9591C46.8039 29.1397 47.0454 29.5666 46.9951 30.014L46.0153 38.8311C45.9569 39.3504 45.5284 39.7424 45.0153 39.7424H41.3497C41.1022 40.8445 40.5187 42.8025 39.2191 44.8098C37.4908 47.48 34.137 50.7289 27.9142 51.3221L26.7453 54.3473C26.5924 54.7475 26.2181 55 25.8097 55ZM16.8708 51.5602L25.1679 52.8368L26.2745 49.9757C26.4173 49.6063 26.7573 49.3538 27.1476 49.3271C31.8112 49.0295 35.3079 47.1311 37.5411 43.683C39.211 41.1052 39.5148 38.6259 39.5168 38.6013C39.5772 38.0841 40.0057 37.6962 40.5167 37.6962H44.118L44.9127 30.5394L41.8386 29.1561C41.4362 28.9755 41.1947 28.5465 41.245 28.1012C41.5448 25.433 40.6093 22.7936 38.4666 20.2589C36.9295 18.4384 35.2777 17.3178 35.0323 17.1557C28.9 13.958 23.3572 13.2356 18.5568 15.0089C11.4327 17.64 8.29813 24.9835 8.26795 25.0574C8.12108 25.4084 7.79515 25.6485 7.42295 25.6793L3.90212 25.9708C3.43335 27.9575 2.62255 31.4219 2.22419 33.1275L5.51567 33.8972C5.92811 33.9936 6.23593 34.3425 6.28824 34.7694C6.75097 38.5233 8.56772 41.6881 11.6842 44.1797C14.0582 46.0761 16.3337 46.8499 16.3578 46.8581C16.7884 47.0018 17.072 47.4225 17.0499 47.8843L16.8708 51.5602Z" fill="black"/>
<path d="M11.8592 33.3909C11.7686 33.3909 11.6781 33.363 11.6037 33.3051L10.6239 32.5535C10.4528 32.4229 10.4287 32.1879 10.5695 32.0275C10.7104 31.869 10.9659 31.8466 11.1369 31.9791L12.1167 32.7307C12.2877 32.8612 12.3118 33.0962 12.171 33.2566C12.0905 33.3443 11.9759 33.3909 11.8592 33.3909Z" fill="black"/>
<path d="M15.038 32.5759C15.0199 32.5759 14.9998 32.574 14.9817 32.5722C14.7624 32.5423 14.6095 32.3539 14.6397 32.1506L14.8187 30.985C14.8509 30.7817 15.0521 30.6399 15.2734 30.6679C15.4927 30.6977 15.6456 30.8861 15.6154 31.0894L15.4364 32.2551C15.4082 32.4416 15.2352 32.5759 15.038 32.5759Z" fill="black"/>
<path d="M11.3642 37.0391C11.2475 37.0391 11.1308 36.9925 11.0504 36.9011C10.9116 36.7407 10.9377 36.5057 11.1107 36.377L12.1006 35.6365C12.2736 35.5078 12.5271 35.5321 12.6659 35.6925C12.8048 35.8529 12.7786 36.0879 12.6056 36.2166L11.6157 36.957C11.5433 37.013 11.4548 37.0391 11.3642 37.0391Z" fill="black"/>
<path d="M17.3538 34.51C17.1948 34.51 17.0459 34.4223 16.9816 34.2787C16.8971 34.0885 16.9936 33.8702 17.1988 33.7919L18.3738 33.3424C18.579 33.2641 18.8144 33.3536 18.8989 33.5439C18.9834 33.7341 18.8868 33.9523 18.6816 34.0306L17.5067 34.4801C17.4564 34.5006 17.4041 34.51 17.3538 34.51Z" fill="black"/>
<path d="M16.3739 37.7795C16.2371 37.7795 16.1023 37.7142 16.0279 37.5967L15.376 36.5858C15.2613 36.4086 15.3237 36.1792 15.5148 36.0748C15.706 35.9684 15.9534 36.0263 16.0661 36.2035L16.718 37.2143C16.8326 37.3915 16.7703 37.6209 16.5791 37.7254C16.5147 37.7627 16.4443 37.7795 16.3739 37.7795Z" fill="black"/>
<path d="M14.364 35.685C13.505 35.685 12.8048 35.0359 12.8048 34.2395C12.8048 33.4431 13.505 32.7941 14.364 32.7941C15.2231 32.7941 15.9233 33.4431 15.9233 34.2395C15.9233 35.0359 15.2231 35.685 14.364 35.685ZM14.364 33.5401C13.9476 33.5401 13.6096 33.8534 13.6096 34.2395C13.6096 34.6256 13.9476 34.9389 14.364 34.9389C14.7805 34.9389 15.1185 34.6256 15.1185 34.2395C15.1185 33.8534 14.7805 33.5401 14.364 33.5401Z" fill="black"/>
<path d="M21.7598 42.6157C21.6954 42.6157 21.631 42.6008 21.5707 42.571L20.4501 42.017C20.2549 41.92 20.1805 41.6944 20.2851 41.5116C20.3897 41.3288 20.6331 41.2617 20.8303 41.3587L21.9509 41.9126C22.1461 42.0096 22.2205 42.2352 22.1159 42.418C22.0415 42.5449 21.9027 42.6157 21.7598 42.6157Z" fill="black"/>
<path d="M24.6972 41.2299C24.4859 41.2299 24.3089 41.077 24.2968 40.8793L24.2204 39.7043C24.2063 39.4991 24.3753 39.3219 24.5986 39.3089C24.8179 39.2977 25.011 39.4525 25.0251 39.6595L25.1016 40.8345C25.1157 41.0397 24.9467 41.2169 24.7233 41.2299C24.7153 41.2299 24.7052 41.2299 24.6972 41.2299Z" fill="black"/>
<path d="M22.0616 46.2844C21.9711 46.2844 21.8805 46.2564 21.8061 46.1986C21.6351 46.068 21.611 45.833 21.7518 45.6726L22.5606 44.7643C22.7034 44.6058 22.9569 44.5834 23.1279 44.714C23.2989 44.8445 23.3231 45.0795 23.1822 45.2399L22.3735 46.1482C22.293 46.2378 22.1783 46.2844 22.0616 46.2844Z" fill="black"/>
<path d="M27.383 42.694C27.2543 42.694 27.1275 42.6362 27.049 42.5299C26.9243 42.3583 26.9726 42.127 27.1577 42.0114L28.2119 41.353C28.397 41.2374 28.6465 41.2821 28.7712 41.4537C28.896 41.6253 28.8477 41.8566 28.6626 41.9722L27.6084 42.6306C27.5379 42.6735 27.4615 42.694 27.383 42.694Z" fill="black"/>
<path d="M27.1295 46.0811C27.0209 46.0811 26.9122 46.0401 26.8318 45.9599L25.9747 45.0889C25.8258 44.9359 25.8359 44.7009 26.0009 44.561C26.1658 44.423 26.4193 44.4323 26.5702 44.5853L27.4273 45.4563C27.5762 45.6092 27.5661 45.8442 27.4011 45.9841C27.3227 46.0494 27.2261 46.0811 27.1295 46.0811Z" fill="black"/>
<path d="M24.4718 44.423C24.17 44.423 23.8743 44.3409 23.6147 44.1824C23.2667 43.9698 23.0293 43.6434 22.9468 43.2648C22.7758 42.4833 23.321 41.7186 24.164 41.5582C25.007 41.3997 25.8318 41.9051 26.0049 42.6866C26.0874 43.0652 26.0069 43.4513 25.7775 43.7721C25.5482 44.0947 25.1961 44.3148 24.7877 44.3913C24.6831 44.4137 24.5784 44.423 24.4718 44.423ZM24.4758 42.2763C24.4255 42.2763 24.3752 42.28 24.3249 42.2912C23.9165 42.3677 23.653 42.7388 23.7354 43.1174C23.7757 43.3002 23.8904 43.4587 24.0594 43.5613C24.2284 43.6639 24.4296 43.7012 24.6267 43.6639C24.8239 43.6266 24.9949 43.5203 25.1056 43.3636C25.2162 43.2069 25.2564 43.0204 25.2162 42.8377C25.1438 42.5057 24.8279 42.2763 24.4758 42.2763Z" fill="black"/>
<path d="M26.7553 27.0607C26.6909 27.0607 26.6265 27.0458 26.5662 27.016L25.4455 26.462C25.2504 26.3651 25.1759 26.1394 25.2806 25.9566C25.3852 25.7738 25.6286 25.7067 25.8258 25.8037L26.9464 26.3576C27.1416 26.4546 27.216 26.6803 27.1114 26.863C27.037 26.9899 26.8981 27.0607 26.7553 27.0607Z" fill="black"/>
<path d="M29.6927 25.675C29.4814 25.675 29.3044 25.522 29.2923 25.3243L29.2158 24.1493C29.2018 23.9442 29.3708 23.767 29.5941 23.7539C29.8134 23.7427 30.0065 23.8975 30.0206 24.1046L30.0971 25.2796C30.1111 25.4847 29.9421 25.6619 29.7188 25.675C29.7088 25.675 29.7007 25.675 29.6927 25.675Z" fill="black"/>
<path d="M27.0571 30.7294C26.9666 30.7294 26.876 30.7014 26.8016 30.6436C26.6306 30.513 26.6064 30.278 26.7473 30.1176L27.5561 29.2093C27.6969 29.0508 27.9524 29.0284 28.1234 29.159C28.2944 29.2895 28.3186 29.5245 28.1777 29.6849L27.3689 30.5932C27.2885 30.6828 27.1738 30.7294 27.0571 30.7294Z" fill="black"/>
<path d="M32.3786 27.1391C32.2499 27.1391 32.1231 27.0813 32.0446 26.975C31.9199 26.8034 31.9682 26.5721 32.1533 26.4565L33.2075 25.7981C33.3926 25.6824 33.6421 25.7272 33.7668 25.8988C33.8916 26.0704 33.8433 26.3017 33.6582 26.4173L32.604 27.0757C32.5335 27.1186 32.4571 27.1391 32.3786 27.1391Z" fill="black"/>
<path d="M32.1231 30.5261C32.0144 30.5261 31.9058 30.4851 31.8253 30.4049L30.9682 29.5339C30.8193 29.3809 30.8294 29.1459 30.9944 29.0061C31.1594 28.868 31.4129 28.8792 31.5638 29.0303L32.4208 29.9013C32.5697 30.0542 32.5596 30.2892 32.3947 30.4291C32.3182 30.4944 32.2196 30.5261 32.1231 30.5261Z" fill="black"/>
<path d="M29.4673 28.868C29.1656 28.868 28.8698 28.786 28.6103 28.6274C28.2622 28.4148 28.0248 28.0884 27.9423 27.7098C27.8598 27.3312 27.9403 26.9451 28.1697 26.6225C28.399 26.2998 28.7511 26.0797 29.1595 26.0032C29.5679 25.9268 29.9844 26.0014 30.3325 26.214C30.6805 26.4266 30.9179 26.753 31.0004 27.1316C31.1714 27.9131 30.6262 28.6778 29.7832 28.8363C29.6786 28.8587 29.572 28.868 29.4673 28.868ZM29.4734 26.7213C29.4231 26.7213 29.3728 26.7269 29.3205 26.7362C29.1233 26.7735 28.9523 26.8798 28.8416 27.0365C28.731 27.1932 28.6907 27.3797 28.731 27.5625C28.7712 27.7452 28.8859 27.9038 29.0549 28.0064C29.2239 28.1089 29.4251 28.1462 29.6223 28.1089C30.0307 28.0325 30.2942 27.6613 30.2117 27.2827C30.1715 27.0999 30.0568 26.9414 29.8878 26.8388C29.7631 26.7623 29.6202 26.7213 29.4734 26.7213Z" fill="black"/>
<path d="M35.7907 33.5513C35.5996 33.5513 35.4145 33.4991 35.2515 33.4002C35.0322 33.266 34.8834 33.0608 34.831 32.8239C34.7787 32.5852 34.829 32.3427 34.9739 32.1413C35.1188 31.938 35.3401 31.8 35.5956 31.7515C36.1247 31.6508 36.6438 31.9697 36.7524 32.4602C36.8047 32.699 36.7544 32.9414 36.6096 33.1429C36.4647 33.3443 36.2434 33.4842 35.9879 33.5327C35.9235 33.5457 35.8571 33.5513 35.7907 33.5513ZM35.7927 32.4789C35.7807 32.4789 35.7686 32.4789 35.7565 32.4826C35.6942 32.4938 35.66 32.5311 35.6459 32.5535C35.6298 32.574 35.6076 32.6188 35.6197 32.6766C35.6398 32.7642 35.7344 32.8221 35.8269 32.8034C35.8893 32.7922 35.9235 32.7549 35.9376 32.7325C35.9537 32.712 35.9758 32.6673 35.9638 32.6094C35.9477 32.5311 35.8752 32.4789 35.7927 32.4789Z" fill="black"/>
<path d="M26.701 36.2222C26.2443 36.2222 25.8339 35.9256 25.7393 35.4948C25.687 35.256 25.7373 35.0136 25.8822 34.8121C26.027 34.6107 26.2483 34.4708 26.5038 34.4223C27.035 34.3216 27.552 34.6405 27.6607 35.1311C27.713 35.3698 27.6627 35.6123 27.5178 35.8137C27.373 36.0151 27.1517 36.155 26.8962 36.2035C26.8298 36.2147 26.7654 36.2222 26.701 36.2222ZM26.701 35.1497C26.6889 35.1497 26.6769 35.1497 26.6648 35.1534C26.6024 35.1646 26.5682 35.2019 26.5541 35.2243C26.538 35.2448 26.5159 35.2896 26.528 35.3474C26.5481 35.4351 26.6427 35.4948 26.7352 35.4742C26.7976 35.4631 26.8318 35.4258 26.8459 35.4034C26.862 35.3829 26.8841 35.3381 26.872 35.2803C26.8559 35.2019 26.7815 35.1497 26.701 35.1497Z" fill="black"/>
<path d="M34.0102 40.0549C33.5535 40.0549 33.1431 39.7584 33.0485 39.3275C32.9962 39.0888 33.0465 38.8463 33.1914 38.6449C33.3362 38.4435 33.5575 38.3036 33.813 38.2551C34.3442 38.1544 34.8612 38.4733 34.9699 38.9638C35.0222 39.2026 34.9719 39.445 34.827 39.6465C34.6822 39.8479 34.4609 39.9878 34.2054 40.0363C34.141 40.0475 34.0746 40.0549 34.0102 40.0549ZM34.0102 38.9806C33.9981 38.9806 33.9861 38.9806 33.974 38.9843C33.9116 38.9955 33.8774 39.0328 33.8633 39.0552C33.8472 39.0757 33.8251 39.1205 33.8372 39.1783C33.8573 39.266 33.9519 39.3238 34.0444 39.3051C34.1068 39.294 34.141 39.2567 34.1551 39.2343C34.1712 39.2138 34.1933 39.169 34.1812 39.1112C34.1671 39.0347 34.0927 38.9806 34.0102 38.9806Z" fill="black"/>
<path d="M17.8446 27.1801C17.3879 27.1801 16.9775 26.8836 16.8829 26.4527C16.8306 26.214 16.8809 25.9715 17.0258 25.7701C17.1706 25.5668 17.3919 25.4288 17.6475 25.3803C18.1766 25.2814 18.6957 25.5985 18.8043 26.089C18.8566 26.3278 18.8063 26.5702 18.6615 26.7717C18.5166 26.975 18.2953 27.113 18.0398 27.1615C17.9754 27.1727 17.909 27.1801 17.8446 27.1801ZM17.8446 26.1058C17.8325 26.1058 17.8205 26.1077 17.8084 26.1095C17.746 26.1207 17.7118 26.158 17.6977 26.1804C17.6837 26.2009 17.6595 26.2457 17.6716 26.3035C17.6917 26.3912 17.7863 26.449 17.8788 26.4303C17.9734 26.4117 18.0357 26.3259 18.0156 26.2382C18.0036 26.1804 17.9633 26.1487 17.9392 26.1338C17.9231 26.1226 17.8889 26.1058 17.8446 26.1058Z" fill="black"/>
<path d="M24.0775 22.038C23.8864 22.038 23.7013 21.9858 23.5383 21.887C23.319 21.7527 23.1701 21.5475 23.1178 21.3106C23.0092 20.8201 23.3532 20.3371 23.8823 20.2382C24.1379 20.1897 24.4014 20.2363 24.6187 20.3706C24.838 20.5049 24.9869 20.7101 25.0392 20.9469C25.0915 21.1857 25.0412 21.4281 24.8963 21.6296C24.7515 21.8329 24.5302 21.9709 24.2747 22.0194C24.2103 22.0306 24.1439 22.038 24.0775 22.038ZM24.0795 20.9637C24.0674 20.9637 24.0554 20.9656 24.0433 20.9675C23.9809 20.9787 23.9467 21.016 23.9306 21.0383C23.9165 21.0589 23.8924 21.1036 23.9045 21.1614C23.9165 21.2193 23.9568 21.251 23.9809 21.264C24.0031 21.2789 24.0513 21.2995 24.1137 21.2883C24.1761 21.2771 24.2103 21.2398 24.2264 21.2174C24.2405 21.1969 24.2646 21.1521 24.2525 21.0943C24.2405 21.0365 24.2002 21.0048 24.1761 20.9898C24.158 20.9805 24.1258 20.9637 24.0795 20.9637Z" fill="black"/>
<path d="M24.6471 14C23.91 14 23.3079 13.6772 23.2971 13.2752L23.0001 0.742402C22.9893 0.337455 23.586 0.00440159 24.3339 0C24.3393 0 24.3447 0 24.3528 0C25.09 0 25.6921 0.322783 25.7029 0.724796L25.9999 13.2576C26.0107 13.6625 25.414 13.9956 24.666 14C24.6606 14 24.6552 14 24.6471 14Z" fill="black"/>
<path d="M24.4758 0.932556C24.4758 0.932556 32.2559 2.26424 34.9941 1.15264C34.9941 1.15264 29.9884 8.99912 24.6971 7.91363L24.4758 0.932556Z" fill="#4379BD"/>
<path d="M25.7172 8.94877C25.3088 8.94877 24.8984 8.9096 24.4819 8.82381C24.0312 8.73055 23.7073 8.36686 23.6932 7.94162L23.4719 0.960539C23.4639 0.678909 23.5926 0.408469 23.822 0.225689C24.0513 0.0429092 24.3612 -0.035425 24.6589 0.0167978C26.7392 0.373032 32.5798 1.11721 34.5917 0.298428C34.9921 0.136164 35.4588 0.231285 35.7485 0.533431C36.0383 0.835578 36.0845 1.27761 35.8612 1.62638C35.656 1.94718 31.1232 8.94877 25.7172 8.94877ZM25.679 7.0818C25.687 7.0818 25.6951 7.0818 25.7031 7.0818C28.3407 7.0818 31.0709 4.55459 32.785 2.49179C30.3063 2.641 27.2281 2.2829 25.518 2.04043L25.679 7.0818Z" fill="black"/>
</svg>
