<svg width="23" height="24" viewBox="0 0 23 24" fill="none" xmlns="http://www.w3.org/2000/svg">
<path d="M6.87444 13.3173C8.02366 14.2392 8.74191 13.8935 9.17289 13.6054C10.0348 13.0292 12.046 11.4735 13.1952 9.86012C14.6317 7.84344 13.7698 7.84344 11.7586 5.25058C10.1497 3.17628 7.44905 1.69738 6.29983 1.21722C3.54169 -0.396121 1.70293 0.160865 1.12831 0.641026C-0.4806 2.02389 0.266396 4.86644 0.841008 6.11485C2.27754 10.1482 5.43791 12.1649 6.87444 13.3173Z" fill="white"/>
<path fill-rule="evenodd" clip-rule="evenodd" d="M1.22104 0.751071C0.466393 1.40025 0.252944 2.40111 0.309286 3.4204C0.365526 4.43785 0.689876 5.44274 0.971454 6.0545L0.974146 6.06035L0.976307 6.06642C2.22549 9.57375 4.79034 11.5356 6.37551 12.748C6.59195 12.9136 6.79012 13.0652 6.96419 13.2048C7.52039 13.651 7.95553 13.7774 8.29028 13.7711C8.62662 13.7646 8.8861 13.624 9.09322 13.4855C9.94981 12.9129 11.9441 11.3687 13.0783 9.7764C13.436 9.27426 13.6386 8.91343 13.7212 8.61517C13.8008 8.32789 13.7702 8.0944 13.6413 7.83585C13.5071 7.56672 13.2684 7.27418 12.9249 6.87525C12.8748 6.81713 12.8227 6.75695 12.7686 6.6945C12.4555 6.3328 12.0764 5.89492 11.6453 5.33903C10.058 3.29262 7.38301 1.82585 6.24459 1.3502L6.23574 1.3465L6.22746 1.34165C3.50442 -0.25115 1.73569 0.321897 1.22104 0.751071ZM6.36395 1.08797C3.57654 -0.539229 1.67128 -0.000179721 1.03636 0.530375L1.03636 0.530365L1.03484 0.531667C0.181204 1.26537 -0.036142 2.37688 0.0224198 3.43634C0.0809225 4.49473 0.415495 5.53219 0.707893 6.16936C1.98866 9.75933 4.62258 11.7715 6.20523 12.9806C6.41969 13.1444 6.61484 13.2935 6.78471 13.4298C7.37774 13.9055 7.87633 14.0671 8.29575 14.0591C8.71359 14.0511 9.02873 13.8749 9.25259 13.7252C10.1198 13.1455 12.1479 11.5782 13.3121 9.94386C13.6727 9.43767 13.9011 9.04224 13.998 8.69228C14.098 8.33134 14.0567 8.02466 13.8983 7.70701C13.7452 7.39996 13.4811 7.08029 13.1423 6.68695C13.0917 6.6282 13.0392 6.5676 12.985 6.50488C12.6719 6.14323 12.2981 5.71146 11.8721 5.16215C10.2456 3.06531 7.52896 1.57651 6.36395 1.08797Z" fill="black"/>
<path fill-rule="evenodd" clip-rule="evenodd" d="M9.74347 5.30596C8.33398 4.05816 6.86663 3.08472 5.94867 2.57149L6.07751 2.33508C7.01102 2.857 8.49418 3.84134 9.91892 5.10264C11.3419 6.36236 12.7181 7.90837 13.4228 9.5556L13.1782 9.66297C12.4965 8.06975 11.1547 6.55533 9.74347 5.30596Z" fill="black"/>
<path d="M1.43625 0.518025C-0.6611 1.88622 0.236493 5.01865 0.947458 6.41385C4.46674 6.41385 5.96865 2.93336 6.27969 1.19312C3.86241 0.0769634 2.41382 -0.0220526 1.43625 0.518025Z" fill="#446EDC"/>
<path fill-rule="evenodd" clip-rule="evenodd" d="M1.50432 0.634213C0.514208 1.28251 0.222035 2.34877 0.271883 3.44962C0.320115 4.51481 0.689259 5.58824 1.02897 6.27819C2.69605 6.25184 3.8903 5.41862 4.71232 4.37202C5.51715 3.34731 5.9602 2.12299 6.12903 1.27225C3.77942 0.202217 2.40999 0.136426 1.50432 0.634213ZM1.37239 0.399493C2.40974 -0.173607 3.91217 -0.0484419 6.33497 1.07026L6.42932 1.11383L6.41085 1.21717C6.25222 2.10468 5.79152 3.43174 4.92097 4.54013C4.04779 5.65185 2.75696 6.54887 0.947439 6.54887H0.866228L0.828981 6.47577C0.46738 5.76617 0.0577656 4.61514 0.00555073 3.462C-0.0467347 2.3073 0.260096 1.12467 1.36405 0.404513L1.36813 0.401849L1.37239 0.399493Z" fill="black"/>
<path fill-rule="evenodd" clip-rule="evenodd" d="M9.46126 13.4642C5.52269 11.3609 2.94196 7.83066 2.20569 6.33921L2.44415 6.21844C3.15944 7.6674 5.70358 11.1522 9.58562 13.2254L9.46126 13.4642Z" fill="black"/>
<path d="M10.5899 8.25909C10.5899 9.47705 9.5355 10.4644 8.23483 10.4644C6.93416 10.4644 5.87976 9.47705 5.87976 8.25909C5.87976 7.04114 6.93416 6.05379 8.23483 6.05379C9.5355 6.05379 10.5899 7.04114 10.5899 8.25909Z" fill="#494949"/>
<path fill-rule="evenodd" clip-rule="evenodd" d="M8.23483 10.1944C9.40834 10.1944 10.3233 9.30835 10.3233 8.25909C10.3233 7.20984 9.40834 6.32382 8.23483 6.32382C7.06132 6.32382 6.14637 7.20984 6.14637 8.25909C6.14637 9.30835 7.06132 10.1944 8.23483 10.1944ZM8.23483 10.4644C9.5355 10.4644 10.5899 9.47705 10.5899 8.25909C10.5899 7.04114 9.5355 6.05379 8.23483 6.05379C6.93416 6.05379 5.87976 7.04114 5.87976 8.25909C5.87976 9.47705 6.93416 10.4644 8.23483 10.4644Z" fill="black"/>
<path d="M9.96779 8.25909C9.96779 9.17877 9.17201 9.92432 8.19038 9.92432C7.20874 9.92432 6.41296 9.17877 6.41296 8.25909C6.41296 7.33941 7.20874 6.59386 8.19038 6.59386C9.17201 6.59386 9.96779 7.33941 9.96779 8.25909Z" fill="#446EDC"/>
<path fill-rule="evenodd" clip-rule="evenodd" d="M8.19038 9.65428C9.04472 9.65428 9.70118 9.0102 9.70118 8.25909C9.70118 7.50798 9.04472 6.86389 8.19038 6.86389C7.33603 6.86389 6.67958 7.50798 6.67958 8.25909C6.67958 9.0102 7.33603 9.65428 8.19038 9.65428ZM8.19038 9.92432C9.17201 9.92432 9.96779 9.17877 9.96779 8.25909C9.96779 7.33941 9.17201 6.59386 8.19038 6.59386C7.20874 6.59386 6.41296 7.33941 6.41296 8.25909C6.41296 9.17877 7.20874 9.92432 8.19038 9.92432Z" fill="black"/>
<path d="M5.9242 17.9355C2.72485 15.5591 2.57674 11.4846 2.9026 9.74431C3.8624 11.0765 6.53148 13.0898 7.74605 13.9299C7.70161 14.0949 7.51498 14.587 7.12395 15.2351C6.63516 16.0452 8.54588 17.4404 9.0791 17.9355C9.61233 18.4305 9.92337 20.9059 5.9242 17.9355Z" fill="#00408A"/>
<path fill-rule="evenodd" clip-rule="evenodd" d="M2.82895 9.41302L3.01028 9.66471C3.47907 10.3154 4.37413 11.1423 5.31298 11.9169C6.24874 12.6891 7.21659 13.4002 7.82123 13.8184L7.89964 13.8726L7.87466 13.9654C7.82603 14.146 7.63326 14.6499 7.2377 15.3055C7.14927 15.452 7.1589 15.6378 7.26861 15.8711C7.3782 16.1041 7.57632 16.3576 7.81463 16.6101C8.14191 16.9568 8.51944 17.2772 8.81649 17.5294C8.9565 17.6482 9.07863 17.7518 9.16919 17.8359C9.33081 17.986 9.46011 18.2648 9.50501 18.54C9.54958 18.8131 9.5186 19.1369 9.28819 19.3374C9.05562 19.5398 8.67546 19.5688 8.13699 19.3862C7.59299 19.2019 6.84964 18.7903 5.84537 18.0443C4.21549 16.8337 3.36452 15.1912 2.96249 13.6355C2.56096 12.0817 2.60524 10.6077 2.77163 9.71914L2.82895 9.41302ZM2.98552 10.0711C2.86956 10.9376 2.87253 12.221 3.22041 13.5672C3.61081 15.0779 4.43357 16.6608 6.00303 17.8266C6.99835 18.5658 7.71581 18.9587 8.2216 19.1302C8.73291 19.3035 8.99151 19.2396 9.11442 19.1326C9.2395 19.0237 9.28072 18.8215 9.24197 18.584C9.20356 18.3487 9.09402 18.1324 8.98903 18.035C8.91243 17.9639 8.8002 17.8685 8.66743 17.7557C8.36597 17.4995 7.95859 17.1534 7.62192 16.7967C7.377 16.5372 7.15576 16.2591 7.02791 15.9872C6.90016 15.7156 6.85425 15.4231 7.01021 15.1647C7.33806 14.6213 7.51768 14.1933 7.5892 13.9847C6.97623 13.5571 6.04596 12.87 5.14459 12.1263C4.31592 11.4425 3.50272 10.7036 2.98552 10.0711Z" fill="black"/>
<path d="M17.5843 6.02056C15.348 3.15597 11.3149 2.8495 9.57785 3.05433C10.8626 3.94087 12.7588 6.33203 13.5463 7.41679C13.7115 7.38569 14.2062 7.24625 14.8631 6.93729C15.6843 6.55109 16.996 8.26083 17.4669 8.74261C17.9378 9.22438 20.3797 9.6013 17.5843 6.02056Z" fill="#00408A"/>
<path fill-rule="evenodd" clip-rule="evenodd" d="M9.20744 2.96207L9.50282 3.1659C10.1301 3.59878 10.9159 4.40679 11.6484 5.25038C12.3786 6.09126 13.0472 6.95712 13.4389 7.49676L13.4885 7.565L13.5707 7.54952C13.7495 7.51585 14.255 7.37214 14.9193 7.05973C15.0741 6.98689 15.2658 7.00577 15.4949 7.11153C15.723 7.21688 15.9671 7.39929 16.208 7.61548C16.5392 7.91279 16.8417 8.25152 17.0804 8.51869C17.1932 8.64494 17.2917 8.75521 17.3722 8.83757C17.5158 8.98451 17.7859 9.10679 18.0528 9.15682C18.3163 9.20621 18.6325 9.19518 18.8399 9.00513C19.0601 8.80336 19.1004 8.45865 18.9375 7.98022C18.7734 7.49809 18.391 6.83612 17.6889 5.9368C16.5475 4.47477 14.9512 3.66992 13.4284 3.25599C11.9061 2.84219 10.4466 2.81594 9.56246 2.9202L9.20744 2.96207ZM9.9403 3.15699C10.8048 3.09999 12.0583 3.16315 13.3593 3.5168C14.8464 3.92104 16.3848 4.70172 17.4798 6.10428C18.1754 6.99533 18.536 7.62902 18.6855 8.06824C18.8362 8.51117 18.7607 8.71351 18.661 8.80488C18.5485 8.90797 18.3407 8.93617 18.1013 8.89129C17.8652 8.84705 17.6535 8.74155 17.5617 8.6476C17.4945 8.57891 17.4045 8.47828 17.2979 8.35907C17.0551 8.08761 16.7261 7.7198 16.3848 7.41339C16.1362 7.19021 15.8689 6.98748 15.6055 6.86582C15.3429 6.74456 15.0627 6.69455 14.807 6.81481C14.2461 7.07858 13.8088 7.21539 13.6022 7.2662C13.2011 6.71825 12.5536 5.88387 11.8486 5.07204C11.2189 4.34678 10.5367 3.63184 9.9403 3.15699Z" fill="black"/>
<path d="M8.67921 15.5051C8.00379 14.965 8.1608 14.2899 8.32373 14.0199C8.57257 14.0199 9.22724 13.6599 9.52348 13.4798L10.901 12.3547C11.2268 12.0546 12.0652 11.2295 12.8117 10.3294C13.5582 9.42926 13.9226 8.60415 14.0114 8.30411C14.2632 8.31911 14.8468 8.43913 15.1668 8.79918C15.4867 9.15923 15.3001 9.87933 15.1668 10.1944C14.0292 12.1386 12.0267 14.0349 11.1676 14.74C10.6196 15.2201 9.35463 16.0452 8.67921 15.5051Z" fill="#B63030"/>
<path fill-rule="evenodd" clip-rule="evenodd" d="M13.9141 8.16306L14.0193 8.16932C14.157 8.17753 14.378 8.21361 14.6075 8.29478C14.836 8.3756 15.0851 8.50543 15.2659 8.70886C15.4636 8.93138 15.4939 9.24946 15.4695 9.52567C15.4447 9.80706 15.3603 10.0798 15.2893 10.2476L15.2859 10.2556L15.2815 10.2632C14.133 12.2261 12.1185 14.133 11.2532 14.8436C10.9718 15.0897 10.5076 15.4242 10.0226 15.6297C9.54698 15.8312 8.99641 15.9308 8.59662 15.6111C8.23091 15.3187 8.08263 14.9814 8.05437 14.6738C8.0266 14.3716 8.11525 14.1065 8.20999 13.9495L8.24897 13.8849H8.32374C8.36147 13.8849 8.43064 13.8695 8.52965 13.8337C8.62467 13.7993 8.73454 13.7508 8.84823 13.6956C9.07137 13.5873 9.30108 13.4572 9.44703 13.3688L10.8142 12.2521C11.1388 11.9529 11.97 11.1343 12.7096 10.2425C13.4459 9.35474 13.8007 8.54565 13.8838 8.26531L13.9141 8.16306ZM14.1041 8.44895C13.9692 8.82472 13.5979 9.59134 12.9138 10.4162C12.1626 11.322 11.3198 12.1515 10.9907 12.4546L10.9877 12.4573L9.59999 13.5908L9.59207 13.5956C9.44131 13.6872 9.19986 13.8244 8.96345 13.9391C8.84533 13.9965 8.72636 14.0492 8.61939 14.088C8.54748 14.114 8.47411 14.1363 8.40687 14.1474C8.34997 14.2664 8.30126 14.4466 8.31983 14.6487C8.34118 14.8812 8.45211 15.1515 8.76182 15.3991C9.03744 15.6195 9.45705 15.5766 9.91973 15.3806C10.3722 15.1889 10.8135 14.8716 11.0804 14.6379L11.082 14.6365L11.0837 14.6351C11.9363 13.9353 13.9209 12.055 15.0476 10.1332C15.1092 9.9852 15.1825 9.74467 15.204 9.50164C15.2262 9.24902 15.1899 9.02703 15.0677 8.8895C14.9285 8.73288 14.7259 8.62267 14.5196 8.54972C14.3659 8.49536 14.2171 8.46408 14.1041 8.44895Z" fill="black"/>
<path d="M12.4118 18.3405C11.2031 19.6367 10.4566 16.9303 10.2344 15.4151C12.3673 13.9749 14.204 11.7246 14.8557 10.7794C16.1591 11.0195 18.9971 11.7606 19.9213 12.8047C21.0767 14.1099 17.8773 12.7147 18.766 13.1648C19.6547 13.6148 24.2316 18.5205 21.9209 17.8004C20.0724 17.2243 20.7656 17.7554 21.1211 18.2055C21.3665 18.5162 22.1579 19.4657 22.4097 20.0507C22.6171 20.5908 22.9785 21.788 22.7652 22.2561C22.4986 22.8411 21.4766 22.4811 21.0322 22.121C20.6767 21.833 20.6175 22.091 20.6323 22.2561C20.7745 23.9483 18.5883 22.2711 17.4774 21.2209C17.0182 20.7258 16.0999 19.8617 16.0999 20.3658C16.0999 20.8699 15.8333 21.1459 15.7 21.2209C14.1003 21.536 13.0783 19.3306 12.945 18.6105C12.8383 18.0345 12.5451 18.1905 12.4118 18.3405Z" fill="#FD9E46"/>
<path fill-rule="evenodd" clip-rule="evenodd" d="M14.7954 10.6311L14.8795 10.6466C15.5366 10.7676 16.5787 11.0145 17.5742 11.3629C18.0721 11.5372 18.5608 11.7377 18.9849 11.9618C19.4073 12.1851 19.7741 12.4361 20.0206 12.7146C20.1671 12.8801 20.2614 13.0203 20.2951 13.1393C20.3127 13.2015 20.3171 13.2698 20.2911 13.3347C20.2644 13.4016 20.2137 13.4445 20.1607 13.4702C20.0641 13.5169 19.9356 13.5184 19.8177 13.5081C19.6931 13.4972 19.552 13.4699 19.4132 13.4369C19.3873 13.4307 19.3613 13.4243 19.3354 13.4178C19.3361 13.4184 19.3368 13.4189 19.3375 13.4195C19.5463 13.598 19.7914 13.8261 20.0519 14.0836C20.5729 14.5985 21.1595 15.2351 21.6463 15.8358C21.8896 16.1361 22.1092 16.4289 22.2834 16.694C22.4563 16.9571 22.5897 17.2007 22.6544 17.4012C22.6867 17.5012 22.7054 17.6007 22.6966 17.6917C22.6874 17.7873 22.6468 17.8773 22.5611 17.9375C22.4808 17.9938 22.3788 18.011 22.2711 18.0069C22.1619 18.0028 22.0321 17.9763 21.8817 17.9295C21.4204 17.7857 21.1265 17.714 20.9494 17.6914C20.9133 17.6867 20.8842 17.6845 20.8611 17.6838C20.8805 17.7124 20.9064 17.7461 20.9383 17.7846C20.9731 17.8267 21.012 17.8711 21.0532 17.9182C21.0612 17.9273 21.0692 17.9364 21.0774 17.9457C21.1268 18.0023 21.1785 18.062 21.2252 18.1211C21.2536 18.1571 21.2898 18.2023 21.3321 18.2549C21.4692 18.4258 21.6695 18.6754 21.8694 18.944C22.1293 19.2931 22.399 19.6881 22.5319 19.9968L22.533 19.9993L22.5339 20.0018C22.6396 20.2769 22.7841 20.7183 22.8756 21.1522C22.9213 21.3691 22.9545 21.5878 22.962 21.7847C22.9694 21.9784 22.9528 22.1666 22.8862 22.3126C22.7121 22.6948 22.2997 22.7402 21.9421 22.6759C21.5751 22.61 21.188 22.4202 20.9489 22.2265C20.8668 22.1599 20.8142 22.1356 20.7859 22.1285C20.7823 22.1276 20.7794 22.1271 20.7771 22.1267C20.7748 22.1315 20.7717 22.1398 20.7689 22.153C20.7633 22.1795 20.7622 22.2124 20.765 22.2438L20.7651 22.2446C20.7838 22.4672 20.7661 22.6511 20.7056 22.7938C20.6426 22.9424 20.5353 23.0403 20.3955 23.0847C20.2622 23.1271 20.111 23.1174 19.9584 23.0804C19.8043 23.043 19.6372 22.975 19.465 22.8876C18.7798 22.5396 17.9442 21.8469 17.3864 21.3196L17.3832 21.3166L17.3802 21.3134C17.1526 21.0679 16.8146 20.735 16.5372 20.5272C16.3993 20.4239 16.295 20.3663 16.2336 20.3515C16.2333 20.3556 16.2332 20.3604 16.2332 20.3658C16.2332 20.9202 15.9392 21.2408 15.7647 21.3389L15.7462 21.3494L15.7254 21.3534C14.8524 21.5254 14.152 21.0047 13.6682 20.3879C13.1835 19.7699 12.8849 19.0185 12.814 18.6354C12.7623 18.3562 12.6802 18.3384 12.6704 18.337C12.6566 18.3351 12.6334 18.3384 12.6006 18.3567C12.5685 18.3746 12.5365 18.402 12.5108 18.4308L12.5098 18.432L12.5087 18.4332C12.3481 18.6054 12.1867 18.7206 12.0233 18.7769C11.8569 18.8343 11.6956 18.8282 11.5449 18.7693C11.2538 18.6555 11.0209 18.3526 10.8352 17.9949C10.4592 17.2706 10.2143 16.1973 10.1026 15.4349L10.0901 15.3503L10.1605 15.3028C12.2746 13.8753 14.1001 11.6395 14.7464 10.7021L14.7954 10.6311ZM16.2374 20.328C16.2374 20.328 16.2373 20.3281 16.2372 20.3283C16.2373 20.3281 16.2374 20.328 16.2374 20.328ZM16.2109 20.3481C16.2103 20.3482 16.21 20.3482 16.21 20.3482C16.2099 20.3481 16.2102 20.3481 16.2109 20.3481ZM20.7704 22.1263C20.7704 22.1263 20.7706 22.1262 20.7712 22.1262C20.7707 22.1263 20.7704 22.1263 20.7704 22.1263ZM14.9154 10.928C14.2264 11.9073 12.4487 14.0605 10.379 15.4794C10.4944 16.2239 10.7293 17.2107 11.0712 17.8692C11.2509 18.2155 11.4452 18.4409 11.6409 18.5173C11.7336 18.5536 11.8306 18.5581 11.9373 18.5213C12.0467 18.4836 12.1726 18.4001 12.3138 18.2489C12.3547 18.2031 12.4089 18.1553 12.472 18.1201C12.535 18.085 12.6168 18.0571 12.7064 18.0695C12.9032 18.0966 13.0211 18.2888 13.076 18.5857C13.1384 18.9227 13.4174 19.634 13.877 20.2199C14.3326 20.8009 14.9351 21.2226 15.6517 21.0927C15.7529 21.0249 15.9666 20.7946 15.9666 20.3658C15.9666 20.2874 15.9837 20.1984 16.0512 20.137C16.1214 20.0732 16.2094 20.0718 16.2753 20.0845C16.4017 20.1087 16.5527 20.203 16.6957 20.3101C16.991 20.5312 17.34 20.8758 17.5715 21.1252C18.1245 21.6476 18.9357 22.3167 19.5845 22.6462C19.7461 22.7282 19.8932 22.7869 20.0205 22.8178C20.1492 22.849 20.2466 22.849 20.3156 22.8271C20.3781 22.8072 20.4269 22.7667 20.4606 22.6872C20.4968 22.6019 20.5163 22.4682 20.4995 22.2679C20.4949 22.2169 20.4957 22.1559 20.5082 22.0967C20.5202 22.0396 20.5467 21.9675 20.6073 21.9155C20.6749 21.8577 20.7613 21.8444 20.8494 21.8663C20.9317 21.8867 21.0199 21.9381 21.1155 22.0156C21.3208 22.182 21.6669 22.3522 21.9886 22.41C22.3197 22.4695 22.5517 22.4024 22.6441 22.1995C22.6842 22.1115 22.7024 21.9745 22.6956 21.7952C22.6888 21.6192 22.6587 21.417 22.6148 21.2086C22.5273 20.7933 22.3881 20.3674 22.2864 20.1022C22.1671 19.8262 21.9159 19.455 21.6565 19.1065C21.46 18.8425 21.2648 18.5993 21.1277 18.4283C21.0844 18.3745 21.0469 18.3277 21.017 18.2898C20.9748 18.2365 20.9271 18.1812 20.8778 18.1247C20.87 18.1159 20.8623 18.107 20.8545 18.0981C20.8133 18.0511 20.7714 18.0033 20.734 17.958C20.6898 17.9046 20.6473 17.8495 20.6163 17.7972C20.5891 17.7514 20.5533 17.68 20.5621 17.6027C20.5672 17.5577 20.587 17.5149 20.6224 17.4817C20.6552 17.4508 20.6944 17.4346 20.7297 17.4257C20.7977 17.4086 20.8841 17.4108 20.9828 17.4234C21.1845 17.4492 21.4972 17.5271 21.9601 17.6714C22.0986 17.7145 22.2038 17.7342 22.281 17.7371C22.3596 17.74 22.3954 17.7252 22.4093 17.7155C22.4178 17.7095 22.428 17.6993 22.4313 17.6655C22.435 17.6271 22.4278 17.5681 22.401 17.4852C22.3477 17.32 22.2305 17.1009 22.0614 16.8436C21.8937 16.5884 21.68 16.3031 21.4402 16.0071C20.9605 15.4151 20.3807 14.7859 19.8657 14.2769C19.6083 14.0224 19.3681 13.799 19.1655 13.6259C18.9599 13.4502 18.8019 13.3339 18.7064 13.2856C18.6505 13.2573 18.6082 13.235 18.5792 13.2182C18.5652 13.2101 18.5508 13.2014 18.5387 13.1925C18.5331 13.1884 18.5235 13.181 18.5139 13.1708C18.5091 13.1658 18.501 13.1567 18.4935 13.1438C18.4868 13.1322 18.4738 13.1062 18.4746 13.0705C18.4756 13.0277 18.4959 12.9914 18.5239 12.9681C18.5471 12.9488 18.5707 12.9423 18.5815 12.9399C18.6033 12.935 18.6219 12.9366 18.6278 12.9371C18.6438 12.9385 18.6601 12.942 18.6719 12.9448C18.6979 12.9509 18.7328 12.961 18.772 12.9728C18.8053 12.9828 18.8435 12.9945 18.8855 13.0075C19.0462 13.057 19.2623 13.1236 19.4741 13.174C19.6075 13.2057 19.7344 13.2297 19.8406 13.239C19.9487 13.2485 20.0131 13.2403 20.0421 13.2282C20.0415 13.2245 20.0405 13.2198 20.0388 13.2137C20.0228 13.1574 19.9644 13.0556 19.8221 12.8949C19.6065 12.6513 19.2719 12.4181 18.8615 12.2012C18.4528 11.9853 17.9773 11.7897 17.4872 11.6182C16.548 11.2894 15.5646 11.052 14.9154 10.928ZM20.0428 13.2377C20.0427 13.2377 20.0428 13.2376 20.0428 13.2374C20.0428 13.2376 20.0428 13.2377 20.0428 13.2377Z" fill="black"/>
</svg>
