<svg width="125" height="49" viewBox="0 0 125 49" fill="none" xmlns="http://www.w3.org/2000/svg">
<g filter="url(#filter0_d_1175_8444)">
<rect width="125" height="46" rx="23" fill="#514E58"/>
<path d="M44.86 28C44.392 28 43.924 27.934 43.456 27.802C43 27.67 42.58 27.478 42.196 27.226C41.644 26.878 41.206 26.404 40.882 25.804C40.558 25.168 40.414 24.454 40.45 23.662C40.474 23.422 40.576 23.218 40.756 23.05C40.936 22.882 41.152 22.804 41.404 22.816C41.656 22.84 41.866 22.942 42.034 23.122C42.202 23.302 42.274 23.518 42.25 23.77C42.202 24.622 42.514 25.276 43.186 25.732C43.594 25.996 44.068 26.152 44.608 26.2C45.148 26.236 45.628 26.152 46.048 25.948C46.48 25.72 46.714 25.396 46.75 24.976C46.762 24.652 46.702 24.352 46.57 24.076C46.45 23.8 46.264 23.536 46.012 23.284C45.76 23.02 45.448 22.756 45.076 22.492C44.716 22.228 44.314 21.946 43.87 21.646C43.498 21.406 43.126 21.16 42.754 20.908C42.394 20.644 42.07 20.368 41.782 20.08C41.014 19.336 40.648 18.538 40.684 17.686C40.72 17.062 40.924 16.51 41.296 16.03C41.632 15.61 42.07 15.262 42.61 14.986C42.958 14.806 43.324 14.68 43.708 14.608C44.092 14.524 44.47 14.488 44.842 14.5C45.226 14.512 45.592 14.572 45.94 14.68C46.3 14.788 46.624 14.938 46.912 15.13C47.416 15.49 47.794 15.958 48.046 16.534C48.286 17.146 48.37 17.836 48.298 18.604C48.274 18.844 48.166 19.042 47.974 19.198C47.782 19.354 47.56 19.42 47.308 19.396C47.068 19.372 46.864 19.264 46.696 19.072C46.54 18.88 46.474 18.664 46.498 18.424C46.582 17.56 46.378 16.96 45.886 16.624C45.574 16.408 45.184 16.3 44.716 16.3C44.26 16.3 43.822 16.402 43.402 16.606C43.33 16.642 43.246 16.69 43.15 16.75C43.054 16.81 42.958 16.888 42.862 16.984C42.766 17.08 42.682 17.194 42.61 17.326C42.538 17.458 42.496 17.602 42.484 17.758C42.472 17.962 42.532 18.166 42.664 18.37C42.796 18.562 42.97 18.76 43.186 18.964C43.414 19.156 43.672 19.354 43.96 19.558C44.248 19.75 44.548 19.948 44.86 20.152C45.292 20.428 45.718 20.722 46.138 21.034C46.57 21.334 46.96 21.67 47.308 22.042C47.728 22.486 48.034 22.93 48.226 23.374C48.466 23.926 48.568 24.49 48.532 25.066C48.52 25.63 48.346 26.134 48.01 26.578C47.734 26.962 47.35 27.286 46.858 27.55C46.258 27.85 45.592 28 44.86 28ZM53.5172 28.072C53.3852 28.072 53.2532 28.066 53.1212 28.054C53.0012 28.042 52.8752 28.024 52.7432 28C51.8312 27.808 51.0812 27.376 50.4932 26.704C49.8692 25.972 49.5392 25.048 49.5032 23.932V23.806C49.5032 23.374 49.5392 22.978 49.6112 22.618C49.6832 22.258 49.7792 21.94 49.8992 21.664C50.0192 21.388 50.1452 21.142 50.2772 20.926C50.4212 20.71 50.5652 20.53 50.7092 20.386C51.0572 20.002 51.4532 19.696 51.8972 19.468C52.3532 19.24 52.8332 19.108 53.3372 19.072C54.0812 19.012 54.7412 19.18 55.3172 19.576C55.6292 19.792 55.8812 20.062 56.0732 20.386C56.2652 20.698 56.3912 21.046 56.4512 21.43C56.5112 21.886 56.4332 22.336 56.2172 22.78C56.1212 23.008 55.9952 23.23 55.8392 23.446C55.6952 23.65 55.5212 23.836 55.3172 24.004C55.1732 24.136 54.9872 24.274 54.7592 24.418C54.5312 24.55 54.2612 24.67 53.9492 24.778C53.6372 24.886 53.2772 24.97 52.8692 25.03C52.4732 25.078 52.0292 25.072 51.5372 25.012C51.6452 25.24 51.7712 25.432 51.9152 25.588C52.0592 25.732 52.2032 25.852 52.3472 25.948C52.5032 26.032 52.6472 26.098 52.7792 26.146C52.9112 26.182 53.0132 26.206 53.0852 26.218C53.5052 26.302 53.8952 26.278 54.2552 26.146C54.6152 26.002 54.8552 25.78 54.9752 25.48C55.0712 25.24 55.2332 25.078 55.4612 24.994C55.6892 24.898 55.9172 24.898 56.1452 24.994C56.3852 25.09 56.5472 25.252 56.6312 25.48C56.7272 25.696 56.7272 25.924 56.6312 26.164C56.3432 26.896 55.7972 27.43 54.9932 27.766C54.5252 27.97 54.0332 28.072 53.5172 28.072ZM51.3572 23.158C51.7412 23.23 52.0832 23.26 52.3832 23.248C52.6952 23.236 52.9592 23.2 53.1752 23.14C53.4032 23.068 53.5952 22.99 53.7512 22.906C53.9072 22.81 54.0332 22.72 54.1292 22.636C54.3572 22.444 54.5072 22.258 54.5792 22.078C54.6512 21.886 54.6752 21.754 54.6512 21.682C54.6272 21.466 54.5552 21.304 54.4352 21.196C54.3272 21.088 54.2072 21.01 54.0752 20.962C53.9432 20.902 53.8172 20.872 53.6972 20.872C53.5772 20.872 53.4932 20.872 53.4452 20.872C52.8932 20.908 52.4252 21.148 52.0412 21.592C51.6812 21.988 51.4532 22.51 51.3572 23.158ZM63.9971 28.018H63.9431C63.6911 27.994 63.4811 27.892 63.3131 27.712C63.1451 27.52 63.0731 27.304 63.0971 27.064C63.1571 26.164 63.1811 25.36 63.1691 24.652C63.1691 23.944 63.1331 23.332 63.0611 22.816C62.9891 22.264 62.8931 21.856 62.7731 21.592C62.6531 21.328 62.5451 21.142 62.4491 21.034C62.3171 20.89 62.1431 20.818 61.9271 20.818C61.7591 20.818 61.6031 20.866 61.4591 20.962C61.3271 21.046 61.2011 21.16 61.0811 21.304C60.9731 21.436 60.8711 21.592 60.7751 21.772C60.6791 21.94 60.5951 22.108 60.5231 22.276C60.2831 22.852 60.0791 23.554 59.9111 24.382C59.7551 25.21 59.6471 26.14 59.5871 27.172C59.5631 27.412 59.4611 27.616 59.2811 27.784C59.1011 27.952 58.8911 28.03 58.6511 28.018C58.4111 28.006 58.2011 27.91 58.0211 27.73C57.8531 27.55 57.7751 27.34 57.7871 27.1C57.7991 26.596 57.8111 26.122 57.8231 25.678C57.8351 25.222 57.8531 24.772 57.8771 24.328C57.9011 23.608 57.9191 22.894 57.9311 22.186C57.9551 21.478 57.9731 20.716 57.9851 19.9C57.9851 19.66 58.0751 19.456 58.2551 19.288C58.4351 19.108 58.6511 19.018 58.9031 19.018C59.1431 19.018 59.3471 19.108 59.5151 19.288C59.6951 19.468 59.7851 19.684 59.7851 19.936V20.062C60.1451 19.642 60.5111 19.366 60.8831 19.234C61.2671 19.09 61.6151 19.018 61.9271 19.018C62.2871 19.018 62.6231 19.084 62.9351 19.216C63.2471 19.348 63.5231 19.546 63.7631 19.81C64.2911 20.374 64.6451 21.25 64.8251 22.438C65.0051 23.614 65.0291 25.192 64.8971 27.172C64.8731 27.412 64.7771 27.616 64.6091 27.784C64.4411 27.94 64.2371 28.018 63.9971 28.018ZM71.6932 28.018C70.9732 28.018 70.2772 27.886 69.6052 27.622C68.9452 27.346 68.3392 26.944 67.7872 26.416C67.4752 26.128 67.1992 25.81 66.9592 25.462C66.7192 25.102 66.5152 24.736 66.3472 24.364C66.1792 23.992 66.0532 23.614 65.9692 23.23C65.8852 22.846 65.8552 22.474 65.8792 22.114C65.9272 21.358 66.1192 20.722 66.4552 20.206C66.7912 19.678 67.2472 19.318 67.8232 19.126C68.1472 19.018 68.4892 18.982 68.8492 19.018C69.2092 19.042 69.5692 19.132 69.9292 19.288C70.1332 19.384 70.3372 19.504 70.5412 19.648C70.7452 19.78 70.9492 19.936 71.1532 20.116C71.1532 18.1 71.1892 16.216 71.2612 14.464C71.2852 14.224 71.3872 14.02 71.5672 13.852C71.7472 13.684 71.9632 13.606 72.2152 13.618C72.4552 13.63 72.6592 13.726 72.8272 13.906C72.9952 14.086 73.0732 14.302 73.0612 14.554C72.9772 16.318 72.9352 18.226 72.9352 20.278C72.9352 22.33 72.9832 24.592 73.0792 27.064C73.0912 27.304 73.0192 27.514 72.8632 27.694C72.7072 27.862 72.5092 27.958 72.2692 27.982C72.1732 27.994 72.0772 28 71.9812 28C71.8852 28.012 71.7892 28.018 71.6932 28.018ZM71.1532 22.348C70.8892 22.348 70.6612 22.234 70.4692 22.006C70.0252 21.466 69.6172 21.124 69.2452 20.98C68.8732 20.824 68.5852 20.776 68.3812 20.836C68.1772 20.896 68.0152 21.052 67.8952 21.304C67.7752 21.544 67.7032 21.844 67.6792 22.204C67.6552 22.66 67.7692 23.158 68.0212 23.698C68.2732 24.238 68.6092 24.712 69.0292 25.12C69.2692 25.348 69.5692 25.57 69.9292 25.786C70.3012 25.99 70.7392 26.122 71.2432 26.182C71.2192 25.51 71.2012 24.856 71.1892 24.22C71.1772 23.584 71.1652 22.96 71.1532 22.348ZM85.6666 28C85.3786 28 85.0666 27.97 84.7306 27.91C84.4306 27.862 84.1366 27.79 83.8486 27.694C83.5726 27.586 83.3026 27.46 83.0386 27.316C82.4746 26.992 81.9886 26.578 81.5806 26.074C81.1486 25.546 80.8126 24.928 80.5726 24.22C80.3326 23.476 80.2126 22.672 80.2126 21.808C80.2006 21.328 80.2246 20.86 80.2846 20.404C80.3446 19.936 80.4346 19.492 80.5546 19.072C80.7946 18.244 81.1246 17.5 81.5446 16.84C81.7606 16.528 81.9886 16.24 82.2286 15.976C82.4806 15.712 82.7446 15.478 83.0206 15.274C83.6206 14.854 84.2386 14.602 84.8746 14.518C85.3906 14.458 85.8706 14.506 86.3146 14.662C86.7706 14.794 87.2086 15.052 87.6286 15.436C88.4326 16.144 89.0146 17.23 89.3746 18.694C89.4346 18.934 89.3986 19.162 89.2666 19.378C89.1466 19.594 88.9666 19.732 88.7266 19.792C88.4866 19.852 88.2586 19.816 88.0426 19.684C87.8266 19.552 87.6886 19.366 87.6286 19.126C87.4966 18.586 87.3286 18.118 87.1246 17.722C86.9206 17.326 86.6866 17.008 86.4226 16.768C86.0146 16.396 85.5706 16.246 85.0906 16.318C84.7306 16.366 84.3706 16.522 84.0106 16.786C83.6626 17.05 83.3446 17.398 83.0566 17.83C82.7086 18.37 82.4446 18.976 82.2646 19.648C82.0846 20.32 82.0006 21.034 82.0126 21.79C82.0126 22.678 82.1386 23.398 82.3906 23.95C82.6426 24.502 82.9366 24.94 83.2726 25.264C83.6086 25.576 83.9446 25.792 84.2806 25.912C84.6166 26.032 84.8746 26.11 85.0546 26.146C85.3666 26.206 85.6906 26.218 86.0266 26.182C86.3626 26.146 86.6806 26.062 86.9806 25.93C87.2926 25.798 87.5686 25.618 87.8086 25.39C88.0486 25.15 88.2346 24.862 88.3666 24.526C88.4506 24.286 88.6006 24.118 88.8166 24.022C89.0446 23.914 89.2786 23.908 89.5186 24.004C89.7586 24.088 89.9266 24.244 90.0226 24.472C90.1306 24.688 90.1366 24.916 90.0406 25.156C89.8606 25.66 89.5846 26.116 89.2126 26.524C88.8406 26.932 88.3966 27.256 87.8806 27.496C87.1726 27.832 86.4346 28 85.6666 28ZM94.5863 28.072C94.5023 28.072 94.4423 28.066 94.4063 28.054C93.8543 28.03 93.3623 27.886 92.9303 27.622C92.5103 27.382 92.1563 27.058 91.8683 26.65C91.3523 25.906 91.0823 25.006 91.0583 23.95C91.0463 23.374 91.1183 22.822 91.2743 22.294C91.4303 21.754 91.6583 21.262 91.9583 20.818C92.2943 20.338 92.7023 19.942 93.1823 19.63C93.4583 19.474 93.7403 19.348 94.0283 19.252C94.3163 19.156 94.6223 19.096 94.9463 19.072C95.1983 19.048 95.4143 19.12 95.5943 19.288C95.7863 19.444 95.8943 19.648 95.9183 19.9C95.9423 20.2 95.8463 20.446 95.6303 20.638C95.7983 20.578 95.9783 20.578 96.1703 20.638C96.6143 20.794 96.9863 21.016 97.2863 21.304C97.5743 21.604 97.8023 21.94 97.9703 22.312C98.2703 23.02 98.3363 23.8 98.1683 24.652C98.0843 25.108 97.9403 25.54 97.7363 25.948C97.5443 26.344 97.2983 26.698 96.9983 27.01C96.6503 27.358 96.2723 27.622 95.8643 27.802C95.4443 27.982 95.0183 28.072 94.5863 28.072ZM95.0903 20.872C94.6943 20.908 94.3523 21.022 94.0643 21.214C93.7883 21.406 93.5603 21.646 93.3803 21.934C93.2003 22.222 93.0683 22.54 92.9843 22.888C92.9003 23.236 92.8583 23.584 92.8583 23.932C92.8583 24.256 92.9003 24.568 92.9843 24.868C93.0683 25.156 93.1883 25.402 93.3443 25.606C93.6323 26.014 94.0163 26.236 94.4963 26.272H94.5683C94.8083 26.272 95.0303 26.218 95.2343 26.11C95.4383 25.99 95.6183 25.84 95.7743 25.66C95.9423 25.48 96.0743 25.276 96.1703 25.048C96.2783 24.808 96.3563 24.562 96.4043 24.31C96.5003 23.83 96.4703 23.398 96.3143 23.014C96.1703 22.678 95.9363 22.456 95.6123 22.348C95.3723 22.276 95.1923 22.132 95.0723 21.916C94.9643 21.688 94.9523 21.454 95.0363 21.214C95.0603 21.154 95.0903 21.094 95.1263 21.034C95.1623 20.962 95.2103 20.902 95.2703 20.854C95.1863 20.854 95.1263 20.86 95.0903 20.872ZM100.115 28.018H100.097C99.8445 28.006 99.6285 27.91 99.4485 27.73C99.2805 27.55 99.2025 27.34 99.2145 27.1L99.2865 24.328C99.3105 23.608 99.3345 22.894 99.3585 22.186C99.3825 21.478 99.3945 20.722 99.3945 19.918C99.4065 19.666 99.4965 19.456 99.6645 19.288C99.8445 19.108 100.061 19.018 100.313 19.018C100.565 19.018 100.775 19.108 100.943 19.288C101.123 19.468 101.207 19.678 101.195 19.918C101.195 20.746 101.183 21.52 101.159 22.24C101.135 22.948 101.111 23.668 101.087 24.4L101.015 27.136C101.003 27.376 100.907 27.586 100.727 27.766C100.559 27.934 100.355 28.018 100.115 28.018ZM101.249 16.516C101.249 16.768 101.159 16.984 100.979 17.164C100.811 17.332 100.601 17.416 100.349 17.416C100.097 17.416 99.8805 17.332 99.7005 17.164C99.5325 16.984 99.4485 16.768 99.4485 16.516C99.4485 16.264 99.5325 16.054 99.7005 15.886C99.8805 15.706 100.097 15.616 100.349 15.616C100.601 15.616 100.811 15.706 100.979 15.886C101.159 16.054 101.249 16.264 101.249 16.516ZM108.364 28.018H108.31C108.058 27.994 107.848 27.892 107.68 27.712C107.512 27.52 107.44 27.304 107.464 27.064C107.524 26.164 107.548 25.36 107.536 24.652C107.536 23.944 107.5 23.332 107.428 22.816C107.356 22.264 107.26 21.856 107.14 21.592C107.02 21.328 106.912 21.142 106.816 21.034C106.684 20.89 106.51 20.818 106.294 20.818C106.126 20.818 105.97 20.866 105.826 20.962C105.694 21.046 105.568 21.16 105.448 21.304C105.34 21.436 105.238 21.592 105.142 21.772C105.046 21.94 104.962 22.108 104.89 22.276C104.65 22.852 104.446 23.554 104.278 24.382C104.122 25.21 104.014 26.14 103.954 27.172C103.93 27.412 103.828 27.616 103.648 27.784C103.468 27.952 103.258 28.03 103.018 28.018C102.778 28.006 102.568 27.91 102.388 27.73C102.22 27.55 102.142 27.34 102.154 27.1C102.166 26.596 102.178 26.122 102.19 25.678C102.202 25.222 102.22 24.772 102.244 24.328C102.268 23.608 102.286 22.894 102.298 22.186C102.322 21.478 102.34 20.716 102.352 19.9C102.352 19.66 102.442 19.456 102.622 19.288C102.802 19.108 103.018 19.018 103.27 19.018C103.51 19.018 103.714 19.108 103.882 19.288C104.062 19.468 104.152 19.684 104.152 19.936V20.062C104.512 19.642 104.878 19.366 105.25 19.234C105.634 19.09 105.982 19.018 106.294 19.018C106.654 19.018 106.99 19.084 107.302 19.216C107.614 19.348 107.89 19.546 108.13 19.81C108.658 20.374 109.012 21.25 109.192 22.438C109.372 23.614 109.396 25.192 109.264 27.172C109.24 27.412 109.144 27.616 108.976 27.784C108.808 27.94 108.604 28.018 108.364 28.018Z" fill="#FDFDFD"/>
</g>
<path d="M19.8744 24.3173C21.0237 25.2392 21.7419 24.8935 22.1729 24.6054C23.0348 24.0292 25.046 22.4735 26.1952 20.8601C27.6317 18.8434 26.7698 18.8434 24.7586 16.2506C23.1497 14.1763 20.4491 12.6974 19.2998 12.2172C16.5417 10.6039 14.7029 11.1609 14.1283 11.641C12.5194 13.0239 13.2664 15.8664 13.841 17.1149C15.2775 21.1482 18.4379 23.1649 19.8744 24.3173Z" fill="white"/>
<path fill-rule="evenodd" clip-rule="evenodd" d="M14.221 11.7511C13.4664 12.4003 13.2529 13.4011 13.3093 14.4204C13.3655 15.4378 13.6899 16.4427 13.9715 17.0545L13.9741 17.0604L13.9763 17.0664C15.2255 20.5738 17.7903 22.5356 19.3755 23.748C19.5919 23.9136 19.7901 24.0652 19.9642 24.2048C20.5204 24.651 20.9555 24.7774 21.2903 24.7711C21.6266 24.7646 21.8861 24.624 22.0932 24.4855C22.9498 23.9129 24.9441 22.3687 26.0783 20.7764C26.436 20.2743 26.6386 19.9134 26.7212 19.6152C26.8008 19.3279 26.7702 19.0944 26.6413 18.8359C26.5071 18.5667 26.2684 18.2742 25.9249 17.8753C25.8748 17.8171 25.8227 17.7569 25.7686 17.6945C25.4555 17.3328 25.0764 16.8949 24.6453 16.339C23.058 14.2926 20.383 12.8258 19.2446 12.3502L19.2357 12.3465L19.2275 12.3417C16.5044 10.7488 14.7357 11.3219 14.221 11.7511ZM19.364 12.088C16.5765 10.4608 14.6713 10.9998 14.0364 11.5304L14.0364 11.5304L14.0348 11.5317C13.1812 12.2654 12.9639 13.3769 13.0224 14.4363C13.0809 15.4947 13.4155 16.5322 13.7079 17.1694C14.9887 20.7593 17.6226 22.7715 19.2052 23.9806C19.4197 24.1444 19.6148 24.2935 19.7847 24.4298C20.3777 24.9055 20.8763 25.0671 21.2958 25.0591C21.7136 25.0511 22.0287 24.8749 22.2526 24.7252C23.1198 24.1455 25.1479 22.5782 26.3121 20.9439C26.6727 20.4377 26.9011 20.0422 26.998 19.6923C27.098 19.3313 27.0567 19.0247 26.8983 18.707C26.7452 18.4 26.4811 18.0803 26.1423 17.6869C26.0917 17.6282 26.0392 17.5676 25.985 17.5049C25.6719 17.1432 25.2981 16.7115 24.8721 16.1622C23.2456 14.0653 20.529 12.5765 19.364 12.088Z" fill="black"/>
<path fill-rule="evenodd" clip-rule="evenodd" d="M22.7435 16.306C21.334 15.0582 19.8666 14.0847 18.9487 13.5715L19.0775 13.3351C20.011 13.857 21.4942 14.8413 22.9189 16.1026C24.3419 17.3624 25.7181 18.9084 26.4228 20.5556L26.1782 20.663C25.4965 19.0698 24.1547 17.5553 22.7435 16.306Z" fill="black"/>
<path d="M14.4362 11.518C12.3389 12.8862 13.2365 16.0187 13.9475 17.4138C17.4667 17.4138 18.9686 13.9334 19.2797 12.1931C16.8624 11.077 15.4138 10.9779 14.4362 11.518Z" fill="#446EDC"/>
<path fill-rule="evenodd" clip-rule="evenodd" d="M14.5043 11.6342C13.5142 12.2825 13.222 13.3488 13.2719 14.4496C13.3201 15.5148 13.6893 16.5882 14.029 17.2782C15.6961 17.2518 16.8903 16.4186 17.7123 15.372C18.5172 14.3473 18.9602 13.123 19.129 12.2722C16.7794 11.2022 15.41 11.1364 14.5043 11.6342ZM14.3724 11.3995C15.4097 10.8264 16.9122 10.9516 19.335 12.0703L19.4293 12.1138L19.4108 12.2172C19.2522 13.1047 18.7915 14.4317 17.921 15.5401C17.0478 16.6519 15.757 17.5489 13.9474 17.5489H13.8662L13.829 17.4758C13.4674 16.7662 13.0578 15.6151 13.0056 14.462C12.9533 13.3073 13.2601 12.1247 14.364 11.4045L14.3681 11.4018L14.3724 11.3995Z" fill="black"/>
<path fill-rule="evenodd" clip-rule="evenodd" d="M22.4613 24.4642C18.5227 22.3609 15.942 18.8307 15.2057 17.3392L15.4442 17.2184C16.1594 18.6674 18.7036 22.1522 22.5856 24.2254L22.4613 24.4642Z" fill="black"/>
<path d="M23.5899 19.2591C23.5899 20.4771 22.5355 21.4644 21.2348 21.4644C19.9342 21.4644 18.8798 20.4771 18.8798 19.2591C18.8798 18.0411 19.9342 17.0538 21.2348 17.0538C22.5355 17.0538 23.5899 18.0411 23.5899 19.2591Z" fill="#494949"/>
<path fill-rule="evenodd" clip-rule="evenodd" d="M21.2348 21.1944C22.4083 21.1944 23.3233 20.3084 23.3233 19.2591C23.3233 18.2098 22.4083 17.3238 21.2348 17.3238C20.0613 17.3238 19.1464 18.2098 19.1464 19.2591C19.1464 20.3084 20.0613 21.1944 21.2348 21.1944ZM21.2348 21.4644C22.5355 21.4644 23.5899 20.4771 23.5899 19.2591C23.5899 18.0411 22.5355 17.0538 21.2348 17.0538C19.9342 17.0538 18.8798 18.0411 18.8798 19.2591C18.8798 20.4771 19.9342 21.4644 21.2348 21.4644Z" fill="black"/>
<path d="M22.9678 19.2591C22.9678 20.1788 22.172 20.9243 21.1904 20.9243C20.2087 20.9243 19.413 20.1788 19.413 19.2591C19.413 18.3394 20.2087 17.5939 21.1904 17.5939C22.172 17.5939 22.9678 18.3394 22.9678 19.2591Z" fill="#446EDC"/>
<path fill-rule="evenodd" clip-rule="evenodd" d="M21.1904 20.6543C22.0447 20.6543 22.7012 20.0102 22.7012 19.2591C22.7012 18.508 22.0447 17.8639 21.1904 17.8639C20.336 17.8639 19.6796 18.508 19.6796 19.2591C19.6796 20.0102 20.336 20.6543 21.1904 20.6543ZM21.1904 20.9243C22.172 20.9243 22.9678 20.1788 22.9678 19.2591C22.9678 18.3394 22.172 17.5939 21.1904 17.5939C20.2087 17.5939 19.413 18.3394 19.413 19.2591C19.413 20.1788 20.2087 20.9243 21.1904 20.9243Z" fill="black"/>
<path d="M18.9242 28.9355C15.7249 26.5591 15.5767 22.4846 15.9026 20.7443C16.8624 22.0765 19.5315 24.0898 20.746 24.9299C20.7016 25.0949 20.515 25.587 20.124 26.2351C19.6352 27.0452 21.5459 28.4404 22.0791 28.9355C22.6123 29.4305 22.9234 31.9059 18.9242 28.9355Z" fill="#00408A"/>
<path fill-rule="evenodd" clip-rule="evenodd" d="M15.8289 20.413L16.0103 20.6647C16.4791 21.3154 17.3741 22.1423 18.313 22.9169C19.2487 23.6891 20.2166 24.4002 20.8212 24.8184L20.8996 24.8726L20.8747 24.9654C20.826 25.146 20.6333 25.6499 20.2377 26.3055C20.1493 26.452 20.1589 26.6378 20.2686 26.8711C20.3782 27.1041 20.5763 27.3576 20.8146 27.6101C21.1419 27.9568 21.5194 28.2772 21.8165 28.5294C21.9565 28.6482 22.0786 28.7518 22.1692 28.8359C22.3308 28.986 22.4601 29.2648 22.505 29.54C22.5496 29.8131 22.5186 30.1369 22.2882 30.3374C22.0556 30.5398 21.6755 30.5688 21.137 30.3862C20.593 30.2019 19.8496 29.7903 18.8454 29.0443C17.2155 27.8337 16.3645 26.1912 15.9625 24.6355C15.561 23.0817 15.6052 21.6077 15.7716 20.7191L15.8289 20.413ZM15.9855 21.0711C15.8696 21.9376 15.8725 23.221 16.2204 24.5672C16.6108 26.0779 17.4336 27.6608 19.003 28.8266C19.9984 29.5658 20.7158 29.9587 21.2216 30.1302C21.7329 30.3035 21.9915 30.2396 22.1144 30.1326C22.2395 30.0237 22.2807 29.8215 22.242 29.584C22.2036 29.3487 22.094 29.1324 21.989 29.035C21.9124 28.9639 21.8002 28.8685 21.6674 28.7557C21.366 28.4995 20.9586 28.1534 20.6219 27.7967C20.377 27.5372 20.1558 27.2591 20.0279 26.9872C19.9002 26.7156 19.8542 26.4231 20.0102 26.1647C20.3381 25.6213 20.5177 25.1933 20.5892 24.9847C19.9762 24.5571 19.046 23.87 18.1446 23.1263C17.3159 22.4425 16.5027 21.7036 15.9855 21.0711Z" fill="black"/>
<path d="M30.5843 17.0206C28.348 14.156 24.3149 13.8495 22.5779 14.0543C23.8626 14.9409 25.7588 17.332 26.5463 18.4168C26.7115 18.3857 27.2062 18.2462 27.8631 17.9373C28.6843 17.5511 29.996 19.2608 30.4669 19.7426C30.9378 20.2244 33.3797 20.6013 30.5843 17.0206Z" fill="#00408A"/>
<path fill-rule="evenodd" clip-rule="evenodd" d="M22.2074 13.9621L22.5028 14.1659C23.1301 14.5988 23.9159 15.4068 24.6484 16.2504C25.3786 17.0913 26.0472 17.9571 26.4389 18.4968L26.4885 18.565L26.5707 18.5495C26.7495 18.5159 27.255 18.3721 27.9193 18.0597C28.0741 17.9869 28.2658 18.0058 28.4949 18.1115C28.723 18.2169 28.9671 18.3993 29.208 18.6155C29.5392 18.9128 29.8417 19.2515 30.0804 19.5187C30.1932 19.6449 30.2917 19.7552 30.3722 19.8376C30.5158 19.9845 30.7859 20.1068 31.0528 20.1568C31.3163 20.2062 31.6325 20.1952 31.8399 20.0051C32.0601 19.8034 32.1004 19.4586 31.9375 18.9802C31.7734 18.4981 31.391 17.8361 30.6889 16.9368C29.5475 15.4748 27.9512 14.6699 26.4284 14.256C24.9061 13.8422 23.4466 13.8159 22.5625 13.9202L22.2074 13.9621ZM22.9403 14.157C23.8048 14.1 25.0583 14.1631 26.3593 14.5168C27.8464 14.921 29.3848 15.7017 30.4798 17.1043C31.1754 17.9953 31.536 18.629 31.6855 19.0682C31.8362 19.5112 31.7607 19.7135 31.661 19.8049C31.5485 19.908 31.3407 19.9362 31.1013 19.8913C30.8652 19.847 30.6535 19.7416 30.5617 19.6476C30.4945 19.5789 30.4045 19.4783 30.2979 19.3591C30.0551 19.0876 29.7261 18.7198 29.3848 18.4134C29.1362 18.1902 28.8689 17.9875 28.6055 17.8658C28.3429 17.7446 28.0627 17.6945 27.807 17.8148C27.2461 18.0786 26.8088 18.2154 26.6022 18.2662C26.2011 17.7182 25.5536 16.8839 24.8486 16.072C24.2189 15.3468 23.5367 14.6318 22.9403 14.157Z" fill="black"/>
<path d="M21.6792 26.5051C21.0038 25.965 21.1608 25.2899 21.3237 25.0199C21.5726 25.0199 22.2272 24.6599 22.5235 24.4798L23.901 23.3547C24.2268 23.0546 25.0652 22.2295 25.8117 21.3294C26.5582 20.4293 26.9226 19.6041 27.0114 19.3041C27.2632 19.3191 27.8468 19.4391 28.1668 19.7992C28.4867 20.1592 28.3001 20.8793 28.1668 21.1944C27.0292 23.1386 25.0267 25.0349 24.1676 25.74C23.6196 26.2201 22.3546 27.0452 21.6792 26.5051Z" fill="#B63030"/>
<path fill-rule="evenodd" clip-rule="evenodd" d="M26.9141 19.1631L27.0193 19.1693C27.157 19.1775 27.378 19.2136 27.6075 19.2948C27.836 19.3756 28.0851 19.5054 28.2659 19.7089C28.4636 19.9314 28.4939 20.2495 28.4695 20.5257C28.4447 20.8071 28.3603 21.0798 28.2893 21.2476L28.2859 21.2556L28.2815 21.2632C27.133 23.2261 25.1185 25.133 24.2532 25.8436C23.9718 26.0897 23.5076 26.4242 23.0226 26.6297C22.547 26.8312 21.9964 26.9308 21.5966 26.6111C21.2309 26.3187 21.0826 25.9814 21.0544 25.6738C21.0266 25.3716 21.1152 25.1065 21.21 24.9495L21.249 24.8849H21.3237C21.3615 24.8849 21.4306 24.8695 21.5296 24.8337C21.6247 24.7993 21.7345 24.7508 21.8482 24.6956C22.0714 24.5873 22.3011 24.4572 22.447 24.3688L23.8142 23.2521C24.1388 22.9529 24.97 22.1343 25.7096 21.2425C26.4459 20.3547 26.8007 19.5457 26.8838 19.2653L26.9141 19.1631ZM27.1041 19.4489C26.9692 19.8247 26.5979 20.5913 25.9138 21.4162C25.1626 22.322 24.3198 23.1515 23.9907 23.4546L23.9877 23.4573L22.6 24.5908L22.5921 24.5956C22.4413 24.6872 22.1999 24.8244 21.9634 24.9391C21.8453 24.9965 21.7264 25.0492 21.6194 25.088C21.5475 25.114 21.4741 25.1363 21.4069 25.1474C21.35 25.2664 21.3013 25.4466 21.3198 25.6487C21.3412 25.8812 21.4521 26.1515 21.7618 26.3991C22.0374 26.6195 22.457 26.5766 22.9197 26.3806C23.3722 26.1889 23.8135 25.8716 24.0804 25.6379L24.082 25.6365L24.0837 25.6351C24.9363 24.9353 26.9209 23.055 28.0476 21.1332C28.1092 20.9852 28.1825 20.7447 28.204 20.5016C28.2262 20.249 28.1899 20.027 28.0677 19.8895C27.9285 19.7329 27.7259 19.6227 27.5196 19.5497C27.3659 19.4954 27.2171 19.4641 27.1041 19.4489Z" fill="black"/>
<path d="M25.4118 29.3405C24.2031 30.6367 23.4566 27.9303 23.2344 26.4151C25.3673 24.9749 27.204 22.7246 27.8557 21.7794C29.1591 22.0195 31.9971 22.7606 32.9213 23.8047C34.0767 25.1099 30.8773 23.7147 31.766 24.1648C32.6547 24.6148 37.2316 29.5205 34.9209 28.8004C33.0724 28.2243 33.7656 28.7554 34.1211 29.2055C34.3665 29.5162 35.1579 30.4657 35.4097 31.0507C35.6171 31.5908 35.9785 32.788 35.7652 33.2561C35.4986 33.8411 34.4766 33.4811 34.0322 33.121C33.6767 32.833 33.6175 33.091 33.6323 33.2561C33.7745 34.9483 31.5883 33.2711 30.4774 32.2209C30.0182 31.7258 29.0999 30.8617 29.0999 31.3658C29.0999 31.8699 28.8333 32.1459 28.7 32.2209C27.1003 32.536 26.0783 30.3306 25.945 29.6105C25.8383 29.0345 25.5451 29.1905 25.4118 29.3405Z" fill="#FD9E46"/>
<path fill-rule="evenodd" clip-rule="evenodd" d="M27.7954 21.6311L27.8795 21.6466C28.5366 21.7676 29.5787 22.0145 30.5742 22.3629C31.0721 22.5372 31.5608 22.7377 31.9849 22.9618C32.4073 23.1851 32.7741 23.4361 33.0206 23.7146C33.1671 23.8801 33.2614 24.0203 33.2951 24.1393C33.3127 24.2015 33.3171 24.2698 33.2911 24.3347C33.2644 24.4016 33.2137 24.4445 33.1607 24.4702C33.0641 24.5169 32.9356 24.5184 32.8177 24.5081C32.6931 24.4972 32.552 24.4699 32.4132 24.4369C32.3873 24.4307 32.3613 24.4243 32.3354 24.4178C32.3361 24.4184 32.3368 24.4189 32.3375 24.4195C32.5463 24.598 32.7914 24.8261 33.0519 25.0836C33.5729 25.5985 34.1595 26.2351 34.6463 26.8358C34.8896 27.1361 35.1092 27.4289 35.2834 27.694C35.4563 27.9571 35.5897 28.2007 35.6544 28.4012C35.6867 28.5012 35.7054 28.6007 35.6966 28.6917C35.6874 28.7873 35.6468 28.8773 35.5611 28.9375C35.4808 28.9938 35.3788 29.011 35.2711 29.0069C35.1619 29.0028 35.0321 28.9763 34.8817 28.9295C34.4204 28.7857 34.1265 28.714 33.9494 28.6914C33.9133 28.6867 33.8842 28.6845 33.8611 28.6838C33.8805 28.7124 33.9064 28.7461 33.9383 28.7846C33.9731 28.8267 34.012 28.8711 34.0532 28.9182C34.0612 28.9273 34.0692 28.9364 34.0774 28.9457C34.1268 29.0023 34.1785 29.062 34.2252 29.1211C34.2536 29.1571 34.2898 29.2023 34.3321 29.2549C34.4692 29.4258 34.6695 29.6754 34.8694 29.944C35.1293 30.2931 35.399 30.6881 35.5319 30.9968L35.533 30.9993L35.5339 31.0018C35.6396 31.2769 35.7841 31.7183 35.8756 32.1522C35.9213 32.3691 35.9545 32.5878 35.962 32.7847C35.9694 32.9784 35.9528 33.1666 35.8862 33.3126C35.7121 33.6948 35.2997 33.7402 34.9421 33.6759C34.5751 33.61 34.188 33.4202 33.9489 33.2265C33.8668 33.1599 33.8142 33.1356 33.7859 33.1285C33.7823 33.1276 33.7794 33.1271 33.7771 33.1267C33.7748 33.1315 33.7717 33.1398 33.7689 33.153C33.7633 33.1795 33.7622 33.2124 33.765 33.2438L33.7651 33.2446C33.7838 33.4672 33.7661 33.6511 33.7056 33.7938C33.6426 33.9424 33.5353 34.0403 33.3955 34.0847C33.2622 34.1271 33.111 34.1174 32.9584 34.0804C32.8043 34.043 32.6372 33.975 32.465 33.8876C31.7798 33.5396 30.9442 32.8469 30.3864 32.3196L30.3832 32.3166L30.3802 32.3134C30.1526 32.0679 29.8146 31.735 29.5372 31.5272C29.3993 31.4239 29.295 31.3663 29.2336 31.3515C29.2333 31.3556 29.2332 31.3604 29.2332 31.3658C29.2332 31.9202 28.9392 32.2408 28.7647 32.3389L28.7462 32.3494L28.7254 32.3534C27.8524 32.5254 27.152 32.0047 26.6682 31.3879C26.1835 30.7699 25.8849 30.0185 25.814 29.6354C25.7623 29.3562 25.6802 29.3384 25.6704 29.337C25.6566 29.3351 25.6334 29.3384 25.6006 29.3567C25.5685 29.3746 25.5365 29.402 25.5108 29.4308L25.5098 29.432L25.5087 29.4332C25.3481 29.6054 25.1867 29.7206 25.0233 29.7769C24.8569 29.8343 24.6956 29.8282 24.5449 29.7693C24.2538 29.6555 24.0209 29.3526 23.8352 28.9949C23.4592 28.2706 23.2143 27.1973 23.1026 26.4349L23.0901 26.3503L23.1605 26.3028C25.2746 24.8753 27.1001 22.6395 27.7464 21.7021L27.7954 21.6311ZM29.2374 31.328C29.2374 31.328 29.2373 31.3281 29.2372 31.3283C29.2373 31.3281 29.2374 31.328 29.2374 31.328ZM29.2109 31.3481C29.2103 31.3482 29.21 31.3482 29.21 31.3482C29.2099 31.3481 29.2102 31.3481 29.2109 31.3481ZM33.7704 33.1263C33.7704 33.1263 33.7706 33.1262 33.7712 33.1262C33.7707 33.1263 33.7704 33.1263 33.7704 33.1263ZM27.9154 21.928C27.2264 22.9073 25.4487 25.0605 23.379 26.4794C23.4944 27.2239 23.7293 28.2107 24.0712 28.8692C24.2509 29.2155 24.4452 29.4409 24.6409 29.5174C24.7336 29.5536 24.8306 29.5581 24.9373 29.5213C25.0467 29.4836 25.1726 29.4001 25.3138 29.2489C25.3547 29.2031 25.4089 29.1553 25.472 29.1201C25.535 29.085 25.6168 29.0571 25.7064 29.0695C25.9032 29.0966 26.0211 29.2888 26.076 29.5857C26.1384 29.9227 26.4174 30.634 26.877 31.2199C27.3326 31.8009 27.9351 32.2226 28.6517 32.0927C28.7529 32.0249 28.9666 31.7946 28.9666 31.3658C28.9666 31.2874 28.9837 31.1984 29.0512 31.137C29.1214 31.0732 29.2094 31.0718 29.2753 31.0845C29.4017 31.1087 29.5527 31.203 29.6957 31.3101C29.991 31.5312 30.34 31.8758 30.5715 32.1252C31.1245 32.6476 31.9357 33.3167 32.5845 33.6462C32.7461 33.7282 32.8932 33.7869 33.0205 33.8178C33.1492 33.849 33.2466 33.849 33.3156 33.8271C33.3781 33.8072 33.4269 33.7667 33.4606 33.6872C33.4968 33.6019 33.5163 33.4682 33.4995 33.2679C33.4949 33.2169 33.4957 33.1559 33.5082 33.0967C33.5202 33.0396 33.5467 32.9675 33.6073 32.9155C33.6749 32.8577 33.7613 32.8444 33.8494 32.8663C33.9317 32.8867 34.0199 32.9381 34.1155 33.0156C34.3208 33.182 34.6669 33.3522 34.9886 33.41C35.3197 33.4695 35.5517 33.4024 35.6441 33.1995C35.6842 33.1115 35.7024 32.9745 35.6956 32.7952C35.6888 32.6192 35.6587 32.417 35.6148 32.2086C35.5273 31.7933 35.3881 31.3674 35.2864 31.1022C35.1671 30.8262 34.9159 30.455 34.6565 30.1065C34.46 29.8425 34.2648 29.5993 34.1277 29.4283C34.0844 29.3745 34.0469 29.3277 34.017 29.2898C33.9748 29.2365 33.9271 29.1812 33.8778 29.1247C33.87 29.1159 33.8623 29.107 33.8545 29.0981C33.8133 29.0511 33.7714 29.0033 33.734 28.958C33.6898 28.9046 33.6473 28.8495 33.6163 28.7972C33.5891 28.7514 33.5533 28.68 33.5621 28.6027C33.5672 28.5577 33.587 28.5149 33.6224 28.4817C33.6552 28.4508 33.6944 28.4346 33.7297 28.4257C33.7977 28.4086 33.8841 28.4108 33.9828 28.4234C34.1845 28.4492 34.4972 28.5271 34.9601 28.6714C35.0986 28.7145 35.2038 28.7342 35.281 28.7371C35.3596 28.74 35.3954 28.7252 35.4093 28.7155C35.4178 28.7095 35.428 28.6993 35.4313 28.6655C35.435 28.6271 35.4278 28.5681 35.401 28.4852C35.3477 28.32 35.2305 28.1009 35.0614 27.8436C34.8937 27.5884 34.68 27.3031 34.4402 27.0071C33.9605 26.4151 33.3807 25.7859 32.8657 25.2769C32.6083 25.0224 32.3681 24.799 32.1655 24.6259C31.9599 24.4502 31.8019 24.3339 31.7064 24.2856C31.6505 24.2573 31.6082 24.235 31.5792 24.2182C31.5652 24.2101 31.5508 24.2014 31.5387 24.1925C31.5331 24.1884 31.5235 24.181 31.5139 24.1708C31.5091 24.1658 31.501 24.1567 31.4935 24.1438C31.4868 24.1322 31.4738 24.1062 31.4746 24.0705C31.4756 24.0277 31.4959 23.9914 31.5239 23.9681C31.5471 23.9488 31.5707 23.9423 31.5815 23.9399C31.6033 23.935 31.6219 23.9366 31.6278 23.9371C31.6438 23.9385 31.6601 23.942 31.6719 23.9448C31.6979 23.9509 31.7328 23.961 31.772 23.9728C31.8053 23.9828 31.8435 23.9945 31.8855 24.0075C32.0462 24.057 32.2623 24.1236 32.4741 24.174C32.6075 24.2057 32.7344 24.2297 32.8406 24.239C32.9487 24.2485 33.0131 24.2403 33.0421 24.2282C33.0415 24.2245 33.0405 24.2198 33.0388 24.2137C33.0228 24.1574 32.9644 24.0556 32.8221 23.8949C32.6065 23.6513 32.2719 23.4181 31.8615 23.2012C31.4528 22.9853 30.9773 22.7897 30.4872 22.6182C29.548 22.2894 28.5646 22.052 27.9154 21.928ZM33.0428 24.2377C33.0427 24.2377 33.0428 24.2376 33.0428 24.2374C33.0428 24.2376 33.0428 24.2377 33.0428 24.2377Z" fill="black"/>
<defs>
<filter id="filter0_d_1175_8444" x="0" y="0" width="125" height="49" filterUnits="userSpaceOnUse" color-interpolation-filters="sRGB">
<feFlood flood-opacity="0" result="BackgroundImageFix"/>
<feColorMatrix in="SourceAlpha" type="matrix" values="0 0 0 0 0 0 0 0 0 0 0 0 0 0 0 0 0 0 127 0" result="hardAlpha"/>
<feOffset dy="3"/>
<feComposite in2="hardAlpha" operator="out"/>
<feColorMatrix type="matrix" values="0 0 0 0 0 0 0 0 0 0 0 0 0 0 0 0 0 0 0.25 0"/>
<feBlend mode="normal" in2="BackgroundImageFix" result="effect1_dropShadow_1175_8444"/>
<feBlend mode="normal" in="SourceGraphic" in2="effect1_dropShadow_1175_8444" result="shape"/>
</filter>
</defs>
</svg>
