<svg width="42" height="41" viewBox="0 0 42 41" fill="none" xmlns="http://www.w3.org/2000/svg">
<path fill-rule="evenodd" clip-rule="evenodd" d="M17.2426 16.0999C15.9164 16.7765 15.2804 17.6589 15.035 18.5284C14.7775 19.441 14.9031 20.51 15.4058 21.5787C16.4305 23.7577 18.828 25.5383 21.4262 25.4535C24.0551 25.3677 25.5731 23.8947 26.1785 22.1512C26.8112 20.3289 26.444 18.2425 25.2397 16.961C24.3041 15.9654 22.8639 15.5376 21.2531 15.496C19.6982 15.4559 18.1726 15.7839 17.2426 16.0999ZM21.3136 13.0376C23.2219 13.0869 25.4081 13.5949 26.9684 15.2552C28.8839 17.2936 29.3366 20.3918 28.4395 22.9756C27.515 25.638 25.1532 27.7923 21.5025 27.9114C17.8211 28.0316 14.6189 25.5701 13.2439 22.6464C12.5466 21.1637 12.2722 19.4662 12.7297 17.8453C13.1952 16.1956 14.3723 14.7922 16.2613 13.854L16.3272 13.8213L16.3964 13.7971C17.5407 13.3961 19.3889 12.9879 21.3136 13.0376Z" fill="black"/>
<path fill-rule="evenodd" clip-rule="evenodd" d="M13.9048 0H27.3463L26.3484 6.53578L28.7522 7.69975L34.6103 5.81563L41.322 15.3539L35.3434 19.4679V22.2955L40.7504 26.0042L34.1627 36.4826L28.1215 33.2989L27.144 33.7724V41L14.2248 40.849V34.3113L11.0074 32.9638L6.20061 36.7277L0 25.0448L5.02542 22.2237V19.4459L0.0116238 15.7825L6.63908 4.8662L11.5573 7.98817L13.9048 6.55564V0ZM16.3047 2.45915V7.95337L11.5327 10.8653L7.41151 8.24929L3.23968 15.1209L7.42527 18.1791V23.6805L3.2513 26.0236L6.97003 33.0303L10.6427 30.1545L16.6247 32.6597V38.4177L24.7441 38.5126V32.2149L28.1662 30.5571L33.3243 33.2754L37.4559 26.7037L32.9436 23.6087V18.1571L37.9242 14.7298L33.6767 8.69337L28.5755 10.334L23.6998 7.97323L24.5418 2.45915H16.3047Z" fill="black"/>
</svg>
