<svg width="40" height="40" viewBox="0 0 40 40" fill="none" xmlns="http://www.w3.org/2000/svg">
<path fill-rule="evenodd" clip-rule="evenodd" d="M16.9929 9.09611C14.54 6.93052 11.9864 5.24108 10.3888 4.35036L10.6131 3.94006C12.2376 4.84587 14.8188 6.55421 17.2983 8.74324C19.7747 10.9295 22.1696 13.6127 23.3961 16.4715L22.9703 16.6578C21.7841 13.8928 19.449 11.2644 16.9929 9.09611Z" fill="black"/>
<path fill-rule="evenodd" clip-rule="evenodd" d="M7.38834 0.82055C4.75164 0.15715 3.1211 0.552928 2.44048 1.05397L2.43714 1.05643L2.43372 1.05876C0.276091 2.53131 0.115786 5.1996 0.878753 8.05805C1.6379 10.9022 3.28833 13.8252 4.58037 15.6471C5.61717 17.1091 7.29865 18.7978 8.9914 20.2897C10.6831 21.7807 12.3696 23.0606 13.4067 23.7076C13.669 23.8713 14.0207 23.9157 14.4654 23.8314C14.91 23.7471 15.4247 23.5378 15.9858 23.2257C17.1073 22.602 18.3719 21.5915 19.5634 20.4559C20.7535 19.3217 21.8607 18.0722 22.6686 16.9786C23.0727 16.4315 23.3988 15.9277 23.6227 15.4998C23.8516 15.0625 23.9565 14.7363 23.9565 14.5338C23.9565 14.1748 23.7695 13.6389 23.4144 12.9792C23.0645 12.3294 22.5696 11.592 21.9944 10.841C20.8431 9.33789 19.3867 7.80212 18.1675 6.82855C13.6068 3.18688 10.0145 1.48131 7.38834 0.82055ZM7.50049 0.365787C10.2088 1.04721 13.8599 2.79149 18.4552 6.4609C19.7106 7.4633 21.1927 9.02849 22.3614 10.5542C22.9461 11.3176 23.4565 12.0765 23.822 12.7553C24.1821 13.4242 24.4205 14.0492 24.4205 14.5338C24.4205 14.8586 24.2668 15.272 24.0329 15.7189C23.794 16.1753 23.4531 16.7002 23.0405 17.2589C22.2147 18.3768 21.089 19.6463 19.8818 20.7968C18.676 21.946 17.3791 22.9858 16.2096 23.6363C15.6253 23.9613 15.0622 24.1951 14.551 24.292C14.04 24.3889 13.5579 24.3528 13.1629 24.1064C12.0966 23.4411 10.3891 22.1435 8.68635 20.6428C6.98466 19.1431 5.27132 17.4262 4.20318 15.92C2.89175 14.0708 1.20921 11.0965 0.430763 8.18005C-0.343508 5.27924 -0.246491 2.32502 2.1706 0.672732C3.01225 0.0557053 4.80627 -0.312086 7.50049 0.365787Z" fill="black"/>
<path d="M2.53583 0.786489C-1.11419 3.16103 0.447896 8.59747 1.68519 11.0189C7.8098 11.0189 10.4236 4.97838 10.9649 1.95814C6.7581 0.0210134 4.23711 -0.150832 2.53583 0.786489Z" fill="#446EDC"/>
<path fill-rule="evenodd" clip-rule="evenodd" d="M2.65431 0.988148C0.931224 2.11329 0.422755 3.96382 0.509505 5.87438C0.593443 7.72304 1.23587 9.58602 1.82706 10.7834C4.72829 10.7377 6.80664 9.29163 8.23722 7.47522C9.63786 5.69682 10.4089 3.57197 10.7027 2.09548C6.61368 0.238405 4.23046 0.124223 2.65431 0.988148ZM2.42473 0.580784C4.23003 -0.413849 6.8447 -0.196621 11.0611 1.74493L11.2253 1.82054L11.1932 1.99989C10.9171 3.5402 10.1154 5.84334 8.60032 7.76699C7.08074 9.69641 4.83429 11.2532 1.68518 11.2532H1.54385L1.47902 11.1264C0.849729 9.89482 0.136876 7.89716 0.0460064 5.89585C-0.044986 3.89184 0.488992 1.83935 2.4102 0.589496L2.41731 0.584872L2.42473 0.580784Z" fill="black"/>
<path fill-rule="evenodd" clip-rule="evenodd" d="M16.5018 23.2551C9.64752 19.6046 5.15627 13.4778 3.87494 10.8893L4.28994 10.6797C5.53476 13.1945 9.96233 19.2424 16.7183 22.8405L16.5018 23.2551Z" fill="black"/>
<path d="M18.466 14.2214C18.466 16.3352 16.631 18.0488 14.3675 18.0488C12.1039 18.0488 10.2689 16.3352 10.2689 14.2214C10.2689 12.1076 12.1039 10.394 14.3675 10.394C16.631 10.394 18.466 12.1076 18.466 14.2214Z" fill="#494949"/>
<path fill-rule="evenodd" clip-rule="evenodd" d="M14.3675 17.5801C16.4097 17.5801 18.002 16.0424 18.002 14.2214C18.002 12.4004 16.4097 10.8627 14.3675 10.8627C12.3252 10.8627 10.7329 12.4004 10.7329 14.2214C10.7329 16.0424 12.3252 17.5801 14.3675 17.5801ZM14.3675 18.0488C16.631 18.0488 18.466 16.3352 18.466 14.2214C18.466 12.1076 16.631 10.394 14.3675 10.394C12.1039 10.394 10.2689 12.1076 10.2689 14.2214C10.2689 16.3352 12.1039 18.0488 14.3675 18.0488Z" fill="black"/>
<path d="M17.3834 14.2214C17.3834 15.8175 15.9985 17.1114 14.2902 17.1114C12.5818 17.1114 11.1969 15.8175 11.1969 14.2214C11.1969 12.6252 12.5818 11.3313 14.2902 11.3313C15.9985 11.3313 17.3834 12.6252 17.3834 14.2214Z" fill="#446EDC"/>
<path fill-rule="evenodd" clip-rule="evenodd" d="M14.2902 16.6428C15.777 16.6428 16.9194 15.5249 16.9194 14.2214C16.9194 12.9178 15.777 11.8 14.2902 11.8C12.8033 11.8 11.6609 12.9178 11.6609 14.2214C11.6609 15.5249 12.8033 16.6428 14.2902 16.6428ZM14.2902 17.1114C15.9985 17.1114 17.3834 15.8175 17.3834 14.2214C17.3834 12.6252 15.9985 11.3313 14.2902 11.3313C12.5818 11.3313 11.1969 12.6252 11.1969 14.2214C11.1969 15.8175 12.5818 17.1114 14.2902 17.1114Z" fill="black"/>
<path d="M10.3462 31.015C4.77842 26.8908 4.52065 19.8193 5.08774 16.799C6.75809 19.1111 11.4031 22.6052 13.5168 24.0632C13.4395 24.3496 13.1147 25.2036 12.4342 26.3284C11.5835 27.7344 14.9088 30.1558 15.8367 31.015C16.7647 31.8742 17.306 36.1702 10.3462 31.015Z" fill="#00408A"/>
<path fill-rule="evenodd" clip-rule="evenodd" d="M4.95957 16.2241L5.27514 16.6609C6.09098 17.7901 7.64865 19.2252 9.28254 20.5697C10.911 21.9097 12.5954 23.1438 13.6476 23.8697L13.7841 23.9638L13.7406 24.1249C13.656 24.4383 13.3205 25.3128 12.6321 26.4506C12.4782 26.705 12.495 27.0274 12.6859 27.4322C12.8766 27.8367 13.2214 28.2766 13.6362 28.7148C14.2057 29.3165 14.8628 29.8726 15.3797 30.3102C15.6234 30.5164 15.8359 30.6963 15.9935 30.8422C16.2748 31.1027 16.4998 31.5866 16.5779 32.0642C16.6555 32.5382 16.6016 33.1001 16.2006 33.4481C15.7959 33.7994 15.1343 33.8497 14.1972 33.5329C13.2504 33.2129 11.9568 32.4985 10.209 31.2039C7.37257 29.1029 5.89162 26.2523 5.19196 23.5523C4.49318 20.8557 4.57025 18.2975 4.85981 16.7553L4.95957 16.2241ZM5.23205 17.3662C5.03024 18.87 5.03541 21.0973 5.64083 23.4337C6.32024 26.0556 7.75209 28.8029 10.4834 30.826C12.2156 32.1091 13.4642 32.7909 14.3444 33.0885C15.2342 33.3893 15.6843 33.2784 15.8982 33.0927C16.1159 32.9037 16.1876 32.5527 16.1202 32.1406C16.0533 31.7321 15.8627 31.3569 15.68 31.1877C15.5467 31.0643 15.3514 30.8988 15.1203 30.703C14.5957 30.2584 13.8867 29.6577 13.3008 29.0387C12.8746 28.5883 12.4895 28.1056 12.267 27.6338C12.0447 27.1623 11.9648 26.6548 12.2362 26.2062C12.8068 25.2631 13.1194 24.5203 13.2439 24.1583C12.1771 23.4162 10.5581 22.2238 8.98949 20.933C7.54734 19.7463 6.13214 18.4639 5.23205 17.3662Z" fill="black"/>
<path d="M30.6384 10.3363C26.7465 5.36474 19.7277 4.83285 16.7048 5.18835C18.9406 6.72695 22.2405 10.8769 23.611 12.7595C23.8986 12.7056 24.7595 12.4635 25.9027 11.9273C27.3318 11.2571 29.6147 14.2244 30.4341 15.0605C31.2535 15.8967 35.5032 16.5508 30.6384 10.3363Z" fill="#00408A"/>
<path fill-rule="evenodd" clip-rule="evenodd" d="M16.0601 5.02825L16.5741 5.382C17.6658 6.13328 19.0333 7.53562 20.3082 8.99968C21.5789 10.4591 22.7423 11.9618 23.4241 12.8983L23.5103 13.0168L23.6534 12.9899C23.9647 12.9315 24.8444 12.6821 26.0004 12.1399C26.2699 12.0134 26.6035 12.0462 27.0021 12.2298C27.3992 12.4126 27.824 12.7292 28.2431 13.1044C28.8195 13.6204 29.3461 14.2083 29.7614 14.6719C29.9577 14.891 30.1291 15.0824 30.2692 15.2254C30.5191 15.4804 30.9891 15.6926 31.4536 15.7794C31.9122 15.8652 32.4625 15.846 32.8235 15.5162C33.2067 15.166 33.2768 14.5677 32.9934 13.7374C32.7078 12.9007 32.0422 11.7518 30.8204 10.191C28.834 7.65358 26.0559 6.25675 23.4058 5.53836C20.7566 4.8202 18.2166 4.77464 16.6779 4.95559L16.0601 5.02825ZM17.3355 5.36654C18.84 5.26762 21.0214 5.37723 23.2856 5.991C25.8736 6.69258 28.5509 8.04748 30.4564 10.4817C31.667 12.0281 32.2945 13.1279 32.5547 13.8902C32.8171 14.6589 32.6857 15.0101 32.5122 15.1686C32.3164 15.3475 31.9547 15.3965 31.538 15.3186C31.1273 15.2418 30.7588 15.0587 30.5989 14.8957C30.4821 14.7765 30.3255 14.6018 30.1399 14.3949C29.7174 13.9238 29.1448 13.2854 28.5509 12.7537C28.1182 12.3663 27.6531 12.0145 27.1946 11.8033C26.7376 11.5929 26.25 11.5061 25.805 11.7148C24.8289 12.1726 24.0679 12.41 23.7084 12.4982C23.0103 11.5472 21.8834 10.0991 20.6566 8.69017C19.5605 7.43147 18.3734 6.19066 17.3355 5.36654Z" fill="black"/>
<path d="M15.1408 26.7971C13.9654 25.8597 14.2386 24.6881 14.5222 24.2194C14.9552 24.2194 16.0945 23.5946 16.6101 23.2821L19.0073 21.3294C19.5744 20.8086 21.0334 19.3766 22.3326 17.8144C23.6317 16.2522 24.2658 14.8202 24.4205 14.2995C24.8587 14.3255 25.8743 14.5338 26.4311 15.1587C26.9879 15.7836 26.6631 17.0333 26.4311 17.5801C24.4514 20.9545 20.9664 24.2455 19.4713 25.4692C18.5176 26.3024 16.3162 27.7344 15.1408 26.7971Z" fill="#B63030"/>
<path fill-rule="evenodd" clip-rule="evenodd" d="M24.251 14.0547L24.4341 14.0656C24.6738 14.0798 25.0584 14.1424 25.4578 14.2833C25.8554 14.4236 26.2889 14.6489 26.6035 15.0019C26.9476 15.3881 27.0004 15.9402 26.9579 16.4196C26.9147 16.9079 26.7679 17.3813 26.6443 17.6724L26.6384 17.6864L26.6307 17.6996C24.6321 21.1062 21.1262 24.4157 19.6202 25.6489C19.1306 26.0761 18.3226 26.6567 17.4787 27.0132C16.6509 27.363 15.6928 27.5358 14.997 26.981C14.3606 26.4735 14.1025 25.8881 14.0533 25.3542C14.005 24.8298 14.1593 24.3698 14.3242 24.0972L14.392 23.9851H14.5221C14.5878 23.9851 14.7082 23.9585 14.8805 23.8963C15.0458 23.8365 15.2371 23.7524 15.4349 23.6566C15.8232 23.4686 16.223 23.2428 16.477 23.0895L18.8563 21.1513C19.4212 20.632 20.8678 19.2115 22.1549 17.6637C23.4363 16.1229 24.0538 14.7187 24.1983 14.2322L24.251 14.0547ZM24.5817 14.5509C24.3469 15.203 23.7008 16.5335 22.5102 17.9652C21.2029 19.5372 19.7362 20.9767 19.1634 21.5028L19.1583 21.5074L16.7432 23.4747L16.7294 23.4831C16.4671 23.6421 16.0468 23.8801 15.6354 24.0793C15.4299 24.1788 15.2228 24.2704 15.0367 24.3376C14.9115 24.3828 14.7838 24.4215 14.6668 24.4408C14.5678 24.6472 14.483 24.9599 14.5153 25.3108C14.5525 25.7142 14.7455 26.1833 15.2845 26.6131C15.7642 26.9956 16.4944 26.9211 17.2996 26.5809C18.0871 26.2482 18.8551 25.6977 19.3195 25.292L19.3224 25.2895L19.3252 25.2871C20.809 24.0727 24.2628 20.8093 26.2237 17.474C26.331 17.2171 26.4585 16.7996 26.4958 16.3778C26.5346 15.9394 26.4713 15.5541 26.2586 15.3155C26.0164 15.0436 25.6638 14.8524 25.3048 14.7258C25.0374 14.6314 24.7783 14.5771 24.5817 14.5509Z" fill="black"/>
<path d="M21.6366 31.718C19.5332 33.9675 18.234 29.2705 17.8474 26.6408C21.5593 24.1413 24.7556 20.2358 25.8898 18.5955C28.1582 19.0121 33.097 20.2983 34.7055 22.1105C36.7161 24.3756 31.1483 21.9542 32.6949 22.7353C34.2415 23.5164 42.2066 32.0304 38.1854 30.7806C34.9684 29.7808 36.1748 30.7025 36.7935 31.4836C37.2206 32.0229 38.5978 33.6707 39.0361 34.6861C39.3969 35.6235 40.0259 37.7012 39.6547 38.5135C39.1907 39.5289 37.4121 38.9041 36.6388 38.2792C36.0201 37.7793 35.917 38.2271 35.9428 38.5135C36.1903 41.4504 32.3856 38.5395 30.4523 36.717C29.6532 35.8578 28.0551 34.3581 28.0551 35.2329C28.0551 36.1077 27.5911 36.5868 27.3591 36.717C24.5752 37.2638 22.7966 33.4364 22.5646 32.1866C22.379 31.1868 21.8686 31.4576 21.6366 31.718Z" fill="#FD9E46"/>
<path fill-rule="evenodd" clip-rule="evenodd" d="M25.7848 18.3381L25.9313 18.365C27.0748 18.575 28.8884 19.0034 30.6209 19.6082C31.4872 19.9106 32.3377 20.2586 33.0758 20.6476C33.8109 21.035 34.4492 21.4707 34.8782 21.954C35.1332 22.2413 35.2973 22.4846 35.3559 22.691C35.3866 22.799 35.3943 22.9175 35.3491 23.0303C35.3026 23.1463 35.2144 23.2208 35.1221 23.2653C34.9539 23.3464 34.7303 23.349 34.5251 23.3311C34.3083 23.3122 34.0628 23.2648 33.8212 23.2076C33.7761 23.1969 33.7309 23.1858 33.6858 23.1744C33.687 23.1754 33.6882 23.1764 33.6894 23.1775C34.0529 23.4873 34.4794 23.8831 34.9328 24.33C35.8394 25.2236 36.8603 26.3284 37.7074 27.3709C38.1309 27.8921 38.513 28.4002 38.8162 28.8604C39.1171 29.3171 39.3493 29.7398 39.462 30.0878C39.5181 30.2612 39.5506 30.434 39.5354 30.5919C39.5194 30.7579 39.4487 30.9141 39.2995 31.0185C39.1597 31.1162 38.9822 31.146 38.7948 31.139C38.6048 31.1318 38.3789 31.0859 38.1172 31.0046C37.3143 30.7551 36.8029 30.6306 36.4947 30.5913C36.4318 30.5833 36.3812 30.5794 36.3411 30.5782C36.3748 30.6279 36.4199 30.6863 36.4754 30.7532C36.536 30.8262 36.6036 30.9032 36.6754 30.985C36.6892 31.0007 36.7032 31.0167 36.7174 31.0328C36.8034 31.1309 36.8933 31.2346 36.9746 31.3372C37.024 31.3996 37.0871 31.478 37.1607 31.5694C37.3993 31.8659 37.7479 32.2991 38.0958 32.7653C38.548 33.3712 39.0175 34.0567 39.2487 34.5925L39.2506 34.5968L39.2523 34.6012C39.4361 35.0786 39.6877 35.8446 39.8468 36.5978C39.9263 36.9743 39.9841 37.3537 39.9972 37.6955C40.0101 38.0316 39.9811 38.3582 39.8653 38.6117C39.5623 39.2749 38.8446 39.3537 38.2222 39.2422C37.5835 39.1277 36.9099 38.7983 36.4939 38.4622C36.3509 38.3467 36.2594 38.3044 36.2102 38.2922C36.2038 38.2906 36.1987 38.2897 36.1948 38.2891C36.1909 38.2974 36.1854 38.3117 36.1806 38.3346C36.1709 38.3806 36.1689 38.4378 36.1738 38.4923L36.174 38.4936C36.2065 38.8799 36.1756 39.1992 36.0704 39.4467C35.9608 39.7047 35.774 39.8745 35.5307 39.9517C35.2987 40.0252 35.0356 40.0084 34.7701 39.9442C34.5019 39.8793 34.2111 39.7613 33.9114 39.6095C32.7189 39.0056 31.2647 37.8034 30.294 36.8883L30.2884 36.883L30.2832 36.8774C29.887 36.4514 29.2989 35.8736 28.8161 35.5131C28.576 35.3338 28.3946 35.2337 28.2877 35.2081C28.2873 35.2152 28.287 35.2235 28.287 35.2329C28.287 36.1951 27.7754 36.7514 27.4717 36.9218L27.4395 36.9399L27.4034 36.947C25.884 37.2454 24.6651 36.3418 23.8232 35.2713C22.9797 34.1987 22.46 32.8947 22.3365 32.2298C22.2466 31.7452 22.1038 31.7143 22.0867 31.7119C22.0627 31.7086 22.0224 31.7143 21.9653 31.746C21.9093 31.7771 21.8537 31.8246 21.809 31.8747L21.8072 31.8768L21.8052 31.8789C21.5258 32.1777 21.2449 32.3775 20.9605 32.4754C20.671 32.5749 20.3902 32.5643 20.128 32.4621C19.6213 32.2647 19.216 31.7389 18.8929 31.1182C18.2385 29.8612 17.8124 27.9983 17.6179 26.6753L17.5963 26.5283L17.7187 26.4459C21.3979 23.9684 24.5748 20.0881 25.6996 18.4613L25.7848 18.3381ZM28.2943 35.1673C28.2943 35.1673 28.2942 35.1675 28.2941 35.1678C28.2942 35.1674 28.2943 35.1672 28.2943 35.1673ZM28.2483 35.2021C28.2472 35.2023 28.2467 35.2023 28.2466 35.2023C28.2466 35.2023 28.2471 35.2022 28.2483 35.2021ZM36.1832 38.2883C36.1832 38.2883 36.1836 38.2882 36.1846 38.2882C36.1837 38.2884 36.1832 38.2884 36.1832 38.2883ZM25.9937 18.8533C24.7946 20.553 21.7008 24.2899 18.0989 26.7524C18.2999 28.0446 18.7085 29.7571 19.3035 30.9001C19.6164 31.5011 19.9544 31.8921 20.295 32.0249C20.4565 32.0878 20.6252 32.0956 20.8109 32.0317C21.0013 31.9662 21.2204 31.8213 21.4662 31.559C21.5373 31.4796 21.6317 31.3965 21.7414 31.3355C21.8511 31.2745 21.9934 31.2261 22.1493 31.2475C22.4918 31.2947 22.6969 31.6283 22.7926 32.1434C22.9011 32.7283 23.3867 33.9628 24.1865 34.9797C24.9794 35.988 26.0279 36.7199 27.2751 36.4945C27.4513 36.3768 27.8231 35.9771 27.8231 35.2329C27.8231 35.0968 27.8528 34.9424 27.9703 34.8359C28.0925 34.7251 28.2456 34.7227 28.3604 34.7446C28.5803 34.7866 28.8431 34.9504 29.0919 35.1363C29.6058 35.52 30.2132 36.1181 30.6161 36.5509C31.5786 37.4576 32.9902 38.6187 34.1193 39.1906C34.4006 39.333 34.6565 39.4348 34.8781 39.4884C35.1022 39.5426 35.2716 39.5426 35.3917 39.5045C35.5004 39.4701 35.5854 39.3998 35.6441 39.2618C35.707 39.1137 35.7409 38.8816 35.7117 38.5341C35.7038 38.4455 35.7051 38.3396 35.7268 38.2369C35.7477 38.1379 35.7938 38.0126 35.8994 37.9225C36.0169 37.8222 36.1674 37.7991 36.3207 37.837C36.4639 37.8725 36.6173 37.9617 36.7837 38.0962C37.141 38.3849 37.7433 38.6804 38.3033 38.7807C38.8795 38.884 39.2831 38.7675 39.444 38.4153C39.5138 38.2626 39.5455 38.0249 39.5336 37.7137C39.5218 37.4082 39.4694 37.0573 39.393 36.6956C39.2407 35.9748 38.9984 35.2357 38.8215 34.7755C38.6138 34.2963 38.1767 33.6522 37.7253 33.0474C37.3833 32.5891 37.0436 32.167 36.8049 31.8704C36.7296 31.7769 36.6644 31.6958 36.6123 31.63C36.5389 31.5374 36.4558 31.4414 36.37 31.3435C36.3566 31.3282 36.343 31.3128 36.3294 31.2973C36.2577 31.2157 36.1849 31.1328 36.1197 31.0542C36.0429 30.9615 35.9689 30.8657 35.9149 30.775C35.8676 30.6955 35.8053 30.5716 35.8206 30.4374C35.8295 30.3593 35.864 30.2851 35.9256 30.2274C35.9827 30.1738 36.0509 30.1457 36.1123 30.1303C36.2307 30.1006 36.381 30.1045 36.5528 30.1264C36.9038 30.1711 37.448 30.3063 38.2536 30.5567C38.4946 30.6316 38.6777 30.6656 38.812 30.6707C38.9489 30.6758 39.0112 30.6501 39.0354 30.6332C39.0502 30.6228 39.0679 30.6051 39.0736 30.5465C39.08 30.4798 39.0675 30.3774 39.0209 30.2335C38.9282 29.9469 38.7242 29.5665 38.43 29.1201C38.1381 28.6771 37.7662 28.182 37.3488 27.6682C36.5139 26.6408 35.5049 25.5488 34.6087 24.6654C34.1607 24.2238 33.7427 23.8361 33.3902 23.5356C33.0324 23.2307 32.7573 23.0288 32.5912 22.9449C32.4939 22.8958 32.4203 22.8571 32.3698 22.8281C32.3455 22.814 32.3204 22.7988 32.2993 22.7834C32.2896 22.7763 32.2728 22.7634 32.2561 22.7459C32.2478 22.7371 32.2338 22.7212 32.2207 22.6989C32.209 22.6788 32.1863 22.6336 32.1878 22.5716C32.1895 22.4974 32.2248 22.4343 32.2736 22.3939C32.314 22.3604 32.3549 22.3492 32.3738 22.345C32.4117 22.3366 32.4441 22.3393 32.4544 22.3402C32.4822 22.3425 32.5105 22.3487 32.5311 22.3535C32.5764 22.3642 32.6372 22.3817 32.7053 22.4021C32.7633 22.4194 32.8298 22.4399 32.9029 22.4623C33.1825 22.5483 33.5586 22.6639 33.9272 22.7513C34.1593 22.8063 34.3802 22.8481 34.5651 22.8642C34.7532 22.8806 34.8652 22.8664 34.9157 22.8453C34.9147 22.839 34.9129 22.8307 34.9099 22.8202C34.8822 22.7224 34.7804 22.5459 34.5328 22.2669C34.1575 21.8441 33.5753 21.4395 32.8611 21.0631C32.1499 20.6882 31.3223 20.3489 30.4693 20.0511C28.8349 19.4806 27.1235 19.0685 25.9937 18.8533ZM34.9168 22.8619C34.9168 22.8619 34.9168 22.8617 34.9169 22.8613C34.9169 22.8617 34.9168 22.8618 34.9168 22.8619Z" fill="black"/>
</svg>
