<svg width="27" height="26" viewBox="0 0 27 26" fill="none" xmlns="http://www.w3.org/2000/svg">
<path d="M0.81 8.66667H2.7C2.8485 8.66667 2.97 8.54479 2.97 8.39583V2.4375H8.91C9.0585 2.4375 9.18 2.31562 9.18 2.16667V0.270833C9.18 0.121875 9.0585 0 8.91 0H2.835C1.566 0 0.54 1.02917 0.54 2.30208V8.39583C0.54 8.54479 0.6615 8.66667 0.81 8.66667ZM18.09 2.4375H24.03V8.39583C24.03 8.54479 24.1515 8.66667 24.3 8.66667H26.19C26.3385 8.66667 26.46 8.54479 26.46 8.39583V2.30208C26.46 1.02917 25.434 0 24.165 0H18.09C17.9415 0 17.82 0.121875 17.82 0.270833V2.16667C17.82 2.31562 17.9415 2.4375 18.09 2.4375ZM8.91 23.5625H2.97V17.6042C2.97 17.4552 2.8485 17.3333 2.7 17.3333H0.81C0.6615 17.3333 0.54 17.4552 0.54 17.6042V23.6979C0.54 24.9708 1.566 26 2.835 26H8.91C9.0585 26 9.18 25.8781 9.18 25.7292V23.8333C9.18 23.6844 9.0585 23.5625 8.91 23.5625ZM26.19 17.3333H24.3C24.1515 17.3333 24.03 17.4552 24.03 17.6042V23.5625H18.09C17.9415 23.5625 17.82 23.6844 17.82 23.8333V25.7292C17.82 25.8781 17.9415 26 18.09 26H24.165C25.434 26 26.46 24.9708 26.46 23.6979V17.6042C26.46 17.4552 26.3385 17.3333 26.19 17.3333ZM26.73 11.7812H0.27C0.1215 11.7812 0 11.9031 0 12.0521V13.9479C0 14.0969 0.1215 14.2188 0.27 14.2188H26.73C26.8785 14.2188 27 14.0969 27 13.9479V12.0521C27 11.9031 26.8785 11.7812 26.73 11.7812Z" fill="#28292C"/>
</svg>
